<svg width="580" height="565" viewBox="0 0 580 565" fill="none" xmlns="http://www.w3.org/2000/svg">
<path d="M80.0046 466.695C89.5117 449.567 97.4914 428.738 98.2615 406.33C100.256 348.292 53.1352 301.631 53.1352 301.631C53.1352 301.631 2.78062 349.068 0.786102 407.105C-0.741012 451.542 26.5249 489.31 39.3878 504.57L35.8282 507.89L49.4682 522.517L53.0392 519.187C67.5086 533.172 103.145 562.713 147.355 564.281C205.39 566.34 256.224 519.417 256.224 519.417C256.224 519.417 212.964 469.156 154.928 467.097C132.893 466.316 111.896 472.595 94.3256 480.687L160.784 418.713C175.254 432.698 210.89 462.239 255.1 463.807C313.135 465.866 363.969 418.943 363.969 418.943C363.969 418.943 320.709 368.682 262.673 366.624C240.638 365.842 219.641 372.121 202.071 380.213L268.529 318.239C282.999 332.224 318.635 361.765 362.845 363.333C420.881 365.392 471.714 318.469 471.714 318.469C471.714 318.469 428.454 268.208 370.419 266.149C348.383 265.368 327.386 271.647 309.816 279.739L376.275 217.765C390.744 231.75 426.38 261.291 470.59 262.859C528.626 264.918 579.459 217.995 579.459 217.995C579.459 217.995 536.199 167.734 478.164 165.675C456.129 164.894 435.132 171.173 417.561 179.265L488.28 113.318L474.64 98.6908L403.24 165.273C412.747 148.145 420.727 127.316 421.497 104.908C423.492 46.8701 376.371 0.209223 376.371 0.209223C376.371 0.209223 326.016 47.6459 324.022 105.683C322.495 150.12 349.76 187.888 362.623 203.148L295.495 265.747C305.002 248.619 312.982 227.791 313.752 205.382C315.746 147.344 268.625 100.683 268.625 100.683C268.625 100.683 218.271 148.12 216.276 206.157C214.749 250.594 242.015 288.362 254.878 303.623L187.75 366.221C197.257 349.093 205.236 328.265 206.007 305.856C208.001 247.818 160.88 201.157 160.88 201.157C160.88 201.157 110.526 248.594 108.531 306.631C107.004 351.068 134.27 388.836 147.133 404.097L80.0046 466.695Z" fill="#B9C4E4"/>
</svg>
