<svg width="338" height="676" viewBox="0 0 338 676" fill="none" xmlns="http://www.w3.org/2000/svg">
<path fill-rule="evenodd" clip-rule="evenodd" d="M232.528 337.938C232.528 209.516 128.421 105.409 -0.000640869 105.409V164.801C95.6204 164.801 173.137 242.317 173.137 337.938C173.137 433.559 95.6205 511.075 -0.000610352 511.075V570.467C128.422 570.467 232.528 466.36 232.528 337.938Z" fill="#B9C4E4"/>
<path fill-rule="evenodd" clip-rule="evenodd" d="M337.937 337.938C337.937 151.3 186.637 -1.63164e-05 -0.000640869 0V59.3916C153.836 59.3916 278.546 184.101 278.546 337.938C278.546 491.775 153.836 616.485 -0.000579834 616.485V675.876C186.637 675.876 337.938 524.576 337.937 337.938Z" fill="#B9C4E4"/>
<path fill-rule="evenodd" clip-rule="evenodd" d="M131.91 337.938C131.91 265.086 72.8517 206.027 -0.000640869 206.027V265.419C40.0506 265.419 72.5187 297.887 72.5187 337.938C72.5187 377.989 40.0507 410.457 -0.000610352 410.457V469.849C72.8517 469.849 131.91 410.79 131.91 337.938Z" fill="#B9C4E4"/>
</svg>
