<svg width="64" height="64" viewBox="0 0 64 64" fill="none" xmlns="http://www.w3.org/2000/svg">
<path d="M23.4373 28.4532C9.92192 28.8838 0 30.3087 0 32C0 33.6913 9.92192 35.1162 23.4373 35.5468C14.185 45.4081 8.17663 53.4315 9.3726 54.6274C10.5686 55.8234 18.5919 49.8151 28.4532 40.5627C28.8838 54.0781 30.3087 64 32 64C33.6913 64 35.1162 54.0781 35.5468 40.5627C45.4081 49.815 53.4315 55.8234 54.6274 54.6274C55.8234 53.4314 49.8151 45.4081 40.5627 35.5468C54.0781 35.1162 64 33.6913 64 32C64 30.3087 54.0781 28.8838 40.5627 28.4532C49.8151 18.5919 55.8234 10.5685 54.6274 9.37259C53.4315 8.17662 45.4081 14.185 35.5468 23.4373C35.1162 9.92192 33.6913 0 32 0C30.3087 0 28.8838 9.9219 28.4532 23.4373C18.5919 14.1849 10.5685 8.17661 9.37258 9.37257C8.17662 10.5685 14.185 18.5919 23.4373 28.4532Z" fill="#6CACBB"/>
</svg>
