<svg width="546" height="273" viewBox="0 0 546 273" fill="none" xmlns="http://www.w3.org/2000/svg">
<path fill-rule="evenodd" clip-rule="evenodd" d="M273 85.1539C376.745 85.1539 460.846 169.255 460.846 273H412.867C412.867 195.753 350.247 133.133 273 133.133C195.753 133.133 133.133 195.753 133.133 273H85.1538C85.1538 169.255 169.255 85.1539 273 85.1539Z" fill="#5E7CCE"/>
<path fill-rule="evenodd" clip-rule="evenodd" d="M273 0C423.774 1.31811e-05 546 122.226 546 273H498.021C498.021 148.724 397.276 47.9789 273 47.9789C148.724 47.9789 47.9789 148.724 47.9789 273H0C1.31811e-05 122.226 122.226 -1.31811e-05 273 0Z" fill="#5E7CCE"/>
<path fill-rule="evenodd" clip-rule="evenodd" d="M273 166.437C331.853 166.437 379.563 214.147 379.563 273H331.584C331.584 240.645 305.355 214.416 273 214.416C240.645 214.416 214.416 240.645 214.416 273H166.437C166.437 214.147 214.147 166.437 273 166.437Z" fill="#5E7CCE"/>
</svg>
