<svg width="49" height="33" viewBox="0 0 49 33" fill="none" xmlns="http://www.w3.org/2000/svg">
<path d="M38.3808 18.5717L39.7816 18.5391C55.125 18.2784 50.0105 -4.26437 33.5921 1.69708C21.4737 6.09487 23.7215 26.3247 36.6868 29.6475C42.4203 31.1134 48.8052 30.071 44.0491 28.4422C39.977 27.074 36.6868 23.1324 36.9149 19.9073C36.98 19.1906 37.599 18.5717 38.3808 18.5717Z" fill="#CCB548"/>
<path d="M8.44375 0.882765C-6.31329 6.55103 -0.31928 31.309 16.0666 32.3841C20.334 32.6772 21.4417 31.6674 18.2166 30.4621C15.0893 29.2893 11.1476 23.7514 10.7241 20.0051C10.6264 19.2558 11.2127 18.6368 11.9619 18.6368C16.262 18.6368 18.0537 18.6369 20.5621 15.1839C26.719 6.64889 18.5424 -2.99381 8.44375 0.882765Z" fill="#CCB548"/>
</svg>
