<svg width="215" height="215" viewBox="0 0 215 215" fill="none" xmlns="http://www.w3.org/2000/svg">
<path d="M113.864 1.22395C108.991 -0.407982 106.009 -0.407982 101.136 1.22395C89.2494 5.20504 89.765 30.3991 93.4382 55.2562C84.1382 31.9136 71.9379 9.86462 59.6586 12.3881C54.625 13.4225 52.0461 14.9192 48.6509 18.7765C40.4856 28.053 53.0933 49.1096 68.45 68.5356C48.9903 53.2216 27.9061 40.6602 18.6475 48.8458C14.7977 52.2496 13.3067 54.8317 12.2833 59.8675C9.80378 72.0688 31.5632 84.1387 54.7487 93.3637C30.0572 89.7585 5.17795 89.3303 1.22395 101.136C-0.407982 106.009 -0.407982 108.991 1.22395 113.864C5.17795 125.67 30.0571 125.241 54.7487 121.636C31.5631 130.861 9.80368 142.931 12.2832 155.133C13.3066 160.168 14.7976 162.75 18.6474 166.154C27.9059 174.34 48.9898 161.779 68.4493 146.465C53.0928 165.891 40.4854 186.947 48.6506 196.223C52.0458 200.081 54.6247 201.577 59.6582 202.612C71.9378 205.135 84.1383 183.086 93.4384 159.743C89.765 184.6 89.2492 209.795 101.136 213.776C106.009 215.408 108.991 215.408 113.864 213.776C125.751 209.795 125.235 184.599 121.561 159.741C130.862 183.085 143.062 205.135 155.342 202.612C160.376 201.577 162.955 200.081 166.35 196.223C174.515 186.947 161.908 165.891 146.551 146.465C166.011 161.779 187.094 174.34 196.353 166.154C200.203 162.75 201.694 160.168 202.717 155.133C205.197 142.931 183.437 130.861 160.252 121.636C184.943 125.241 209.822 125.67 213.776 113.864C215.408 108.991 215.408 106.009 213.776 101.136C209.822 89.3304 184.943 89.7585 160.252 93.3636C183.437 84.1387 205.197 72.0687 202.717 59.8675C201.694 54.8317 200.203 52.2496 196.353 48.8458C187.094 40.6602 166.01 53.2216 146.55 68.5356C161.907 49.1096 174.515 28.053 166.349 18.7765C162.954 14.9192 160.375 13.4225 155.342 12.3881C143.062 9.86457 130.862 31.9145 121.562 55.2576C125.235 30.4 125.751 5.20512 113.864 1.22395Z" fill="#B7CAFF"/>
</svg>
