<svg width="62" height="66" viewBox="0 0 62 66" fill="none" xmlns="http://www.w3.org/2000/svg">
<path fill-rule="evenodd" clip-rule="evenodd" d="M46.6621 23.934C47.8522 21.7042 48.5223 19.1854 48.5223 16.519C48.5223 7.39579 40.6773 0 31 0V14.8725C29.678 12.7116 27.8429 10.8577 25.5417 9.51372C17.6873 4.92677 7.37578 8.01713 2.51021 16.4162L15.3859 23.9357C12.8539 24.0016 10.3296 24.6703 8.01324 26.0031C0.129684 30.5393 -2.36056 41.0507 2.45114 49.481L15.3379 42.066C14.1478 44.2958 13.4777 46.8146 13.4777 49.481C13.4777 58.6042 21.3227 66 31 66V51.1275C32.322 53.2884 34.1571 55.1423 36.4584 56.4863C44.3127 61.0732 54.6242 57.9829 59.4898 49.5838L46.6141 42.0643C49.1461 41.9984 51.6704 41.3297 53.9868 39.9969C61.8703 35.4607 64.3606 24.9493 59.5489 16.519L46.6621 23.934ZM30.9908 32.9621C30.9939 32.9567 30.9969 32.9514 31 32.946L31 32.9621C30.9969 32.9621 30.9939 32.9621 30.9908 32.9621ZM31 33.0379V33.054L31.0092 33.0379L31 33.0379Z" fill="#CA4899"/>
</svg>
