<svg width="185" height="21" viewBox="0 0 185 21" fill="none" xmlns="http://www.w3.org/2000/svg">
<path d="M10.8968 8.99268C10.9116 8.50413 11.0156 7.95725 11.1644 7.416C11.4434 6.40136 11.8831 5.39601 12.2026 4.81152L12.2647 4.70028L12.322 4.60519C12.5861 4.17733 13.753 2.40437 15.5845 1.30678L15.6672 1.25792C16.5286 0.757472 17.5854 0.382056 18.6034 0.176849C19.6198 -0.0280429 20.6065 -0.0650277 21.3253 0.119435L21.394 0.138067C21.5345 0.177942 21.5786 0.335663 21.505 0.445425L21.4886 0.466818C21.1017 0.910393 20.5726 1.51015 20.0995 2.10947C19.6543 2.6735 19.2649 3.22977 19.0879 3.65165L19.0553 3.73418C18.6342 4.88208 18.415 6.33438 16.4844 8.48658L16.3911 8.58968C15.5875 9.46981 14.6026 10.0235 13.6715 10.2953C12.7423 10.5664 11.8583 10.5592 11.259 10.3062L11.2336 10.2933C11.2092 10.2788 11.1882 10.2592 11.1718 10.2352L11.152 10.2051C10.9511 9.89089 10.8825 9.46436 10.8968 8.99268ZM11.1893 9.65322C11.1819 9.78296 11.1832 9.89719 11.198 9.98432C11.2053 10.0275 11.217 10.0708 11.237 10.1074C11.2573 10.1444 11.2924 10.1854 11.3497 10.2003C11.3586 10.2026 11.3678 10.2038 11.377 10.2038C12.6628 10.2037 13.7381 9.89219 14.6304 9.40396L14.7312 9.34765C15.2316 9.06204 15.6722 8.72118 16.0585 8.35077L16.1463 8.2652C16.5806 7.83471 16.9441 7.36752 17.2454 6.90217L17.3042 6.81025C17.5939 6.35057 17.8238 5.89447 18.002 5.47882L18.0773 5.2983C18.2451 4.88374 18.3599 4.51663 18.4303 4.23669L18.4535 4.15002C18.5783 3.71242 18.8288 3.20924 19.1258 2.71163L19.2093 2.57389C19.3937 2.27381 19.5913 1.98036 19.7829 1.71002C19.8044 1.67971 19.8289 1.65166 19.856 1.62613L21.1386 0.419203C21.2034 0.358165 21.1685 0.250234 21.0798 0.237575C20.3114 0.127714 19.7333 0.212184 19.2256 0.309205L19.0121 0.351023C18.7535 0.402175 18.4978 0.46452 18.2459 0.537619L18.1382 0.569639C17.7589 0.684776 17.3881 0.824326 17.0279 0.986719L16.8741 1.05766C16.4903 1.23909 16.1189 1.44674 15.7624 1.67845L15.6104 1.77934C15.1002 2.12497 14.6217 2.5208 14.1826 2.96088L14.0952 3.04949C13.6548 3.50225 13.2552 4.00036 12.9044 4.53756L12.8348 4.64549C12.4979 5.17617 12.2082 5.74406 11.9728 6.34321L11.9263 6.46342C11.7146 7.02346 11.4778 7.90995 11.3303 8.66531C11.2565 9.04288 11.2043 9.39187 11.1893 9.65322ZM18.8689 1.44686C18.8178 1.43401 18.8116 1.37094 18.8566 1.344C19.3236 1.06469 19.8338 0.851594 20.2505 0.702961C20.3547 0.665799 20.4312 0.791781 20.3511 0.867215L19.6882 1.49108L19.6855 1.49213C19.6603 1.49378 19.6236 1.49598 19.5789 1.49765C19.4893 1.501 19.368 1.50264 19.2402 1.49613C19.1117 1.48959 18.9801 1.47487 18.8689 1.44686ZM19.0701 0.981021C18.9397 1.04905 18.8064 0.935826 18.8868 0.813787C18.9431 0.728232 18.9998 0.656154 19.0421 0.605661C19.0717 0.570433 19.1133 0.547364 19.1588 0.538432C19.4659 0.478132 19.7888 0.41932 20.1599 0.402706C20.2229 0.399888 20.2367 0.482394 20.1775 0.50353C19.8476 0.621189 19.4561 0.779743 19.0701 0.981021ZM17.9009 2.35113C17.7818 2.30904 17.7652 2.16665 17.8587 2.08256C18.0049 1.95101 18.1593 1.82597 18.3179 1.70774C18.456 1.60483 18.648 1.61 18.8157 1.65223C18.9463 1.68511 19.0937 1.70095 19.2291 1.70785C19.3506 1.71403 19.4246 1.84954 19.3574 1.94949C19.2514 2.10703 19.146 2.26962 19.044 2.43454C19.0016 2.50311 18.9237 2.543 18.8427 2.53455C18.7218 2.52195 18.5587 2.50182 18.389 2.47176C18.2186 2.44158 18.0447 2.40194 17.9009 2.35113ZM17.1501 3.78961C16.9331 3.69649 16.8469 3.45012 16.9477 3.239C17.0456 3.03413 17.1717 2.8383 17.3187 2.65208C17.4339 2.50602 17.6518 2.48826 17.8284 2.5507C17.9882 2.60717 18.1753 2.64931 18.351 2.68044C18.5275 2.71168 18.696 2.73236 18.8202 2.7453C18.837 2.74705 18.8465 2.76503 18.8382 2.77952C18.6004 3.19461 18.3954 3.61652 18.2735 4.00323C18.2578 4.05299 18.2075 4.0847 18.1555 4.07508C18.0403 4.0537 17.8818 4.02099 17.7093 3.97584C17.5226 3.92695 17.3257 3.86495 17.1501 3.78961ZM17.7052 1.93382C17.6721 1.96364 17.6225 1.9368 17.6352 1.89444C17.6811 1.7411 17.7645 1.5612 17.8577 1.38669C17.9504 1.2131 18.0507 1.04892 18.1279 0.927925C18.1665 0.867537 18.1994 0.818098 18.2224 0.783838C18.2321 0.769414 18.2467 0.758863 18.2635 0.753892C18.3975 0.71426 18.5325 0.677649 18.6686 0.644304C18.6998 0.636632 18.7241 0.671602 18.7065 0.698269C18.6173 0.833804 18.5221 1.0098 18.4779 1.19834C18.456 1.29212 18.4078 1.38032 18.3287 1.43661C18.1147 1.58871 17.9036 1.75461 17.7052 1.93382ZM16.7273 5.18643C16.4238 5.10915 16.3204 4.77173 16.4516 4.49098C16.4536 4.48655 16.4557 4.48213 16.4578 4.47771C16.613 4.14405 17.0474 3.99582 17.4018 4.10812C17.4881 4.13547 17.5733 4.15962 17.6542 4.1808C17.833 4.22761 17.9968 4.26142 18.1158 4.28348C18.1568 4.29109 18.183 4.33109 18.1718 4.37076C18.1034 4.61085 18.0068 4.89951 17.878 5.2177C17.8506 5.2856 17.7827 5.32917 17.7086 5.32535C17.5869 5.31908 17.4182 5.30652 17.2304 5.28146C17.0683 5.25983 16.8953 5.22921 16.7273 5.18643ZM16.6657 2.97606C16.6692 2.72128 16.7095 2.43791 16.7625 2.1713C16.8155 1.90525 16.8805 1.65879 16.9324 1.47874C16.9584 1.38882 16.981 1.31553 16.9971 1.26496C17.0042 1.24256 17.0206 1.22418 17.0422 1.21423C17.1771 1.15191 17.3136 1.09287 17.4515 1.03722C17.6048 0.975326 17.7447 1.14333 17.6675 1.28787C17.5718 1.46694 17.4809 1.66123 17.429 1.83441C17.4031 1.92091 17.3855 2.00666 17.3838 2.08504C17.3818 2.17507 17.3637 2.26945 17.3037 2.33727C17.1188 2.54596 16.9559 2.7691 16.8265 3.00607C16.7826 3.08627 16.6644 3.06717 16.6657 2.97606ZM15.8095 6.51267C15.5589 6.40031 15.532 6.09221 15.6803 5.86342C15.7235 5.79676 15.7661 5.72971 15.8081 5.66224C15.9734 5.39677 16.3233 5.29782 16.6281 5.37979C16.8239 5.43244 17.0231 5.4677 17.2016 5.49152C17.3966 5.51754 17.5714 5.53057 17.6974 5.53707C17.7186 5.53815 17.7322 5.55944 17.7235 5.57848C17.574 5.90814 17.3923 6.25894 17.1746 6.61305C17.1253 6.69313 17.0372 6.7421 16.9422 6.73917C16.8126 6.73517 16.6344 6.72318 16.4402 6.6917C16.2299 6.6576 16.0082 6.60173 15.8095 6.51267ZM14.6702 7.85337C14.4598 7.76193 14.4396 7.50588 14.5866 7.33149C14.6915 7.20695 14.7953 7.07994 14.8976 6.95067C15.112 6.67967 15.529 6.64004 15.8554 6.76064C16.0408 6.82914 16.2319 6.87281 16.4054 6.90093C16.6112 6.9343 16.7992 6.94682 16.9355 6.95103C16.9443 6.9513 16.9493 6.96077 16.9444 6.96792C16.6648 7.37723 16.3355 7.78268 15.9512 8.15741C15.947 8.16142 15.9413 8.16336 15.9355 8.16266C15.8972 8.158 15.8417 8.15076 15.7739 8.14058C15.6379 8.12018 15.4527 8.08806 15.2556 8.04093C15.0581 7.99369 14.851 7.93195 14.6702 7.85337ZM15.7098 3.07833C15.7053 2.74867 15.7224 2.44888 15.7406 2.23147C15.7497 2.12286 15.759 2.0349 15.766 1.97435C15.7695 1.94478 15.7859 1.91822 15.811 1.90162C16.0933 1.71453 16.3853 1.54307 16.6856 1.38827C16.7076 1.37691 16.7325 1.39718 16.7257 1.42078C16.6727 1.60455 16.606 1.85693 16.5516 2.13045C16.4973 2.40343 16.4545 2.70062 16.4507 2.97317C16.4485 3.13114 16.4593 3.28641 16.4915 3.426C16.5252 3.5722 16.541 3.72732 16.4862 3.86718C16.4517 3.95524 16.4156 4.0433 16.3781 4.13098C16.251 4.42775 15.8711 4.41619 15.8076 4.10019C15.7405 3.76615 15.7143 3.40835 15.7098 3.07833ZM14.2831 3.22325C14.2816 3.18591 14.2961 3.14971 14.3226 3.12303C14.6697 2.77377 15.0419 2.45287 15.4354 2.16353C15.475 2.13444 15.5304 2.16559 15.5263 2.21408C15.5077 2.43625 15.4903 2.74306 15.4949 3.08123C15.4996 3.41909 15.5262 3.79064 15.5967 4.14146C15.6383 4.34828 15.6955 4.55043 15.774 4.73533C15.8552 4.92675 15.8682 5.14764 15.7617 5.3266C15.7081 5.41676 15.6534 5.50616 15.5977 5.59485C15.4207 5.87661 15.031 5.92315 14.8618 5.63678C14.8198 5.56573 14.7806 5.49108 14.7441 5.41354C14.5938 5.09466 14.4915 4.73431 14.4223 4.3932C14.3532 4.05255 14.3177 3.73416 14.2994 3.5008C14.2903 3.38423 14.2856 3.289 14.2831 3.22325ZM13.5553 8.88006C13.4016 8.80355 13.3933 8.60776 13.5152 8.48787C13.6267 8.3782 13.7385 8.26518 13.8502 8.14903C14.0324 7.95945 14.341 7.94207 14.5834 8.04742C14.7801 8.13289 15.0005 8.19797 15.205 8.24685C15.4098 8.29583 15.6014 8.32919 15.7415 8.35022L15.7424 8.35303C15.3936 8.66639 15.0028 8.95304 14.5665 9.19603C14.5621 9.19849 14.5569 9.19932 14.5519 9.19832C14.5222 9.19237 14.479 9.18334 14.4261 9.17127C14.3201 9.14709 14.1754 9.11072 14.0202 9.06196C13.8647 9.01308 13.7006 8.95239 13.5553 8.88006ZM13.045 4.78723C13.0397 4.74816 13.0486 4.70854 13.0702 4.67533C13.345 4.25192 13.6507 3.85322 13.9832 3.48242C14.0174 3.4442 14.0812 3.4662 14.0852 3.51708C14.1039 3.75626 14.1403 4.08347 14.2115 4.43474C14.2827 4.78558 14.3892 5.16361 14.5491 5.50298C14.6134 5.63937 14.6869 5.77067 14.7711 5.89195C14.9424 6.13881 14.9964 6.47596 14.8119 6.71339C14.7121 6.84187 14.6106 6.96823 14.5078 7.09225C14.3148 7.32532 13.9649 7.35343 13.7963 7.10256C13.7453 7.02652 13.6969 6.94523 13.6513 6.8598C13.4923 6.56208 13.3701 6.22224 13.2779 5.89935C13.1859 5.57695 13.1245 5.27423 13.0862 5.05194C13.067 4.9409 13.0536 4.85003 13.045 4.78723ZM12.3816 9.92285C12.2503 9.94129 12.1795 9.76543 12.2778 9.67765C12.4273 9.54414 12.5805 9.39458 12.735 9.24221C12.773 9.20474 12.8111 9.1671 12.8493 9.12945C13.0065 8.97468 13.2602 8.9706 13.4584 9.06928C13.6174 9.14841 13.793 9.213 13.9549 9.26388C14.0614 9.29735 14.0752 9.44306 13.9725 9.48652C13.4923 9.6897 12.9634 9.84109 12.3816 9.92285ZM12.1503 6.53781C12.1437 6.51652 12.1446 6.49369 12.1526 6.4729C12.3407 5.98592 12.5653 5.51987 12.8225 5.07802C12.8356 5.05554 12.8697 5.06186 12.8741 5.08741C12.9133 5.31478 12.9762 5.6253 13.0709 5.95691C13.1654 6.28807 13.2926 6.64317 13.4611 6.95862C13.5084 7.0472 13.5593 7.13331 13.6141 7.21528C13.7953 7.48626 13.8294 7.86554 13.6011 8.09934C13.5874 8.11337 13.5737 8.12735 13.56 8.14128C13.333 8.3721 12.9578 8.35271 12.796 8.07359C12.656 7.83218 12.5328 7.5665 12.4309 7.31897C12.3353 7.08672 12.2601 6.87443 12.2088 6.72027C12.1831 6.64325 12.1635 6.58084 12.1503 6.53781ZM11.41 9.94926C11.3992 9.88546 11.3967 9.78984 11.4039 9.66523C11.4181 9.41776 11.4683 9.07937 11.5413 8.70533C11.623 8.28681 11.7324 7.8287 11.849 7.41075C11.9001 7.22744 12.1592 7.22258 12.2317 7.39875C12.3455 7.67519 12.4899 7.98539 12.66 8.26392C12.8186 8.52374 12.8071 8.87125 12.5896 9.0857C12.5874 9.08786 12.5852 9.09003 12.583 9.09219C12.4283 9.24472 12.2786 9.39102 12.1335 9.52059C11.8765 9.75005 11.6489 9.91263 11.4493 9.97269C11.4315 9.97805 11.4131 9.96735 11.41 9.94926Z" fill="#D5C578"/>
<path d="M20.0143 20.9982C19.5189 20.9836 18.9643 20.881 18.4154 20.7342C17.3866 20.4589 16.367 20.0252 15.7743 19.71L15.6615 19.6486L15.5651 19.5921C15.1312 19.3316 13.3333 18.1803 12.2203 16.3732L12.1707 16.2916C11.6632 15.4418 11.2825 14.3991 11.0744 13.3947C10.8667 12.3919 10.8292 11.4185 11.0162 10.7093L11.0351 10.6416C11.0755 10.5028 11.2356 10.4593 11.3469 10.5321L11.3685 10.5481C11.8183 10.9299 12.4265 11.452 13.0343 11.9188C13.6062 12.358 14.1703 12.7421 14.5981 12.9167L14.6818 12.9489C15.8459 13.3643 17.3186 13.5807 19.5011 15.4855L19.6056 15.5774C20.4982 16.3703 21.0596 17.3421 21.3352 18.2608C21.6102 19.1775 21.6028 20.0496 21.3463 20.6409L21.3333 20.666C21.3185 20.69 21.2986 20.7107 21.2743 20.7269L21.2438 20.7465C20.9252 20.9446 20.4926 21.0123 20.0143 20.9982ZM20.6841 20.7096C20.8157 20.717 20.9315 20.7156 21.0199 20.7011C21.0637 20.6938 21.1076 20.6823 21.1447 20.6625C21.1822 20.6426 21.2239 20.6079 21.2389 20.5514C21.2412 20.5427 21.2424 20.5335 21.2424 20.5244C21.2424 19.2559 20.9266 18.1951 20.4315 17.3147L20.3743 17.2152C20.0846 16.7215 19.739 16.2868 19.3634 15.9056L19.2766 15.8189C18.8401 15.3905 18.3663 15.0319 17.8944 14.7347L17.8012 14.6767C17.335 14.3908 16.8725 14.164 16.451 13.9882L16.2681 13.9139C15.8476 13.7483 15.4753 13.635 15.1914 13.5656L15.1037 13.5426C14.6599 13.4195 14.1496 13.1724 13.6449 12.8793L13.5053 12.7971C13.201 12.615 12.9034 12.4201 12.6292 12.2311C12.5985 12.2099 12.57 12.1857 12.5441 12.159L11.3202 10.8936C11.2583 10.8296 11.1489 10.864 11.136 10.9516C11.0246 11.7096 11.1103 12.28 11.2087 12.7808L11.2511 12.9915C11.3029 13.2467 11.3662 13.4989 11.4403 13.7475L11.4728 13.8537C11.5895 14.2279 11.731 14.5937 11.8957 14.9492L11.9676 15.1008C12.1517 15.4795 12.3622 15.846 12.5972 16.1978L12.6995 16.3477C13.05 16.8511 13.4514 17.3231 13.8976 17.7564L13.9875 17.8425C14.4467 18.2771 14.9517 18.6714 15.4965 19.0176L15.606 19.0861C16.1441 19.4185 16.7199 19.7045 17.3274 19.9367L17.4495 19.9824C18.0174 20.1913 18.9163 20.4251 19.6823 20.5706C20.0652 20.6434 20.4191 20.6948 20.6841 20.7096ZM12.3623 13.1329C12.3493 13.1832 12.2853 13.1894 12.258 13.145C11.9748 12.6841 11.7587 12.1807 11.608 11.7696C11.5703 11.6668 11.698 11.5914 11.7745 11.6705L12.4073 12.3248L12.4082 12.3271C12.4099 12.3521 12.4121 12.3882 12.4138 12.4323C12.4172 12.5207 12.4189 12.6404 12.4123 12.7664C12.4057 12.8933 12.3907 13.0231 12.3623 13.1329ZM11.8901 12.9342C11.9591 13.063 11.8442 13.1944 11.7203 13.1151C11.6336 13.0595 11.5605 13.0038 11.5093 12.962C11.4735 12.9328 11.4502 12.8917 11.4411 12.8467C11.38 12.5438 11.3203 12.2252 11.3035 11.859C11.3006 11.7969 11.3843 11.7833 11.4057 11.8417C11.525 12.1672 11.6859 12.5535 11.8901 12.9342ZM13.2793 14.0878C13.2366 14.2053 13.0922 14.2217 13.0069 14.1295C12.8736 13.9852 12.7468 13.833 12.627 13.6766C12.5225 13.5402 12.5277 13.3507 12.5706 13.1852C12.6039 13.0563 12.62 12.9111 12.627 12.7775C12.6333 12.6576 12.7708 12.5846 12.8722 12.6509C13.0319 12.7554 13.1967 12.8595 13.3639 12.96C13.4334 13.0019 13.4739 13.0787 13.4653 13.1585C13.4525 13.2778 13.4321 13.4388 13.4016 13.6063C13.371 13.7744 13.3308 13.9459 13.2793 14.0878ZM14.7379 14.8288C14.6435 15.0428 14.3936 15.1279 14.1795 15.0283C13.9718 14.9318 13.7733 14.8074 13.5845 14.6624C13.4364 14.5487 13.4184 14.3337 13.4817 14.1594C13.539 14.0018 13.5817 13.8171 13.6133 13.6437C13.6449 13.4696 13.6659 13.3034 13.679 13.1809C13.6808 13.1644 13.699 13.155 13.7137 13.1632C14.1346 13.3977 14.5624 13.5999 14.9545 13.7201C15.0051 13.7356 15.0373 13.7853 15.0275 13.8366C15.0058 13.9503 14.9727 14.1067 14.9269 14.2769C14.8773 14.4612 14.8144 14.6556 14.7379 14.8288ZM12.8563 14.2811C12.8865 14.3137 12.8593 14.3625 12.8163 14.35C12.6608 14.3047 12.4783 14.2225 12.3013 14.1304C12.1253 14.039 11.9589 13.94 11.8362 13.8638C11.775 13.8257 11.7247 13.7935 11.69 13.7708C11.6754 13.7612 11.6647 13.747 11.6596 13.7305C11.6194 13.5981 11.5823 13.4646 11.5485 13.3302C11.5407 13.2993 11.5761 13.2755 11.6032 13.2928C11.7405 13.3808 11.9188 13.4747 12.1099 13.5183C12.2051 13.54 12.2946 13.5876 12.3517 13.6658C12.5061 13.8769 12.6744 14.0853 12.8563 14.2811ZM16.1545 15.2457C16.0762 15.5451 15.7339 15.6471 15.4491 15.5177C15.4446 15.5156 15.44 15.5136 15.4355 15.5115C15.0973 15.3584 14.947 14.9302 15.0609 14.5808C15.0887 14.4954 15.1132 14.4112 15.1347 14.3313C15.1822 14.1548 15.2165 13.9932 15.2389 13.8758C15.2466 13.8353 15.2871 13.8095 15.3274 13.8206C15.5708 13.8881 15.8636 13.9833 16.1862 14.1104C16.2551 14.1375 16.2992 14.2044 16.2954 14.2774C16.289 14.3975 16.2763 14.5641 16.2509 14.7494C16.2289 14.9093 16.1979 15.08 16.1545 15.2457ZM13.913 15.3066C13.6547 15.3031 13.3673 15.2634 13.097 15.2111C12.8272 15.1589 12.5772 15.0946 12.3947 15.0434C12.3035 15.0178 12.2292 14.9955 12.1779 14.9797C12.1551 14.9726 12.1365 14.9564 12.1264 14.9352C12.0632 14.8019 12.0033 14.6672 11.9468 14.5311C11.8841 14.3799 12.0545 14.2418 12.2011 14.318C12.3827 14.4124 12.5797 14.5021 12.7553 14.5533C12.8431 14.5789 12.93 14.5962 13.0095 14.5979C13.1008 14.5999 13.1965 14.6178 13.2652 14.6771C13.4769 14.8595 13.7032 15.0202 13.9435 15.1479C14.0249 15.1912 14.0055 15.3079 13.913 15.3066ZM17.4994 16.1512C17.3855 16.3985 17.0729 16.425 16.8409 16.2787C16.7732 16.2361 16.7052 16.194 16.6368 16.1526C16.3677 15.9895 16.2674 15.6446 16.3505 15.3441C16.4039 15.1508 16.4397 14.9541 16.4639 14.7779C16.4903 14.5855 16.5035 14.413 16.5101 14.2886C16.5112 14.2678 16.5328 14.2544 16.5521 14.2629C16.8863 14.4104 17.242 14.5897 17.6011 14.8044C17.6824 14.853 17.7321 14.9401 17.7291 15.0338C17.725 15.1616 17.7129 15.3373 17.681 15.5289C17.6464 15.7364 17.5897 15.9552 17.4994 16.1512ZM18.859 17.2754C18.7662 17.483 18.5065 17.5029 18.3296 17.3579C18.2033 17.2543 18.0744 17.1517 17.9432 17.0507C17.6685 16.8393 17.6284 16.4282 17.7507 16.1064C17.8202 15.9234 17.8646 15.7346 17.8931 15.5633C17.927 15.3602 17.9397 15.1749 17.9439 15.0404C17.9442 15.0317 17.9539 15.0267 17.9612 15.0315C18.3762 15.3075 18.7873 15.6323 19.1673 16.0115C19.1714 16.0156 19.1733 16.0212 19.1726 16.0269C19.1679 16.0647 19.1605 16.1195 19.1502 16.1865C19.1295 16.3206 19.097 16.5033 19.0492 16.6978C19.0013 16.8927 18.9387 17.097 18.859 17.2754ZM14.0168 16.2497C13.6825 16.2541 13.3784 16.2374 13.158 16.2194C13.0478 16.2105 12.9586 16.2011 12.8972 16.1942C12.8673 16.1908 12.8403 16.1746 12.8235 16.1498C12.6337 15.8712 12.4599 15.583 12.3029 15.2866C12.2914 15.265 12.3119 15.2406 12.3357 15.2473C12.5221 15.2995 12.7781 15.3654 13.0555 15.4191C13.3324 15.4727 13.6337 15.5149 13.9101 15.5186C14.0702 15.5208 14.2277 15.5101 14.3692 15.4785C14.5176 15.4452 14.6751 15.4296 14.8171 15.4837C14.9062 15.5177 14.9954 15.5533 15.0842 15.5902C15.3853 15.7156 15.3736 16.0905 15.053 16.1532C14.7142 16.2194 14.3514 16.2452 14.0168 16.2497ZM14.1637 17.6574C14.1259 17.6588 14.0893 17.6446 14.0623 17.6185C13.708 17.2759 13.3825 16.9086 13.089 16.5202C13.0596 16.4812 13.0912 16.4266 13.1403 16.4306C13.3656 16.4489 13.6768 16.4662 14.0197 16.4617C14.3623 16.4571 14.7391 16.4308 15.0948 16.3612C15.3045 16.3202 15.5094 16.2636 15.6968 16.1863C15.891 16.1061 16.1151 16.0932 16.2966 16.1983C16.3882 16.2513 16.4791 16.3054 16.5692 16.3605C16.8548 16.535 16.902 16.919 16.6118 17.086C16.5396 17.1276 16.4637 17.1664 16.3848 17.2025C16.0614 17.3508 15.696 17.4517 15.3501 17.52C15.0047 17.5881 14.6818 17.6231 14.4452 17.6411C14.3269 17.6501 14.2304 17.6549 14.1637 17.6574ZM19.9001 18.3754C19.8226 18.5269 19.6241 18.5351 19.5025 18.4149C19.3914 18.305 19.2768 18.1947 19.159 18.0846C18.9666 17.9047 18.9489 17.6001 19.0557 17.3608C19.1424 17.1668 19.2084 16.9494 19.258 16.7478C19.3077 16.5456 19.3415 16.3566 19.3628 16.2183L19.3657 16.2175C19.6834 16.5617 19.9741 16.9472 20.2205 17.3777C20.223 17.382 20.2239 17.3871 20.2228 17.392C20.2168 17.4214 20.2077 17.464 20.1954 17.5162C20.1709 17.6208 20.134 17.7636 20.0846 17.9167C20.035 18.0702 19.9735 18.232 19.9001 18.3754ZM15.7497 18.8788C15.7101 18.8841 15.6699 18.8753 15.6362 18.854C15.2068 18.5828 14.8025 18.2812 14.4265 17.9531C14.3877 17.9193 14.41 17.8565 14.4617 17.8526C14.7042 17.8341 15.036 17.7981 15.3922 17.7278C15.748 17.6576 16.1314 17.5524 16.4755 17.3946C16.6138 17.3312 16.7468 17.2588 16.8698 17.1758C17.1202 17.0069 17.4623 16.9536 17.7031 17.1356C17.8335 17.2342 17.9618 17.3343 18.0876 17.4358C18.3238 17.6261 18.3524 17.971 18.0982 18.1372C18.0209 18.1877 17.9383 18.2356 17.8514 18.2807C17.5495 18.4376 17.2049 18.5582 16.8775 18.6492C16.5505 18.74 16.2435 18.8004 16.0181 18.8383C15.9055 18.8572 15.8134 18.8704 15.7497 18.8788ZM20.9577 19.5334C20.9764 19.6629 20.7979 19.7328 20.7089 19.6359C20.5735 19.4884 20.4219 19.3373 20.2673 19.1848C20.2294 19.1473 20.1912 19.1098 20.1531 19.0721C19.9961 18.917 19.9919 18.6665 20.092 18.4709C20.1722 18.314 20.2377 18.1408 20.2893 17.9811C20.3232 17.8761 20.471 17.8625 20.515 17.9637C20.7211 18.4375 20.8748 18.9594 20.9577 19.5334ZM17.5249 19.7616C17.5033 19.768 17.4802 19.7672 17.4591 19.7592C16.9652 19.5737 16.4926 19.352 16.0446 19.0983C16.0218 19.0854 16.0282 19.0517 16.0541 19.0474C16.2847 19.0087 16.5995 18.9466 16.9358 18.8532C17.2716 18.7599 17.6317 18.6345 17.9516 18.4683C18.0414 18.4216 18.1287 18.3714 18.2118 18.3173C18.4866 18.1386 18.8714 18.105 19.1085 18.3303C19.1228 18.3439 19.1371 18.3575 19.1513 18.3711C19.3852 18.5949 19.3655 18.9648 19.0826 19.1244C18.8377 19.2625 18.5682 19.3842 18.3171 19.4847C18.0815 19.579 17.8663 19.6533 17.7099 19.7039C17.6318 19.7292 17.5685 19.7486 17.5249 19.7616ZM20.9843 20.492C20.9196 20.5026 20.8227 20.5051 20.6963 20.498C20.4454 20.484 20.1022 20.4346 19.7229 20.3625C19.2985 20.2819 18.8339 20.1739 18.4101 20.0588C18.2241 20.0083 18.2192 19.7527 18.3979 19.6811C18.6782 19.5689 18.9927 19.4264 19.2751 19.2587C19.5387 19.1021 19.8912 19.1135 20.1087 19.3281C20.1109 19.3303 20.113 19.3324 20.1152 19.3346C20.2699 19.4872 20.4182 19.6349 20.5496 19.778C20.7824 20.0316 20.9472 20.2563 21.0081 20.4533C21.0135 20.4708 21.0027 20.4889 20.9843 20.492Z" fill="#D5C578"/>
<path d="M23.066 0.00179966C23.5614 0.0164005 24.116 0.118969 24.6648 0.265822C25.6937 0.541114 26.7132 0.974753 27.3059 1.29003L27.4187 1.35145L27.5152 1.40789C27.949 1.66843 29.7469 2.81973 30.86 4.62681L30.9095 4.70838C31.417 5.55822 31.7977 6.60093 32.0058 7.60531C32.2136 8.60814 32.2511 9.58151 32.064 10.2907L32.0452 10.3584C32.0047 10.4972 31.8447 10.5407 31.7333 10.4679L31.7118 10.4519C31.2619 10.0701 30.6538 9.54798 30.046 9.08124C29.4741 8.642 28.9099 8.25787 28.4821 8.08325L28.3984 8.0511C27.2344 7.63565 25.7617 7.41928 23.5792 5.51452L23.4746 5.42261C22.5821 4.62971 22.0207 3.65791 21.7451 2.73918C21.4701 1.8225 21.4774 0.950376 21.734 0.35912L21.747 0.334001C21.7618 0.310004 21.7816 0.289268 21.8059 0.273137L21.8364 0.253539C22.1551 0.0553785 22.5876 -0.0122885 23.066 0.00179966ZM22.3961 0.290389C22.2646 0.28305 22.1487 0.284358 22.0604 0.298945C22.0166 0.306184 21.9727 0.317687 21.9355 0.337452C21.8981 0.35741 21.8564 0.392057 21.8413 0.448553C21.839 0.45735 21.8378 0.466514 21.8378 0.475604C21.8379 1.74412 22.1537 2.80488 22.6488 3.68528L22.706 3.78478C22.9956 4.27847 23.3413 4.71322 23.7169 5.09441L23.8037 5.18108C24.2402 5.60952 24.714 5.96809 25.1859 6.26532L25.2791 6.32329C25.7453 6.60921 26.2077 6.83603 26.6293 7.01185L26.8122 7.0861C27.2326 7.25174 27.605 7.36503 27.8889 7.43445L27.9766 7.45736C28.4204 7.58049 28.9307 7.82757 29.4354 8.12066L29.5749 8.20291C29.8793 8.38496 30.1769 8.57985 30.4511 8.76888C30.4818 8.79007 30.5103 8.81427 30.5361 8.84102L31.7601 10.1064C31.8219 10.1704 31.9314 10.136 31.9442 10.0484C32.0556 9.29037 31.97 8.72004 31.8716 8.2192L31.8292 8.00845C31.7773 7.75328 31.7141 7.50111 31.64 7.25254L31.6075 7.14627C31.4907 6.77211 31.3492 6.4063 31.1846 6.05085L31.1126 5.89917C30.9286 5.52052 30.7181 5.154 30.4831 4.80223L30.3808 4.65235C30.0303 4.14892 29.6289 3.67691 29.1826 3.24363L29.0928 3.15751C28.6336 2.72289 28.1285 2.32862 27.5838 1.98245L27.4743 1.91386C26.9362 1.58149 26.3604 1.29553 25.7529 1.06327L25.6308 1.01759C25.0629 0.808657 24.1639 0.574889 23.3979 0.429369C23.0151 0.356633 22.6612 0.305175 22.3961 0.290389ZM30.7179 7.86712C30.731 7.8168 30.7949 7.81061 30.8222 7.85503C31.1055 8.31587 31.3216 8.81928 31.4723 9.23043C31.51 9.33318 31.3822 9.40856 31.3058 9.3295L30.673 8.67523L30.672 8.67285C30.6704 8.64793 30.6681 8.61179 30.6664 8.56769C30.663 8.47929 30.6614 8.35964 30.668 8.23355C30.6746 8.10674 30.6895 7.97692 30.7179 7.86712ZM31.1902 8.0658C31.1211 7.93701 31.236 7.80556 31.3599 7.88493C31.4467 7.94052 31.5198 7.99616 31.571 8.03799C31.6067 8.0672 31.6301 8.10835 31.6392 8.15326C31.7003 8.45621 31.7599 8.7748 31.7768 9.14097C31.7796 9.20307 31.696 9.21672 31.6745 9.15825C31.5552 8.83278 31.3944 8.44655 31.1902 8.0658ZM29.8009 6.9122C29.8436 6.7947 29.9881 6.7783 30.0733 6.87053C30.2067 7.01477 30.3334 7.16698 30.4533 7.32343C30.5577 7.45975 30.5525 7.64928 30.5097 7.81482C30.4763 7.94369 30.4603 8.08886 30.4533 8.22251C30.447 8.34239 30.3095 8.41544 30.2081 8.34907C30.0483 8.24456 29.8835 8.14054 29.7164 8.03996C29.6468 7.99814 29.6064 7.92132 29.615 7.84145C29.6277 7.72219 29.6481 7.56125 29.6786 7.39373C29.7092 7.2256 29.7494 7.05406 29.8009 6.9122ZM28.3423 6.1712C28.4368 5.95718 28.6867 5.87213 28.9008 5.97166C29.1085 6.06821 29.307 6.19263 29.4957 6.33756C29.6439 6.45131 29.6619 6.66627 29.5986 6.84057C29.5413 6.99824 29.4986 7.18288 29.467 7.35633C29.4353 7.53038 29.4144 7.69661 29.4012 7.81909C29.3995 7.83564 29.3812 7.84502 29.3665 7.83683C28.9457 7.60225 28.5178 7.40014 28.1257 7.27989C28.0752 7.26439 28.043 7.21468 28.0528 7.16339C28.0744 7.04966 28.1076 6.8933 28.1534 6.72312C28.203 6.5388 28.2659 6.34445 28.3423 6.1712ZM30.224 6.71889C30.1937 6.6863 30.221 6.63745 30.2639 6.64997C30.4194 6.69528 30.602 6.77755 30.779 6.86955C30.955 6.96104 31.1213 7.05996 31.244 7.1362C31.3053 7.17426 31.3555 7.20651 31.3903 7.22922C31.4049 7.23875 31.4156 7.25301 31.4206 7.26953C31.4609 7.40193 31.498 7.53538 31.5318 7.66978C31.5396 7.70066 31.5041 7.7245 31.4771 7.70716C31.3397 7.61917 31.1614 7.52532 30.9704 7.4817C30.8752 7.45996 30.7857 7.4124 30.7285 7.33423C30.5742 7.12308 30.4058 6.91474 30.224 6.71889ZM26.9258 5.75428C27.0041 5.45489 27.3464 5.35292 27.6312 5.48232C27.6357 5.48438 27.6402 5.48643 27.6448 5.48848C27.983 5.64155 28.1333 6.06981 28.0194 6.41923C27.9916 6.50456 27.9671 6.58877 27.9455 6.66874C27.8981 6.84521 27.8638 7.00682 27.8414 7.12419C27.8337 7.16468 27.7931 7.19053 27.7529 7.17939C27.5094 7.11194 27.2167 7.01669 26.894 6.88963C26.8252 6.86252 26.781 6.79557 26.7849 6.72257C26.7913 6.60245 26.804 6.43588 26.8294 6.25056C26.8513 6.09068 26.8824 5.91996 26.9258 5.75428ZM29.1672 5.69339C29.4256 5.69688 29.7129 5.73657 29.9833 5.7889C30.2531 5.84112 30.503 5.90536 30.6856 5.95658C30.7768 5.98217 30.8511 6.00449 30.9024 6.02035C30.9251 6.02737 30.9438 6.04356 30.9538 6.06482C31.0171 6.19807 31.077 6.33281 31.1335 6.46894C31.1962 6.62014 31.0257 6.75817 30.8792 6.68199C30.6976 6.58759 30.5006 6.49785 30.3249 6.44668C30.2372 6.42111 30.1503 6.40381 30.0708 6.4021C29.9795 6.40013 29.8838 6.38215 29.815 6.32291C29.6034 6.14053 29.3771 5.97984 29.1368 5.85208C29.0553 5.80879 29.0747 5.69214 29.1672 5.69339ZM25.5808 4.84882C25.6948 4.60152 26.0073 4.57501 26.2394 4.72132C26.307 4.76395 26.375 4.80598 26.4435 4.84744C26.7126 5.01046 26.8129 5.35543 26.7298 5.65592C26.6763 5.84924 26.6406 6.04591 26.6164 6.22213C26.59 6.41452 26.5768 6.58701 26.5702 6.71139C26.5691 6.73222 26.5475 6.74562 26.5282 6.7371C26.1939 6.58955 25.8382 6.41034 25.4792 6.19559C25.3979 6.14698 25.3482 6.05994 25.3512 5.96625C25.3552 5.83836 25.3674 5.66267 25.3993 5.47105C25.4339 5.26357 25.4905 5.04482 25.5808 4.84882ZM24.2213 3.72461C24.314 3.51703 24.5738 3.49711 24.7506 3.64213C24.877 3.74574 25.0059 3.84826 25.1371 3.94927C25.4117 4.16074 25.4519 4.57178 25.3296 4.89355C25.26 5.0766 25.2157 5.26537 25.1871 5.43668C25.1533 5.63979 25.1406 5.82513 25.1363 5.95962C25.1361 5.9683 25.1264 5.97333 25.1191 5.96847C24.704 5.69254 24.293 5.36772 23.913 4.9885C23.9089 4.98444 23.907 4.97876 23.9077 4.97309C23.9124 4.93527 23.9197 4.88055 23.9301 4.81355C23.9507 4.67937 23.9833 4.4967 24.0311 4.3022C24.079 4.10726 24.1416 3.90302 24.2213 3.72461ZM29.0635 4.75034C29.3978 4.74589 29.7018 4.76263 29.9223 4.78056C30.0324 4.78952 30.1216 4.79885 30.183 4.80582C30.213 4.80922 30.2399 4.82544 30.2568 4.85015C30.4466 5.12877 30.6204 5.41696 30.7774 5.71338C30.7888 5.73503 30.7684 5.75942 30.7445 5.75274C30.5582 5.70045 30.3021 5.6346 30.0247 5.58091C29.7479 5.52733 29.4465 5.48513 29.1702 5.4814C29.01 5.47924 28.8526 5.48987 28.7111 5.52155C28.5627 5.55477 28.4052 5.57036 28.2632 5.51627C28.174 5.4823 28.0849 5.44674 27.9961 5.40978C27.695 5.28438 27.7066 4.90952 28.0273 4.84681C28.366 4.78056 28.7289 4.75479 29.0635 4.75034ZM28.9166 3.34259C28.9543 3.34119 28.991 3.35537 29.0179 3.38146C29.3722 3.72405 29.6977 4.0914 29.9912 4.47976C30.0207 4.51879 29.9891 4.5734 29.9399 4.5694C29.7146 4.55107 29.4035 4.53378 29.0606 4.53834C28.718 4.54291 28.3412 4.56924 27.9854 4.63882C27.7758 4.67983 27.5709 4.73637 27.3834 4.81375C27.1893 4.89391 26.9652 4.90679 26.7837 4.80171C26.692 4.74867 26.6012 4.69462 26.5111 4.63953C26.2255 4.465 26.1782 4.08098 26.4684 3.914C26.5407 3.87243 26.6166 3.83364 26.6955 3.79748C27.0188 3.64922 27.3843 3.54832 27.7302 3.48005C28.0756 3.41187 28.3985 3.37688 28.6351 3.35887C28.7533 3.34987 28.8499 3.34505 28.9166 3.34259ZM23.1802 2.62463C23.2577 2.47307 23.4562 2.46486 23.5777 2.58507C23.6889 2.69504 23.8035 2.8053 23.9213 2.91542C24.1137 3.0953 24.1314 3.39993 24.0245 3.63918C23.9379 3.83321 23.8719 4.05057 23.8223 4.25224C23.7726 4.45437 23.7388 4.64336 23.7175 4.78167L23.7146 4.7825C23.3968 4.43834 23.1062 4.05283 22.8597 3.62233C22.8573 3.61798 22.8564 3.61288 22.8574 3.60799C22.8635 3.57864 22.8726 3.53601 22.8849 3.48377C22.9094 3.37917 22.9462 3.23636 22.9957 3.08326C23.0453 2.9298 23.1068 2.76801 23.1802 2.62463ZM27.3306 2.12115C27.3702 2.1159 27.4104 2.12474 27.444 2.146C27.8735 2.41719 28.2778 2.71878 28.6538 3.04686C28.6926 3.08071 28.6703 3.1435 28.6186 3.14743C28.3761 3.16589 28.0442 3.20189 27.688 3.2722C27.3323 3.34242 26.9489 3.44757 26.6048 3.60537C26.4665 3.66876 26.3334 3.74123 26.2105 3.82419C25.9601 3.99315 25.618 4.04642 25.3772 3.8644C25.2468 3.76584 25.1185 3.66565 24.9926 3.56424C24.7564 3.37393 24.7279 3.02905 24.9821 2.8628C25.0594 2.81225 25.142 2.76445 25.2289 2.71931C25.5308 2.5624 25.8754 2.44176 26.2028 2.35081C26.5297 2.26001 26.8367 2.19955 27.0621 2.16173C27.1748 2.14284 27.2669 2.1296 27.3306 2.12115ZM22.1226 1.46655C22.1039 1.33708 22.2824 1.26718 22.3714 1.36414C22.5067 1.51163 22.6584 1.66271 22.8129 1.81518C22.8509 1.85266 22.889 1.89025 22.9272 1.92794C23.0842 2.08304 23.0884 2.33348 22.9883 2.52913C22.908 2.68598 22.8425 2.85923 22.7909 3.01894C22.757 3.12392 22.6093 3.13753 22.5652 3.03627C22.3591 2.56248 22.2055 2.04062 22.1226 1.46655ZM25.5554 1.23841C25.577 1.23198 25.6001 1.23285 25.6212 1.24076C26.115 1.42633 26.5876 1.64797 27.0357 1.90173C27.0585 1.91464 27.0521 1.94829 27.0262 1.95264C26.7956 1.99132 26.4807 2.05342 26.1444 2.14683C25.8086 2.24011 25.4485 2.3655 25.1286 2.53175C25.0389 2.57841 24.9516 2.62863 24.8685 2.68267C24.5937 2.86144 24.2089 2.89504 23.9718 2.66975C23.9575 2.65614 23.9432 2.64254 23.929 2.62893C23.6951 2.4051 23.7147 2.03523 23.9977 1.87565C24.2426 1.73751 24.5121 1.61582 24.7632 1.51527C24.9987 1.42096 25.214 1.34673 25.3703 1.2961C25.4484 1.27081 25.5117 1.25142 25.5554 1.23841ZM22.0959 0.508038C22.1606 0.49736 22.2576 0.494917 22.384 0.501965C22.6349 0.515965 22.9781 0.565439 23.3574 0.637496C23.7818 0.718126 24.2463 0.826066 24.6702 0.941157C24.8561 0.991664 24.8611 1.2473 24.6823 1.31887C24.402 1.43111 24.0875 1.57357 23.8051 1.74132C23.5416 1.89788 23.1891 1.88646 22.9716 1.67186C22.9694 1.66972 22.9672 1.66757 22.9651 1.66543C22.8104 1.51278 22.662 1.36514 22.5306 1.22199C22.2979 0.968409 22.133 0.743744 22.0722 0.546723C22.0667 0.529177 22.0776 0.511067 22.0959 0.508038Z" fill="#D5C578"/>
<path d="M32.1835 12.0073C32.1687 12.4959 32.0647 13.0427 31.9159 13.584C31.6368 14.5986 31.1972 15.604 30.8777 16.1885L30.8155 16.2997L30.7583 16.3948C30.4942 16.8227 29.3273 18.5956 27.4958 19.6932L27.413 19.7421C26.5517 20.2425 25.4949 20.6179 24.4769 20.8232C23.4604 21.028 22.4738 21.065 21.755 20.8806L21.6863 20.8619C21.5457 20.8221 21.5017 20.6643 21.5753 20.5546L21.5917 20.5332C21.9786 20.0896 22.5077 19.4898 22.9808 18.8905C23.426 18.3265 23.8154 17.7702 23.9924 17.3484L24.025 17.2658C24.446 16.1179 24.6653 14.6656 26.5958 12.5134L26.6892 12.4103C27.4928 11.5302 28.4777 10.9765 29.4088 10.7047C30.3379 10.4336 31.222 10.4408 31.8212 10.6938L31.8467 10.7067C31.8711 10.7212 31.8921 10.7408 31.9084 10.7648L31.9283 10.7949C32.1292 11.1091 32.1977 11.5356 32.1835 12.0073ZM31.8909 11.3468C31.8984 11.217 31.8971 11.1028 31.8823 11.0157C31.8749 10.9725 31.8633 10.9292 31.8432 10.8926C31.823 10.8556 31.7879 10.8146 31.7306 10.7997C31.7217 10.7974 31.7125 10.7962 31.7033 10.7962C30.4175 10.7963 29.3422 11.1078 28.4498 11.596L28.3491 11.6523C27.8487 11.938 27.4081 12.2788 27.0217 12.6492L26.934 12.7348C26.4997 13.1653 26.1362 13.6325 25.8349 14.0978L25.7761 14.1897C25.4863 14.6494 25.2565 15.1055 25.0783 15.5212L25.003 15.7017C24.8351 16.1163 24.7204 16.4834 24.65 16.7633L24.6268 16.85C24.502 17.2876 24.2515 17.7908 23.9544 18.2884L23.871 18.4261C23.6865 18.7262 23.4889 19.0196 23.2974 19.29C23.2759 19.3203 23.2513 19.3483 23.2242 19.3739L21.9417 20.5808C21.8769 20.6418 21.9118 20.7498 22.0005 20.7624C22.7689 20.8723 23.347 20.7878 23.8546 20.6908L24.0682 20.649C24.3268 20.5978 24.5824 20.5355 24.8343 20.4624L24.9421 20.4304C25.3213 20.3152 25.6921 20.1757 26.0524 20.0133L26.2062 19.9423C26.5899 19.7609 26.9614 19.5533 27.3179 19.3215L27.4699 19.2207C27.9801 18.875 28.4586 18.4792 28.8977 18.0391L28.985 17.9505C29.4255 17.4977 29.8251 16.9996 30.1759 16.4624L30.2455 16.3545C30.5824 15.8238 30.8721 15.2559 31.1075 14.6568L31.1539 14.5366C31.3657 13.9765 31.6025 13.0901 31.75 12.3347C31.8237 11.9571 31.876 11.6081 31.8909 11.3468ZM24.2114 19.5531C24.2624 19.566 24.2687 19.6291 24.2237 19.656C23.7566 19.9353 23.2464 20.1484 22.8297 20.297C22.7256 20.3342 22.6491 20.2082 22.7292 20.1328L23.3921 19.5089L23.3947 19.5079C23.42 19.5062 23.4567 19.504 23.5014 19.5023C23.591 19.499 23.7123 19.4974 23.8401 19.5039C23.9686 19.5104 24.1001 19.5251 24.2114 19.5531ZM24.0101 20.019C24.1406 19.951 24.2738 20.0642 24.1935 20.1862C24.1371 20.2718 24.0805 20.3438 24.0381 20.3943C24.0086 20.4296 23.9669 20.4526 23.9215 20.4616C23.6144 20.5219 23.2915 20.5807 22.9203 20.5973C22.8574 20.6001 22.8435 20.5176 22.9028 20.4965C23.2327 20.3788 23.6242 20.2203 24.0101 20.019ZM25.1793 18.6489C25.2984 18.691 25.3151 18.8334 25.2216 18.9174C25.0753 19.049 24.921 19.174 24.7623 19.2923C24.6243 19.3952 24.4323 19.39 24.2646 19.3478C24.1339 19.3149 23.9866 19.2991 23.8511 19.2922C23.7297 19.286 23.6556 19.1505 23.7229 19.0505C23.8288 18.893 23.9343 18.7304 24.0363 18.5655C24.0787 18.4969 24.1566 18.457 24.2376 18.4654C24.3584 18.478 24.5216 18.4982 24.6913 18.5282C24.8617 18.5584 25.0356 18.5981 25.1793 18.6489ZM25.9302 17.2104C26.1471 17.3035 26.2334 17.5499 26.1325 17.761C26.0347 17.9659 25.9086 18.1617 25.7616 18.3479C25.6464 18.494 25.4285 18.5117 25.2518 18.4493C25.092 18.3928 24.905 18.3507 24.7292 18.3196C24.5528 18.2883 24.3842 18.2676 24.2601 18.2547C24.2433 18.2529 24.2338 18.235 24.2421 18.2205C24.4799 17.8054 24.6849 17.3835 24.8068 16.9968C24.8225 16.947 24.8728 16.9153 24.9247 16.9249C25.04 16.9463 25.1985 16.979 25.3709 17.0242C25.5577 17.073 25.7546 17.135 25.9302 17.2104ZM25.3751 19.0662C25.4081 19.0364 25.4578 19.0632 25.4451 19.1056C25.3992 19.2589 25.3158 19.4388 25.2226 19.6133C25.1298 19.7869 25.0296 19.9511 24.9523 20.0721C24.9138 20.1325 24.8809 20.1819 24.8579 20.2162C24.8482 20.2306 24.8336 20.2411 24.8168 20.2461C24.6828 20.2857 24.5477 20.3224 24.4117 20.3557C24.3804 20.3634 24.3562 20.3284 24.3737 20.3017C24.463 20.1662 24.5582 19.9902 24.6023 19.8017C24.6243 19.7079 24.6724 19.6197 24.7516 19.5634C24.9656 19.4113 25.1767 19.2454 25.3751 19.0662ZM26.353 15.8136C26.6565 15.8908 26.7598 16.2283 26.6287 16.509C26.6266 16.5134 26.6246 16.5179 26.6225 16.5223C26.4673 16.856 26.0329 17.0042 25.6785 16.8919C25.5921 16.8645 25.507 16.8404 25.4261 16.8192C25.2472 16.7724 25.0835 16.7386 24.9645 16.7165C24.9234 16.7089 24.8972 16.6689 24.9085 16.6292C24.9769 16.3891 25.0735 16.1005 25.2022 15.7823C25.2297 15.7144 25.2976 15.6708 25.3716 15.6747C25.4934 15.6809 25.6621 15.6935 25.8499 15.7185C26.0119 15.7402 26.185 15.7708 26.353 15.8136ZM26.4146 18.0239C26.411 18.2787 26.3708 18.5621 26.3177 18.8287C26.2648 19.0947 26.1997 19.3412 26.1478 19.5213C26.1219 19.6112 26.0992 19.6845 26.0832 19.735C26.0761 19.7574 26.0596 19.7758 26.0381 19.7858C25.9031 19.8481 25.7667 19.9071 25.6288 19.9628C25.4755 20.0247 25.3356 19.8567 25.4128 19.7121C25.5085 19.5331 25.5994 19.3388 25.6513 19.1656C25.6772 19.0791 25.6947 18.9933 25.6965 18.915C25.6985 18.8249 25.7165 18.7306 25.7766 18.6627C25.9615 18.454 26.1243 18.2309 26.2538 17.9939C26.2976 17.9137 26.4159 17.9328 26.4146 18.0239ZM27.2708 14.4873C27.5214 14.5997 27.5483 14.9078 27.4 15.1366C27.3568 15.2032 27.3142 15.2703 27.2722 15.3378C27.1069 15.6032 26.7569 15.7022 26.4521 15.6202C26.2563 15.5676 26.0572 15.5323 25.8787 15.5085C25.6837 15.4825 25.5089 15.4694 25.3828 15.4629C25.3617 15.4618 25.3481 15.4406 25.3567 15.4215C25.5063 15.0919 25.688 14.7411 25.9057 14.3869C25.9549 14.3069 26.0431 14.2579 26.138 14.2608C26.2676 14.2648 26.4458 14.2768 26.6401 14.3083C26.8504 14.3424 27.0721 14.3983 27.2708 14.4873ZM28.4101 13.1466C28.6205 13.2381 28.6406 13.4941 28.4937 13.6685C28.3888 13.793 28.285 13.9201 28.1827 14.0493C27.9683 14.3203 27.5513 14.36 27.2249 14.2394C27.0395 14.1709 26.8484 14.1272 26.6749 14.0991C26.469 14.0657 26.2811 14.0532 26.1448 14.049C26.136 14.0487 26.1309 14.0392 26.1358 14.0321C26.4155 13.6228 26.7447 13.2173 27.1291 12.8426C27.1332 12.8386 27.139 12.8366 27.1447 12.8373C27.1831 12.842 27.2385 12.8492 27.3064 12.8594C27.4424 12.8798 27.6275 12.9119 27.8246 12.9591C28.0222 13.0063 28.2293 13.0681 28.4101 13.1466ZM27.3705 17.9217C27.375 18.2513 27.3579 18.5511 27.3397 18.7685C27.3306 18.8771 27.3213 18.9651 27.3142 19.0256C27.3108 19.0552 27.2943 19.0818 27.2693 19.0984C26.987 19.2855 26.695 19.4569 26.3947 19.6117C26.3727 19.6231 26.3477 19.6028 26.3545 19.5792C26.4075 19.3954 26.4742 19.1431 26.5287 18.8696C26.583 18.5966 26.6258 18.2994 26.6296 18.0268C26.6318 17.8689 26.6209 17.7136 26.5888 17.574C26.5551 17.4278 26.5393 17.2727 26.5941 17.1328C26.6286 17.0448 26.6647 16.9567 26.7022 16.869C26.8293 16.5723 27.2091 16.5838 27.2727 16.8998C27.3398 17.2338 27.366 17.5916 27.3705 17.9217ZM28.7972 17.7768C28.7986 17.8141 28.7842 17.8503 28.7577 17.877C28.4106 18.2262 28.0383 18.5471 27.6448 18.8365C27.6053 18.8656 27.5499 18.8344 27.554 18.7859C27.5725 18.5638 27.59 18.2569 27.5853 17.9188C27.5807 17.5809 27.5541 17.2094 27.4836 16.8585C27.442 16.6517 27.3847 16.4496 27.3063 16.2647C27.2251 16.0732 27.2121 15.8524 27.3186 15.6734C27.3722 15.5832 27.4269 15.4938 27.4826 15.4052C27.6596 15.1234 28.0492 15.0768 28.2185 15.3632C28.2605 15.4343 28.2996 15.5089 28.3362 15.5865C28.4865 15.9053 28.5888 16.2657 28.6579 16.6068C28.7271 16.9474 28.7626 17.2658 28.7808 17.4992C28.7899 17.6158 28.7947 17.711 28.7972 17.7768ZM29.525 12.1199C29.6787 12.1964 29.6869 12.3922 29.565 12.5121C29.4535 12.6218 29.3417 12.7348 29.2301 12.851C29.0478 13.0405 28.7392 13.0579 28.4969 12.9526C28.3002 12.8671 28.0797 12.802 27.8753 12.7532C27.6705 12.7042 27.4789 12.6708 27.3387 12.6498L27.3379 12.647C27.6867 12.3336 28.0775 12.047 28.5138 11.804C28.5182 11.8015 28.5234 11.8007 28.5284 11.8017C28.5581 11.8076 28.6013 11.8167 28.6542 11.8287C28.7602 11.8529 28.9049 11.8893 29.06 11.938C29.2156 11.9869 29.3797 12.0476 29.525 12.1199ZM30.0353 16.2128C30.0406 16.2518 30.0316 16.2915 30.0101 16.3247C29.7352 16.7481 29.4296 17.1468 29.0971 17.5176C29.0628 17.5558 28.9991 17.5338 28.9951 17.4829C28.9764 17.2437 28.94 16.9165 28.8687 16.5653C28.7976 16.2144 28.6911 15.8364 28.5311 15.497C28.4669 15.3606 28.3934 15.2293 28.3092 15.108C28.1379 14.8612 28.0839 14.524 28.2684 14.2866C28.3682 14.1581 28.4697 14.0318 28.5724 13.9078C28.7655 13.6747 29.1154 13.6466 29.2839 13.8974C29.335 13.9735 29.3833 14.0548 29.429 14.1402C29.588 14.4379 29.7102 14.7778 29.8024 15.1006C29.8944 15.423 29.9558 15.7258 29.9941 15.9481C30.0133 16.0591 30.0267 16.15 30.0353 16.2128ZM30.6987 11.0772C30.83 11.0587 30.9008 11.2346 30.8025 11.3224C30.653 11.4559 30.4998 11.6054 30.3453 11.7578C30.3073 11.7953 30.2691 11.8329 30.2309 11.8706C30.0738 12.0253 29.8201 12.0294 29.6218 11.9307C29.4629 11.8516 29.2873 11.787 29.1254 11.7361C29.0189 11.7027 29.0051 11.5569 29.1078 11.5135C29.588 11.3103 30.1169 11.1589 30.6987 11.0772ZM30.93 14.4622C30.9365 14.4835 30.9356 14.5063 30.9276 14.5271C30.7395 15.0141 30.5149 15.4801 30.2578 15.922C30.2447 15.9445 30.2106 15.9381 30.2062 15.9126C30.1669 15.6852 30.104 15.3747 30.0094 15.0431C29.9148 14.7119 29.7877 14.3568 29.6192 14.0414C29.5719 13.9528 29.5209 13.8667 29.4661 13.7847C29.285 13.5137 29.2509 13.1345 29.4792 12.9007C29.4929 12.8866 29.5066 12.8727 29.5203 12.8587C29.7472 12.6279 30.1225 12.6473 30.2843 12.9264C30.4242 13.1678 30.5475 13.4335 30.6494 13.681C30.745 13.9133 30.8202 14.1256 30.8715 14.2797C30.8971 14.3568 30.9168 14.4192 30.93 14.4622ZM31.6702 11.0507C31.6811 11.1145 31.6835 11.2102 31.6764 11.3348C31.6622 11.5822 31.612 11.9206 31.539 12.2947C31.4572 12.7132 31.3479 13.1713 31.2313 13.5892C31.1801 13.7726 30.9211 13.7774 30.8486 13.6013C30.7348 13.3248 30.5904 13.0146 30.4203 12.7361C30.2617 12.4763 30.2732 12.1288 30.4907 11.9143C30.4929 11.9121 30.4951 11.91 30.4973 11.9078C30.652 11.7553 30.8017 11.609 30.9468 11.4794C31.2037 11.25 31.4314 11.0874 31.631 11.0273C31.6488 11.022 31.6672 11.0327 31.6702 11.0507Z" fill="#D5C578"/>
<path d="M0 0.933332H1.93032V19.9733C2.28989 19.9733 2.85763 19.9173 3.63354 19.8053L8.34579 19.1053V20.5333H0V0.933332Z" fill="#D5C578"/>
<path d="M49.5923 20.5333L40.2814 10.4813L48.911 0.933332H51.3523L42.013 9.69733L52.1472 20.5333H49.5923ZM37.3291 20.5333V0.933332H39.2594V20.5333H37.3291Z" fill="#D5C578"/>
<path d="M53.4494 20.5333L61.0855 0.933332H62.8455L70.4816 20.5333H68.4094L64.8894 11.3493H58.4455L55.5217 20.5333H53.4494ZM61.2842 2.38933L58.6442 10.6773H64.6339L61.4546 2.38933H61.2842Z" fill="#D5C578"/>
<path d="M75.0861 20.5333V0.933332H79.0319C81.0758 0.933332 82.6654 1.35333 83.8009 2.19333C84.9364 3.03333 85.5041 4.2 85.5041 5.69333C85.5041 6.79467 85.173 7.73733 84.5106 8.52133C83.8482 9.28667 82.9209 9.80933 81.7287 10.0893V10.2573C83.3562 10.4627 84.6241 11.0227 85.5325 11.9373C86.4598 12.8333 86.9235 13.972 86.9235 15.3533C86.9235 16.9773 86.2895 18.2467 85.0216 19.1613C83.7536 20.076 81.9747 20.5333 79.6848 20.5333H75.0861ZM79.0603 1.60533H77.0164V10.0053H79.0319C82.022 10.0053 83.517 8.60533 83.517 5.80533C83.517 3.00533 82.0314 1.60533 79.0603 1.60533ZM79.6848 10.6773H77.0164V19.8613H79.6848C83.148 19.8613 84.8796 18.3307 84.8796 15.2693C84.8796 12.208 83.148 10.6773 79.6848 10.6773Z" fill="#D5C578"/>
<path d="M92.3223 0.933332H94.2527V12.7493C94.2527 15.008 94.8109 16.772 95.9275 18.0413C97.063 19.292 98.6526 19.9173 100.697 19.9173C101.983 19.9173 103.1 19.6747 104.046 19.1893C105.011 18.6853 105.749 17.9947 106.26 17.1173C106.79 16.24 107.036 15.232 106.998 14.0933L106.516 0.933332H108.446L107.964 14.0933C107.888 16.3333 107.207 18.032 105.92 19.1893C104.652 20.3467 102.835 20.9253 100.469 20.9253C97.9146 20.9253 95.918 20.1973 94.4798 18.7413C93.0415 17.2667 92.3223 15.2507 92.3223 12.6933V0.933332Z" fill="#D5C578"/>
<path d="M115.255 20.5333V0.933332H121.5C123.695 0.933332 125.607 1.344 127.234 2.16533C128.862 2.98667 130.13 4.13467 131.038 5.60933C131.946 7.06533 132.401 8.77333 132.401 10.7333C132.401 12.6933 131.946 14.4107 131.038 15.8853C130.13 17.3413 128.862 18.48 127.234 19.3013C125.607 20.1227 123.695 20.5333 121.5 20.5333H115.255ZM121.5 1.60533H117.185V19.8613H121.5C124.244 19.8613 126.383 19.0587 127.915 17.4533C129.467 15.848 130.243 13.608 130.243 10.7333C130.243 7.85867 129.467 5.61867 127.915 4.01333C126.383 2.408 124.244 1.60533 121.5 1.60533Z" fill="#D5C578"/>
<path d="M135.145 20.5333L142.781 0.933332H144.541L152.178 20.5333H150.105L146.585 11.3493H140.141L137.218 20.5333H135.145ZM142.98 2.38933L140.34 10.6773H146.33L143.15 2.38933H142.98Z" fill="#D5C578"/>
<path d="M159.349 20.5333V12.2453L152.309 0.933332H154.466L160.797 11.1813H160.967L166.02 0.933332H168.177L161.393 11.8533V20.5333H159.349Z" fill="#D5C578"/>
<path d="M167.968 20.5333L175.604 0.933332H177.364L185 20.5333H182.928L179.408 11.3493H172.964L170.04 20.5333H167.968ZM175.803 2.38933L173.163 10.6773H179.152L175.973 2.38933H175.803Z" fill="#D5C578"/>
</svg>
