<svg width="579" height="312" viewBox="0 0 579 312" fill="none" xmlns="http://www.w3.org/2000/svg">
<path d="M33.32 12.14V46.44C33.32 51.2 31.9433 54.91 29.19 57.57C26.4367 60.1833 22.75 61.49 18.13 61.49C13.4633 61.49 9.68333 60.1367 6.79 57.43C3.94333 54.7233 2.52 50.9433 2.52 46.09H12.32C12.3667 48.19 12.8567 49.8233 13.79 50.99C14.77 52.1567 16.17 52.74 17.99 52.74C19.7633 52.74 21.1167 52.18 22.05 51.06C22.9833 49.94 23.45 48.4 23.45 46.44V12.14H33.32ZM63.3719 61.63C59.6385 61.63 56.2785 60.8133 53.2919 59.18C50.3052 57.5 47.9485 55.1433 46.2219 52.11C44.5419 49.0767 43.7019 45.5767 43.7019 41.61C43.7019 37.6433 44.5652 34.1433 46.2919 31.11C48.0652 28.0767 50.4685 25.7433 53.5019 24.11C56.5352 22.43 59.9185 21.59 63.6519 21.59C67.3852 21.59 70.7685 22.43 73.8019 24.11C76.8352 25.7433 79.2152 28.0767 80.9419 31.11C82.7152 34.1433 83.6019 37.6433 83.6019 41.61C83.6019 45.5767 82.6919 49.0767 80.8719 52.11C79.0985 55.1433 76.6719 57.5 73.5919 59.18C70.5585 60.8133 67.1519 61.63 63.3719 61.63ZM63.3719 53.09C65.1452 53.09 66.8019 52.67 68.3419 51.83C69.9285 50.9433 71.1885 49.6367 72.1219 47.91C73.0552 46.1833 73.5219 44.0833 73.5219 41.61C73.5219 37.9233 72.5419 35.1 70.5819 33.14C68.6685 31.1333 66.3119 30.13 63.5119 30.13C60.7119 30.13 58.3552 31.1333 56.4419 33.14C54.5752 35.1 53.6419 37.9233 53.6419 41.61C53.6419 45.2967 54.5519 48.1433 56.3719 50.15C58.2385 52.11 60.5719 53.09 63.3719 53.09ZM97.1605 17.6C95.4339 17.6 93.9872 17.0633 92.8206 15.99C91.7006 14.87 91.1406 13.4933 91.1406 11.86C91.1406 10.2267 91.7006 8.87333 92.8206 7.8C93.9872 6.68 95.4339 6.12 97.1605 6.12C98.8872 6.12 100.311 6.68 101.431 7.8C102.597 8.87333 103.181 10.2267 103.181 11.86C103.181 13.4933 102.597 14.87 101.431 15.99C100.311 17.0633 98.8872 17.6 97.1605 17.6ZM101.991 22.22V61H92.1906V22.22H101.991ZM134.563 21.66C139.183 21.66 142.916 23.13 145.763 26.07C148.61 28.9633 150.033 33.0233 150.033 38.25V61H140.233V39.58C140.233 36.5 139.463 34.1433 137.923 32.51C136.383 30.83 134.283 29.99 131.623 29.99C128.916 29.99 126.77 30.83 125.183 32.51C123.643 34.1433 122.873 36.5 122.873 39.58V61H113.073V22.22H122.873V27.05C124.18 25.37 125.836 24.0633 127.843 23.13C129.896 22.15 132.136 21.66 134.563 21.66ZM302.689 17.6C300.962 17.6 299.515 17.0633 298.349 15.99C297.229 14.87 296.669 13.4933 296.669 11.86C296.669 10.2267 297.229 8.87333 298.349 7.8C299.515 6.68 300.962 6.12 302.689 6.12C304.415 6.12 305.839 6.68 306.959 7.8C308.125 8.87333 308.709 10.2267 308.709 11.86C308.709 13.4933 308.125 14.87 306.959 15.99C305.839 17.0633 304.415 17.6 302.689 17.6ZM307.519 22.22V61H297.719V22.22H307.519ZM340.091 21.66C344.711 21.66 348.444 23.13 351.291 26.07C354.138 28.9633 355.561 33.0233 355.561 38.25V61H345.761V39.58C345.761 36.5 344.991 34.1433 343.451 32.51C341.911 30.83 339.811 29.99 337.151 29.99C334.444 29.99 332.298 30.83 330.711 32.51C329.171 34.1433 328.401 36.5 328.401 39.58V61H318.601V22.22H328.401V27.05C329.708 25.37 331.364 24.0633 333.371 23.13C335.424 22.15 337.664 21.66 340.091 21.66ZM14.63 166.14V215H4.83V166.14H14.63ZM47.2024 175.66C51.8224 175.66 55.5558 177.13 58.4024 180.07C61.2491 182.963 62.6724 187.023 62.6724 192.25V215H52.8724V193.58C52.8724 190.5 52.1024 188.143 50.5624 186.51C49.0224 184.83 46.9224 183.99 44.2624 183.99C41.5558 183.99 39.4091 184.83 37.8224 186.51C36.2824 188.143 35.5124 190.5 35.5124 193.58V215H25.7124V176.22H35.5124V181.05C36.8191 179.37 38.4758 178.063 40.4824 177.13C42.5358 176.15 44.7758 175.66 47.2024 175.66ZM70.8717 195.47C70.8717 191.55 71.6417 188.073 73.1817 185.04C74.7684 182.007 76.9151 179.673 79.6217 178.04C82.3284 176.407 85.3384 175.59 88.6517 175.59C91.1717 175.59 93.5751 176.15 95.8617 177.27C98.1484 178.343 99.9684 179.79 101.322 181.61V163.2H111.262V215H101.322V209.26C100.108 211.173 98.4051 212.713 96.2117 213.88C94.0184 215.047 91.4751 215.63 88.5817 215.63C85.3151 215.63 82.3284 214.79 79.6217 213.11C76.9151 211.43 74.7684 209.073 73.1817 206.04C71.6417 202.96 70.8717 199.437 70.8717 195.47ZM101.392 195.61C101.392 193.23 100.925 191.2 99.9917 189.52C99.0584 187.793 97.7984 186.487 96.2117 185.6C94.6251 184.667 92.9217 184.2 91.1017 184.2C89.2817 184.2 87.6017 184.643 86.0617 185.53C84.5217 186.417 83.2617 187.723 82.2817 189.45C81.3484 191.13 80.8817 193.137 80.8817 195.47C80.8817 197.803 81.3484 199.857 82.2817 201.63C83.2617 203.357 84.5217 204.687 86.0617 205.62C87.6484 206.553 89.3284 207.02 91.1017 207.02C92.9217 207.02 94.6251 206.577 96.2117 205.69C97.7984 204.757 99.0584 203.45 99.9917 201.77C100.925 200.043 101.392 197.99 101.392 195.61ZM139.453 215.63C135.72 215.63 132.36 214.813 129.373 213.18C126.386 211.5 124.03 209.143 122.303 206.11C120.623 203.077 119.783 199.577 119.783 195.61C119.783 191.643 120.646 188.143 122.373 185.11C124.146 182.077 126.55 179.743 129.583 178.11C132.616 176.43 136 175.59 139.733 175.59C143.466 175.59 146.85 176.43 149.883 178.11C152.916 179.743 155.296 182.077 157.023 185.11C158.796 188.143 159.683 191.643 159.683 195.61C159.683 199.577 158.773 203.077 156.953 206.11C155.18 209.143 152.753 211.5 149.673 213.18C146.64 214.813 143.233 215.63 139.453 215.63ZM139.453 207.09C141.226 207.09 142.883 206.67 144.423 205.83C146.01 204.943 147.27 203.637 148.203 201.91C149.136 200.183 149.603 198.083 149.603 195.61C149.603 191.923 148.623 189.1 146.663 187.14C144.75 185.133 142.393 184.13 139.593 184.13C136.793 184.13 134.436 185.133 132.523 187.14C130.656 189.1 129.723 191.923 129.723 195.61C129.723 199.297 130.633 202.143 132.453 204.15C134.32 206.11 136.653 207.09 139.453 207.09ZM189.762 175.66C194.382 175.66 198.115 177.13 200.962 180.07C203.808 182.963 205.232 187.023 205.232 192.25V215H195.432V193.58C195.432 190.5 194.662 188.143 193.122 186.51C191.582 184.83 189.482 183.99 186.822 183.99C184.115 183.99 181.968 184.83 180.382 186.51C178.842 188.143 178.072 190.5 178.072 193.58V215H168.272V176.22H178.072V181.05C179.378 179.37 181.035 178.063 183.042 177.13C185.095 176.15 187.335 175.66 189.762 175.66ZM252.001 194.77C252.001 196.17 251.908 197.43 251.721 198.55H223.371C223.604 201.35 224.584 203.543 226.311 205.13C228.038 206.717 230.161 207.51 232.681 207.51C236.321 207.51 238.911 205.947 240.451 202.82H251.021C249.901 206.553 247.754 209.633 244.581 212.06C241.408 214.44 237.511 215.63 232.891 215.63C229.158 215.63 225.798 214.813 222.811 213.18C219.871 211.5 217.561 209.143 215.881 206.11C214.248 203.077 213.431 199.577 213.431 195.61C213.431 191.597 214.248 188.073 215.881 185.04C217.514 182.007 219.801 179.673 222.741 178.04C225.681 176.407 229.064 175.59 232.891 175.59C236.578 175.59 239.868 176.383 242.761 177.97C245.701 179.557 247.964 181.82 249.551 184.76C251.184 187.653 252.001 190.99 252.001 194.77ZM241.851 191.97C241.804 189.45 240.894 187.443 239.121 185.95C237.348 184.41 235.178 183.64 232.611 183.64C230.184 183.64 228.131 184.387 226.451 185.88C224.818 187.327 223.814 189.357 223.441 191.97H241.851ZM275.394 215.63C272.221 215.63 269.374 215.07 266.854 213.95C264.334 212.783 262.328 211.22 260.834 209.26C259.388 207.3 258.594 205.13 258.454 202.75H268.324C268.511 204.243 269.234 205.48 270.494 206.46C271.801 207.44 273.411 207.93 275.324 207.93C277.191 207.93 278.638 207.557 279.664 206.81C280.738 206.063 281.274 205.107 281.274 203.94C281.274 202.68 280.621 201.747 279.314 201.14C278.054 200.487 276.024 199.787 273.224 199.04C270.331 198.34 267.951 197.617 266.084 196.87C264.264 196.123 262.678 194.98 261.324 193.44C260.018 191.9 259.364 189.823 259.364 187.21C259.364 185.063 259.971 183.103 261.184 181.33C262.444 179.557 264.218 178.157 266.504 177.13C268.838 176.103 271.568 175.59 274.694 175.59C279.314 175.59 283.001 176.757 285.754 179.09C288.508 181.377 290.024 184.48 290.304 188.4H280.924C280.784 186.86 280.131 185.647 278.964 184.76C277.844 183.827 276.328 183.36 274.414 183.36C272.641 183.36 271.264 183.687 270.284 184.34C269.351 184.993 268.884 185.903 268.884 187.07C268.884 188.377 269.538 189.38 270.844 190.08C272.151 190.733 274.181 191.41 276.934 192.11C279.734 192.81 282.044 193.533 283.864 194.28C285.684 195.027 287.248 196.193 288.554 197.78C289.908 199.32 290.608 201.373 290.654 203.94C290.654 206.18 290.024 208.187 288.764 209.96C287.551 211.733 285.778 213.133 283.444 214.16C281.158 215.14 278.474 215.63 275.394 215.63ZM305.069 171.6C303.342 171.6 301.895 171.063 300.729 169.99C299.609 168.87 299.049 167.493 299.049 165.86C299.049 164.227 299.609 162.873 300.729 161.8C301.895 160.68 303.342 160.12 305.069 160.12C306.795 160.12 308.219 160.68 309.339 161.8C310.505 162.873 311.089 164.227 311.089 165.86C311.089 167.493 310.505 168.87 309.339 169.99C308.219 171.063 306.795 171.6 305.069 171.6ZM309.899 176.22V215H300.099V176.22H309.899ZM318.461 195.47C318.461 191.55 319.231 188.073 320.771 185.04C322.358 182.007 324.481 179.673 327.141 178.04C329.848 176.407 332.858 175.59 336.171 175.59C339.065 175.59 341.585 176.173 343.731 177.34C345.925 178.507 347.675 179.977 348.981 181.75V176.22H358.851V215H348.981V209.33C347.721 211.15 345.971 212.667 343.731 213.88C341.538 215.047 338.995 215.63 336.101 215.63C332.835 215.63 329.848 214.79 327.141 213.11C324.481 211.43 322.358 209.073 320.771 206.04C319.231 202.96 318.461 199.437 318.461 195.47ZM348.981 195.61C348.981 193.23 348.515 191.2 347.581 189.52C346.648 187.793 345.388 186.487 343.801 185.6C342.215 184.667 340.511 184.2 338.691 184.2C336.871 184.2 335.191 184.643 333.651 185.53C332.111 186.417 330.851 187.723 329.871 189.45C328.938 191.13 328.471 193.137 328.471 195.47C328.471 197.803 328.938 199.857 329.871 201.63C330.851 203.357 332.111 204.687 333.651 205.62C335.238 206.553 336.918 207.02 338.691 207.02C340.511 207.02 342.215 206.577 343.801 205.69C345.388 204.757 346.648 203.45 347.581 201.77C348.515 200.043 348.981 197.99 348.981 195.61ZM371.783 166.14H382.073L374.513 183.78H367.793L371.783 166.14ZM405.34 215.63C402.167 215.63 399.32 215.07 396.8 213.95C394.28 212.783 392.273 211.22 390.78 209.26C389.333 207.3 388.54 205.13 388.4 202.75H398.27C398.457 204.243 399.18 205.48 400.44 206.46C401.747 207.44 403.357 207.93 405.27 207.93C407.137 207.93 408.583 207.557 409.61 206.81C410.683 206.063 411.22 205.107 411.22 203.94C411.22 202.68 410.567 201.747 409.26 201.14C408 200.487 405.97 199.787 403.17 199.04C400.277 198.34 397.897 197.617 396.03 196.87C394.21 196.123 392.623 194.98 391.27 193.44C389.963 191.9 389.31 189.823 389.31 187.21C389.31 185.063 389.917 183.103 391.13 181.33C392.39 179.557 394.163 178.157 396.45 177.13C398.783 176.103 401.513 175.59 404.64 175.59C409.26 175.59 412.947 176.757 415.7 179.09C418.453 181.377 419.97 184.48 420.25 188.4H410.87C410.73 186.86 410.077 185.647 408.91 184.76C407.79 183.827 406.273 183.36 404.36 183.36C402.587 183.36 401.21 183.687 400.23 184.34C399.297 184.993 398.83 185.903 398.83 187.07C398.83 188.377 399.483 189.38 400.79 190.08C402.097 190.733 404.127 191.41 406.88 192.11C409.68 192.81 411.99 193.533 413.81 194.28C415.63 195.027 417.193 196.193 418.5 197.78C419.853 199.32 420.553 201.373 420.6 203.94C420.6 206.18 419.97 208.187 418.71 209.96C417.497 211.733 415.723 213.133 413.39 214.16C411.103 215.14 408.42 215.63 405.34 215.63ZM2.45 267.5C2.45 262.693 3.52333 258.4 5.67 254.62C7.86333 250.793 10.8267 247.83 14.56 245.73C18.34 243.583 22.5633 242.51 27.23 242.51C32.69 242.51 37.4733 243.91 41.58 246.71C45.6867 249.51 48.5567 253.383 50.19 258.33H38.92C37.8 255.997 36.2133 254.247 34.16 253.08C32.1533 251.913 29.82 251.33 27.16 251.33C24.3133 251.33 21.77 252.007 19.53 253.36C17.3367 254.667 15.61 256.533 14.35 258.96C13.1367 261.387 12.53 264.233 12.53 267.5C12.53 270.72 13.1367 273.567 14.35 276.04C15.61 278.467 17.3367 280.357 19.53 281.71C21.77 283.017 24.3133 283.67 27.16 283.67C29.82 283.67 32.1533 283.087 34.16 281.92C36.2133 280.707 37.8 278.933 38.92 276.6H50.19C48.5567 281.593 45.6867 285.49 41.58 288.29C37.52 291.043 32.7367 292.42 27.23 292.42C22.5633 292.42 18.34 291.37 14.56 289.27C10.8267 287.123 7.86333 284.16 5.67 280.38C3.52333 276.6 2.45 272.307 2.45 267.5ZM96.5705 253.22V292H86.7005V287.1C85.4405 288.78 83.7838 290.11 81.7305 291.09C79.7238 292.023 77.5305 292.49 75.1505 292.49C72.1171 292.49 69.4338 291.86 67.1005 290.6C64.7671 289.293 62.9238 287.403 61.5705 284.93C60.2638 282.41 59.6105 279.423 59.6105 275.97V253.22H69.4105V274.57C69.4105 277.65 70.1805 280.03 71.7205 281.71C73.2605 283.343 75.3605 284.16 78.0205 284.16C80.7271 284.16 82.8505 283.343 84.3905 281.71C85.9305 280.03 86.7005 277.65 86.7005 274.57V253.22H96.5705ZM117.44 240.2V292H107.64V240.2H117.44ZM139.932 261.27V280.03C139.932 281.337 140.236 282.293 140.842 282.9C141.496 283.46 142.569 283.74 144.062 283.74H148.612V292H142.452C134.192 292 130.062 287.987 130.062 279.96V261.27H125.442V253.22H130.062V243.63H139.932V253.22H148.612V261.27H139.932ZM193.671 253.22V292H183.801V287.1C182.541 288.78 180.884 290.11 178.831 291.09C176.824 292.023 174.631 292.49 172.251 292.49C169.218 292.49 166.534 291.86 164.201 290.6C161.868 289.293 160.024 287.403 158.671 284.93C157.364 282.41 156.711 279.423 156.711 275.97V253.22H166.511V274.57C166.511 277.65 167.281 280.03 168.821 281.71C170.361 283.343 172.461 284.16 175.121 284.16C177.828 284.16 179.951 283.343 181.491 281.71C183.031 280.03 183.801 277.65 183.801 274.57V253.22H193.671ZM214.54 259.24C215.8 257.187 217.433 255.577 219.44 254.41C221.493 253.243 223.827 252.66 226.44 252.66V262.95H223.85C220.77 262.95 218.437 263.673 216.85 265.12C215.31 266.567 214.54 269.087 214.54 272.68V292H204.74V253.22H214.54V259.24ZM231.921 272.47C231.921 268.55 232.691 265.073 234.231 262.04C235.818 259.007 237.941 256.673 240.601 255.04C243.308 253.407 246.318 252.59 249.631 252.59C252.524 252.59 255.044 253.173 257.191 254.34C259.384 255.507 261.134 256.977 262.441 258.75V253.22H272.311V292H262.441V286.33C261.181 288.15 259.431 289.667 257.191 290.88C254.998 292.047 252.454 292.63 249.561 292.63C246.294 292.63 243.308 291.79 240.601 290.11C237.941 288.43 235.818 286.073 234.231 283.04C232.691 279.96 231.921 276.437 231.921 272.47ZM262.441 272.61C262.441 270.23 261.974 268.2 261.041 266.52C260.108 264.793 258.848 263.487 257.261 262.6C255.674 261.667 253.971 261.2 252.151 261.2C250.331 261.2 248.651 261.643 247.111 262.53C245.571 263.417 244.311 264.723 243.331 266.45C242.398 268.13 241.931 270.137 241.931 272.47C241.931 274.803 242.398 276.857 243.331 278.63C244.311 280.357 245.571 281.687 247.111 282.62C248.698 283.553 250.378 284.02 252.151 284.02C253.971 284.02 255.674 283.577 257.261 282.69C258.848 281.757 260.108 280.45 261.041 278.77C261.974 277.043 262.441 274.99 262.441 272.61ZM293.082 240.2V292H283.282V240.2H293.082ZM332.044 284.23H348.144V292H322.244V243.14H332.044V284.23ZM391.823 271.77C391.823 273.17 391.73 274.43 391.543 275.55H363.193C363.427 278.35 364.407 280.543 366.133 282.13C367.86 283.717 369.983 284.51 372.503 284.51C376.143 284.51 378.733 282.947 380.273 279.82H390.843C389.723 283.553 387.577 286.633 384.403 289.06C381.23 291.44 377.333 292.63 372.713 292.63C368.98 292.63 365.62 291.813 362.633 290.18C359.693 288.5 357.383 286.143 355.703 283.11C354.07 280.077 353.253 276.577 353.253 272.61C353.253 268.597 354.07 265.073 355.703 262.04C357.337 259.007 359.623 256.673 362.563 255.04C365.503 253.407 368.887 252.59 372.713 252.59C376.4 252.59 379.69 253.383 382.583 254.97C385.523 256.557 387.787 258.82 389.373 261.76C391.007 264.653 391.823 267.99 391.823 271.77ZM381.673 268.97C381.627 266.45 380.717 264.443 378.943 262.95C377.17 261.41 375 260.64 372.433 260.64C370.007 260.64 367.953 261.387 366.273 262.88C364.64 264.327 363.637 266.357 363.263 268.97H381.673ZM415.566 252.59C418.46 252.59 421.003 253.173 423.196 254.34C425.39 255.46 427.116 256.93 428.376 258.75V253.22H438.246V292.28C438.246 295.873 437.523 299.07 436.076 301.87C434.63 304.717 432.46 306.957 429.566 308.59C426.673 310.27 423.173 311.11 419.066 311.11C413.56 311.11 409.033 309.827 405.486 307.26C401.986 304.693 400.003 301.193 399.536 296.76H409.266C409.78 298.533 410.876 299.933 412.556 300.96C414.283 302.033 416.36 302.57 418.786 302.57C421.633 302.57 423.943 301.707 425.716 299.98C427.49 298.3 428.376 295.733 428.376 292.28V286.26C427.116 288.08 425.366 289.597 423.126 290.81C420.933 292.023 418.413 292.63 415.566 292.63C412.3 292.63 409.313 291.79 406.606 290.11C403.9 288.43 401.753 286.073 400.166 283.04C398.626 279.96 397.856 276.437 397.856 272.47C397.856 268.55 398.626 265.073 400.166 262.04C401.753 259.007 403.876 256.673 406.536 255.04C409.243 253.407 412.253 252.59 415.566 252.59ZM428.376 272.61C428.376 270.23 427.91 268.2 426.976 266.52C426.043 264.793 424.783 263.487 423.196 262.6C421.61 261.667 419.906 261.2 418.086 261.2C416.266 261.2 414.586 261.643 413.046 262.53C411.506 263.417 410.246 264.723 409.266 266.45C408.333 268.13 407.866 270.137 407.866 272.47C407.866 274.803 408.333 276.857 409.266 278.63C410.246 280.357 411.506 281.687 413.046 282.62C414.633 283.553 416.313 284.02 418.086 284.02C419.906 284.02 421.61 283.577 423.196 282.69C424.783 281.757 426.043 280.45 426.976 278.77C427.91 277.043 428.376 274.99 428.376 272.61ZM446.698 272.47C446.698 268.55 447.468 265.073 449.008 262.04C450.595 259.007 452.718 256.673 455.378 255.04C458.085 253.407 461.095 252.59 464.408 252.59C467.301 252.59 469.821 253.173 471.968 254.34C474.161 255.507 475.911 256.977 477.218 258.75V253.22H487.088V292H477.218V286.33C475.958 288.15 474.208 289.667 471.968 290.88C469.775 292.047 467.231 292.63 464.338 292.63C461.071 292.63 458.085 291.79 455.378 290.11C452.718 288.43 450.595 286.073 449.008 283.04C447.468 279.96 446.698 276.437 446.698 272.47ZM477.218 272.61C477.218 270.23 476.751 268.2 475.818 266.52C474.885 264.793 473.625 263.487 472.038 262.6C470.451 261.667 468.748 261.2 466.928 261.2C465.108 261.2 463.428 261.643 461.888 262.53C460.348 263.417 459.088 264.723 458.108 266.45C457.175 268.13 456.708 270.137 456.708 272.47C456.708 274.803 457.175 276.857 458.108 278.63C459.088 280.357 460.348 281.687 461.888 282.62C463.475 283.553 465.155 284.02 466.928 284.02C468.748 284.02 470.451 283.577 472.038 282.69C473.625 281.757 474.885 280.45 475.818 278.77C476.751 277.043 477.218 274.99 477.218 272.61ZM495.539 272.61C495.539 268.597 496.356 265.097 497.989 262.11C499.623 259.077 501.886 256.743 504.779 255.11C507.673 253.43 510.986 252.59 514.719 252.59C519.526 252.59 523.493 253.803 526.619 256.23C529.793 258.61 531.916 261.97 532.989 266.31H522.419C521.859 264.63 520.903 263.323 519.549 262.39C518.243 261.41 516.609 260.92 514.649 260.92C511.849 260.92 509.633 261.947 507.999 264C506.366 266.007 505.549 268.877 505.549 272.61C505.549 276.297 506.366 279.167 507.999 281.22C509.633 283.227 511.849 284.23 514.649 284.23C518.616 284.23 521.206 282.457 522.419 278.91H532.989C531.916 283.11 529.793 286.447 526.619 288.92C523.446 291.393 519.479 292.63 514.719 292.63C510.986 292.63 507.673 291.813 504.779 290.18C501.886 288.5 499.623 286.167 497.989 283.18C496.356 280.147 495.539 276.623 495.539 272.61ZM578.669 253.22L554.659 310.34H544.229L552.629 291.02L537.089 253.22H548.079L558.089 280.31L568.239 253.22H578.669Z" fill="#1D293D"/>
<path d="M237.002 0.699998V3.85L232.592 3.94V61H229.712L218.192 53.44C215.972 56.14 213.302 58.3 210.182 59.92C207.062 61.54 203.792 62.35 200.372 62.35C194.132 62.35 189.302 60.37 185.882 56.41C182.462 52.45 180.752 46.3 180.752 37.96V3.94L176.342 3.85V0.699998H200.372V3.85L195.962 3.94V35.71C195.962 41.23 197.102 45.37 199.382 48.13C201.662 50.83 204.782 52.18 208.742 52.18C212.102 52.18 215.072 51.49 217.652 50.11V3.94L213.242 3.85V0.699998H237.002ZM253.68 27.25C253.68 28.87 254.31 30.34 255.57 31.66C256.89 32.98 258.87 34.54 261.51 36.34C264.75 38.56 267.21 40.57 268.89 42.37C270.57 44.17 271.41 46.39 271.41 49.03C271.41 51.37 270.72 53.56 269.34 55.6C267.96 57.64 266.01 59.29 263.49 60.55C260.97 61.75 258.09 62.35 254.85 62.35C251.73 62.35 248.76 61.6 245.94 60.1C243.18 58.6 241.14 56.68 239.82 54.34L247.56 48.13C249.96 52.63 252.42 56.32 254.94 59.2C255.96 58.42 256.8 57.52 257.46 56.5C258.18 55.42 258.54 54.37 258.54 53.35C258.54 51.67 257.91 50.23 256.65 49.03C255.45 47.77 253.56 46.27 250.98 44.53C248.88 43.15 247.2 41.95 245.94 40.93C244.68 39.91 243.6 38.68 242.7 37.24C241.86 35.8 241.44 34.18 241.44 32.38C241.44 30.16 242.16 28.03 243.6 25.99C245.1 23.95 247.17 22.3 249.81 21.04C252.45 19.78 255.45 19.15 258.81 19.15C261.39 19.15 263.82 19.72 266.1 20.86C268.44 21.94 270.33 23.32 271.77 25L264.75 31.93C261.87 28.27 258.69 25 255.21 22.12C254.19 23.44 253.68 25.15 253.68 27.25ZM250.71 61H250.8H250.71Z" fill="url(#paint0_linear_1052_1616)"/>
<path d="M17.3306 138.79C15.1102 138.79 13.2473 138.527 11.7419 138C10.2366 137.473 8.99462 136.946 8.01613 136.419C7.03763 135.892 6.22849 135.629 5.58871 135.629C5.09946 135.629 4.66667 135.817 4.29032 136.194C3.91398 136.532 3.48118 137.134 2.99194 138H0.733871C1.41129 136.231 2.03226 134.312 2.59677 132.242C3.19892 130.134 3.81989 127.594 4.45968 124.621H6.71774C6.49194 128.347 7.22581 131.282 8.91935 133.427C10.6505 135.535 13.172 136.589 16.4839 136.589C18.8548 136.589 20.7177 136.005 22.0726 134.839C23.4274 133.672 24.1048 132.091 24.1048 130.097C24.1048 128.629 23.7473 127.312 23.0323 126.145C22.3548 124.978 21.4516 123.887 20.3226 122.871C19.2312 121.855 18.0645 120.858 16.8226 119.879C15.5806 118.863 14.3952 117.809 13.2661 116.718C12.1747 115.589 11.2715 114.347 10.5565 112.992C9.8414 111.637 9.48387 110.075 9.48387 108.306C9.48387 106.161 10.0296 104.261 11.121 102.605C12.2124 100.949 13.6989 99.6505 15.5806 98.7097C17.5 97.7312 19.7016 97.2419 22.1855 97.2419C24.1801 97.2419 25.7984 97.5054 27.0403 98.0323C28.2823 98.5215 29.2984 99.0296 30.0887 99.5565C30.9167 100.083 31.6317 100.347 32.2339 100.347C32.6478 100.347 33.0242 100.177 33.3629 99.8387C33.7392 99.4624 34.1156 98.8602 34.4919 98.0323H36.75C36.1102 99.5376 35.5081 101.25 34.9435 103.169C34.4167 105.051 33.9462 107.121 33.5323 109.379H31.2742C31.4247 107.347 31.1989 105.578 30.5968 104.073C29.9946 102.567 29.0538 101.419 27.7742 100.629C26.5323 99.8387 24.9892 99.4435 23.1452 99.4435C21.0753 99.4435 19.4005 100.008 18.121 101.137C16.879 102.228 16.2581 103.734 16.2581 105.653C16.2581 107.083 16.6156 108.401 17.3306 109.605C18.0833 110.772 19.0242 111.882 20.1532 112.935C21.3199 113.952 22.543 114.968 23.8226 115.984C25.1022 117 26.3065 118.091 27.4355 119.258C28.6021 120.387 29.543 121.629 30.2581 122.984C31.0108 124.339 31.3871 125.882 31.3871 127.613C31.3871 129.758 30.7849 131.677 29.5806 133.371C28.3763 135.065 26.7204 136.401 24.6129 137.379C22.5054 138.32 20.078 138.79 17.3306 138.79ZM49.8033 138.79C47.056 138.79 45.099 137.906 43.9323 136.137C42.7657 134.331 42.5963 131.941 43.4243 128.968L51.3275 100.516C52.6447 100.516 53.8866 100.441 55.0533 100.29C56.2576 100.102 57.4054 99.8575 58.4968 99.5565L49.9162 130.435C49.4646 132.091 49.4269 133.333 49.8033 134.161C50.1796 134.952 50.97 135.347 52.1743 135.347C53.1528 135.347 54.0372 135.046 54.8275 134.444C55.6178 133.841 56.3705 132.882 57.0855 131.565L58.1017 129.645H60.3033L58.6097 132.863C57.97 134.03 57.2361 135.065 56.4081 135.968C55.5802 136.833 54.6205 137.511 53.5291 138C52.4753 138.527 51.2334 138.79 49.8033 138.79ZM42.013 111.073L42.5775 108.871H64.5936L63.9726 111.073H42.013ZM69.2974 138L75.3377 116.492C75.7893 114.911 75.8457 113.688 75.507 112.823C75.206 111.919 74.5474 111.468 73.5312 111.468C72.7033 111.468 71.9318 111.788 71.2167 112.427C70.5017 113.067 69.8054 114.008 69.128 115.25L68.0554 117.282H65.8538L67.1522 114.855C67.8672 113.425 68.6764 112.22 69.5796 111.242C70.4828 110.226 71.4802 109.454 72.5716 108.927C73.6629 108.363 74.8861 108.081 76.2409 108.081C78.0097 108.081 79.3834 108.495 80.3619 109.323C81.378 110.151 81.999 111.298 82.2248 112.766C82.4882 114.234 82.3565 115.946 81.8296 117.903L76.1845 138H69.2974ZM90.0715 119.653C89.3565 119.653 88.7732 119.446 88.3215 119.032C87.9076 118.581 87.7006 118.016 87.7006 117.339C87.7006 116.699 87.8511 116.078 88.1522 115.476C88.4909 114.874 88.8108 114.309 89.1119 113.782C89.4129 113.255 89.5635 112.766 89.5635 112.315C89.5635 111.599 89.0554 111.242 88.0393 111.242C87.0232 111.242 85.9318 111.656 84.7651 112.484C83.5984 113.312 82.6388 114.422 81.8861 115.815L81.5474 114.347C82.6764 112.352 84.0124 110.809 85.5554 109.718C87.1361 108.626 88.8108 108.081 90.5796 108.081C92.1226 108.081 93.3081 108.476 94.1361 109.266C94.964 110.056 95.378 111.185 95.378 112.653C95.378 113.82 95.1146 114.949 94.5877 116.04C94.0984 117.132 93.4586 118.016 92.6683 118.694C91.878 119.333 91.0124 119.653 90.0715 119.653ZM110.06 138.79C106.862 138.79 104.359 137.831 102.552 135.911C100.784 133.954 99.8992 131.245 99.8992 127.782C99.8992 125.148 100.37 122.664 101.31 120.331C102.289 117.96 103.606 115.852 105.262 114.008C106.918 112.164 108.819 110.715 110.964 109.661C113.109 108.608 115.367 108.081 117.738 108.081C119.996 108.081 121.727 108.57 122.931 109.548C124.136 110.489 124.738 111.863 124.738 113.669C124.738 115.702 123.966 117.64 122.423 119.484C120.918 121.29 118.792 122.909 116.044 124.339C113.297 125.731 110.042 126.823 106.278 127.613V125.863C108.988 124.997 111.284 123.925 113.165 122.645C115.085 121.366 116.534 119.954 117.512 118.411C118.491 116.831 118.98 115.194 118.98 113.5C118.98 112.409 118.773 111.599 118.359 111.073C117.982 110.508 117.418 110.226 116.665 110.226C115.536 110.226 114.388 110.734 113.222 111.75C112.093 112.728 111.039 114.046 110.06 115.702C109.12 117.358 108.367 119.183 107.802 121.177C107.238 123.172 106.956 125.167 106.956 127.161C106.956 129.833 107.445 131.866 108.423 133.258C109.439 134.651 110.888 135.347 112.77 135.347C114.275 135.347 115.649 134.914 116.891 134.048C118.133 133.183 119.262 131.847 120.278 130.04H122.367C120.974 132.901 119.243 135.083 117.173 136.589C115.103 138.056 112.732 138.79 110.06 138.79ZM157.984 138.79C156.215 138.79 154.823 138.395 153.807 137.605C152.791 136.777 152.151 135.629 151.887 134.161C151.661 132.656 151.831 130.925 152.395 128.968L155.331 118.468C155.933 116.21 155.989 114.497 155.5 113.331C155.011 112.126 153.995 111.524 152.452 111.524C151.21 111.524 150.043 111.901 148.952 112.653C147.86 113.406 146.863 114.535 145.96 116.04L145.621 114.742C146.901 112.522 148.368 110.866 150.024 109.774C151.718 108.645 153.581 108.081 155.613 108.081C158.473 108.081 160.487 109.097 161.653 111.129C162.82 113.161 162.933 115.89 161.992 119.315L158.887 130.435C158.436 131.978 158.36 133.202 158.661 134.105C158.963 134.97 159.621 135.403 160.637 135.403C161.465 135.403 162.237 135.083 162.952 134.444C163.705 133.804 164.42 132.863 165.097 131.621L166.113 129.645H168.315L167.073 132.016C166.32 133.409 165.492 134.613 164.589 135.629C163.723 136.645 162.745 137.435 161.653 138C160.562 138.527 159.339 138.79 157.984 138.79ZM133.484 138L139.524 116.492C139.938 114.949 139.995 113.726 139.694 112.823C139.43 111.919 138.772 111.468 137.718 111.468C136.89 111.468 136.118 111.788 135.403 112.427C134.688 113.067 133.992 114.008 133.315 115.25L132.242 117.282H130.041L131.339 114.855C132.054 113.425 132.863 112.22 133.766 111.242C134.67 110.226 135.667 109.454 136.758 108.927C137.85 108.363 139.073 108.081 140.428 108.081C142.196 108.081 143.57 108.495 144.549 109.323C145.565 110.151 146.186 111.298 146.411 112.766C146.675 114.234 146.543 115.946 146.016 117.903L140.371 138H133.484ZM181.785 151.492C179.264 151.492 177.043 151.21 175.124 150.645C173.242 150.081 171.774 149.29 170.721 148.274C169.667 147.258 169.14 146.073 169.14 144.718C169.14 143.099 169.893 141.556 171.398 140.089C172.941 138.659 175.143 137.417 178.003 136.363L179.132 137.153C177.89 137.906 176.912 138.828 176.197 139.919C175.519 141.011 175.18 142.14 175.18 143.306C175.18 145.075 175.933 146.487 177.438 147.54C178.981 148.594 181.033 149.121 183.592 149.121C185.398 149.121 186.979 148.82 188.334 148.218C189.726 147.616 190.817 146.769 191.608 145.677C192.398 144.586 192.793 143.363 192.793 142.008C192.793 140.691 192.398 139.712 191.608 139.073C190.817 138.47 189.594 138.169 187.938 138.169H182.519C180.562 138.169 179 137.774 177.834 136.984C176.705 136.156 176.14 135.046 176.14 133.653C176.14 132.449 176.592 131.263 177.495 130.097C178.398 128.892 179.772 127.613 181.616 126.258L182.576 126.935C181.823 127.613 181.277 128.215 180.938 128.742C180.637 129.231 180.487 129.72 180.487 130.21C180.487 130.849 180.75 131.339 181.277 131.677C181.842 132.016 182.707 132.185 183.874 132.185H189.914C192.624 132.185 194.731 132.825 196.237 134.105C197.742 135.384 198.495 137.172 198.495 139.468C198.495 141.801 197.78 143.871 196.35 145.677C194.92 147.484 192.944 148.895 190.422 149.911C187.901 150.965 185.022 151.492 181.785 151.492ZM185.398 127.782C182.538 127.782 180.28 127.03 178.624 125.524C177.006 123.981 176.197 121.892 176.197 119.258C176.197 117.113 176.705 115.212 177.721 113.556C178.774 111.863 180.205 110.527 182.011 109.548C183.817 108.57 185.869 108.081 188.164 108.081C190.987 108.081 193.207 108.852 194.826 110.395C196.481 111.938 197.309 114.046 197.309 116.718C197.309 118.825 196.783 120.726 195.729 122.419C194.713 124.075 193.301 125.392 191.495 126.371C189.726 127.312 187.694 127.782 185.398 127.782ZM185.511 125.581C186.339 125.581 187.11 125.317 187.826 124.79C188.541 124.226 189.162 123.473 189.688 122.532C190.253 121.554 190.686 120.462 190.987 119.258C191.288 118.016 191.438 116.737 191.438 115.419C191.438 113.726 191.137 112.446 190.535 111.581C189.971 110.715 189.124 110.282 187.995 110.282C187.167 110.282 186.395 110.546 185.68 111.073C184.965 111.599 184.326 112.315 183.761 113.218C183.234 114.121 182.82 115.175 182.519 116.379C182.218 117.583 182.067 118.863 182.067 120.218C182.067 121.987 182.369 123.323 182.971 124.226C183.573 125.129 184.42 125.581 185.511 125.581ZM203.011 116.492C202.334 116.492 201.788 116.323 201.374 115.984C200.998 115.608 200.809 115.099 200.809 114.46C200.809 114.046 200.885 113.651 201.035 113.274C201.223 112.898 201.393 112.54 201.543 112.202C201.731 111.863 201.826 111.562 201.826 111.298C201.826 110.96 201.694 110.715 201.43 110.565C201.205 110.414 200.828 110.339 200.301 110.339C199.511 110.339 198.702 110.527 197.874 110.903C197.084 111.28 196.312 111.825 195.559 112.54L194.882 111.581C195.823 110.452 196.858 109.586 197.987 108.984C199.116 108.382 200.32 108.081 201.6 108.081C203.105 108.081 204.291 108.476 205.156 109.266C206.059 110.019 206.511 111.035 206.511 112.315C206.511 113.519 206.172 114.516 205.495 115.306C204.817 116.097 203.99 116.492 203.011 116.492ZM219.225 138.79C216.478 138.79 214.521 137.906 213.354 136.137C212.188 134.331 212.018 131.941 212.846 128.968L220.749 100.516C222.067 100.516 223.308 100.441 224.475 100.29C225.679 100.102 226.827 99.8575 227.919 99.5565L219.338 130.435C218.886 132.091 218.849 133.333 219.225 134.161C219.602 134.952 220.392 135.347 221.596 135.347C222.575 135.347 223.459 135.046 224.249 134.444C225.04 133.841 225.792 132.882 226.507 131.565L227.524 129.645H229.725L228.032 132.863C227.392 134.03 226.658 135.065 225.83 135.968C225.002 136.833 224.042 137.511 222.951 138C221.897 138.527 220.655 138.79 219.225 138.79ZM211.435 111.073L211.999 108.871H234.015L233.395 111.073H211.435ZM235.653 138L245.419 102.887C245.833 101.57 245.946 100.535 245.758 99.7823C245.607 99.0296 245.08 98.4839 244.177 98.1452C243.311 97.8065 241.957 97.6371 240.112 97.6371L240.733 95.4355C243.669 95.3978 246.303 95.1909 248.637 94.8145C251.008 94.4382 253.153 93.8737 255.072 93.121L242.54 138H235.653ZM260.153 138.79C258.384 138.79 256.991 138.376 255.975 137.548C254.959 136.72 254.319 135.573 254.056 134.105C253.83 132.599 253.981 130.887 254.508 128.968L257.443 118.468C258.083 116.247 258.158 114.535 257.669 113.331C257.18 112.126 256.164 111.524 254.621 111.524C253.416 111.524 252.306 111.882 251.29 112.597C250.274 113.312 249.333 114.403 248.467 115.871L248.354 114.573C249.559 112.427 250.951 110.809 252.532 109.718C254.112 108.626 255.9 108.081 257.895 108.081C260.717 108.081 262.693 109.116 263.822 111.185C264.989 113.218 265.083 115.927 264.104 119.315L261 130.435C260.586 131.978 260.51 133.202 260.774 134.105C261.075 134.97 261.733 135.403 262.75 135.403C263.615 135.403 264.405 135.102 265.121 134.5C265.873 133.86 266.569 132.901 267.209 131.621L268.282 129.645H270.483L269.241 132.016C268.489 133.409 267.661 134.613 266.758 135.629C265.892 136.645 264.914 137.435 263.822 138C262.731 138.527 261.508 138.79 260.153 138.79ZM285.84 138.79C282.641 138.79 280.138 137.831 278.332 135.911C276.563 133.954 275.678 131.245 275.678 127.782C275.678 125.148 276.149 122.664 277.09 120.331C278.068 117.96 279.385 115.852 281.041 114.008C282.697 112.164 284.598 110.715 286.743 109.661C288.888 108.608 291.146 108.081 293.517 108.081C295.775 108.081 297.506 108.57 298.711 109.548C299.915 110.489 300.517 111.863 300.517 113.669C300.517 115.702 299.746 117.64 298.203 119.484C296.697 121.29 294.571 122.909 291.824 124.339C289.076 125.731 285.821 126.823 282.057 127.613V125.863C284.767 124.997 287.063 123.925 288.945 122.645C290.864 121.366 292.313 119.954 293.291 118.411C294.27 116.831 294.759 115.194 294.759 113.5C294.759 112.409 294.552 111.599 294.138 111.073C293.762 110.508 293.197 110.226 292.445 110.226C291.316 110.226 290.168 110.734 289.001 111.75C287.872 112.728 286.818 114.046 285.84 115.702C284.899 117.358 284.146 119.183 283.582 121.177C283.017 123.172 282.735 125.167 282.735 127.161C282.735 129.833 283.224 131.866 284.203 133.258C285.219 134.651 286.668 135.347 288.549 135.347C290.055 135.347 291.428 134.914 292.67 134.048C293.912 133.183 295.041 131.847 296.057 130.04H298.146C296.754 132.901 295.023 135.083 292.953 136.589C290.883 138.056 288.512 138.79 285.84 138.79ZM333.763 138.79C331.995 138.79 330.602 138.395 329.586 137.605C328.57 136.777 327.93 135.629 327.667 134.161C327.441 132.656 327.61 130.925 328.175 128.968L331.11 118.468C331.712 116.21 331.769 114.497 331.28 113.331C330.79 112.126 329.774 111.524 328.231 111.524C326.989 111.524 325.823 111.901 324.731 112.653C323.64 113.406 322.642 114.535 321.739 116.04L321.4 114.742C322.68 112.522 324.148 110.866 325.804 109.774C327.497 108.645 329.36 108.081 331.392 108.081C334.253 108.081 336.266 109.097 337.433 111.129C338.599 113.161 338.712 115.89 337.771 119.315L334.667 130.435C334.215 131.978 334.14 133.202 334.441 134.105C334.742 134.97 335.4 135.403 336.417 135.403C337.245 135.403 338.016 135.083 338.731 134.444C339.484 133.804 340.199 132.863 340.876 131.621L341.892 129.645H344.094L342.852 132.016C342.099 133.409 341.271 134.613 340.368 135.629C339.503 136.645 338.524 137.435 337.433 138C336.341 138.527 335.118 138.79 333.763 138.79ZM309.263 138L315.304 116.492C315.718 114.949 315.774 113.726 315.473 112.823C315.21 111.919 314.551 111.468 313.497 111.468C312.669 111.468 311.898 111.788 311.183 112.427C310.468 113.067 309.771 114.008 309.094 115.25L308.021 117.282H305.82L307.118 114.855C307.833 113.425 308.642 112.22 309.546 111.242C310.449 110.226 311.446 109.454 312.538 108.927C313.629 108.363 314.852 108.081 316.207 108.081C317.976 108.081 319.349 108.495 320.328 109.323C321.344 110.151 321.965 111.298 322.191 112.766C322.454 114.234 322.323 115.946 321.796 117.903L316.15 138H309.263ZM358.182 138.79C356.414 138.79 354.983 138.358 353.892 137.492C352.838 136.626 352.18 135.46 351.916 133.992C351.69 132.487 351.916 130.793 352.594 128.911L356.997 116.492C357.561 115.024 357.674 113.82 357.336 112.879C357.035 111.938 356.357 111.468 355.303 111.468C354.475 111.468 353.685 111.788 352.932 112.427C352.217 113.03 351.521 113.97 350.844 115.25L349.771 117.282H347.569L348.868 114.855C350.11 112.484 351.446 110.772 352.876 109.718C354.344 108.626 356.037 108.081 357.957 108.081C359.725 108.081 361.137 108.513 362.19 109.379C363.282 110.245 363.94 111.411 364.166 112.879C364.43 114.347 364.204 116.04 363.489 117.96L359.086 130.379C358.559 131.847 358.446 133.051 358.747 133.992C359.086 134.933 359.782 135.403 360.836 135.403C362.492 135.403 363.978 134.142 365.295 131.621L366.311 129.645H368.513L367.271 132.016C365.992 134.425 364.637 136.156 363.207 137.21C361.776 138.263 360.102 138.79 358.182 138.79ZM362.586 102.774C361.381 102.774 360.384 102.398 359.594 101.645C358.803 100.892 358.408 99.9328 358.408 98.7661C358.408 97.5242 358.879 96.4704 359.819 95.6048C360.76 94.7392 361.889 94.3065 363.207 94.3065C364.411 94.3065 365.408 94.6828 366.199 95.4355C366.989 96.1505 367.384 97.0914 367.384 98.2581C367.384 99.5 366.914 100.573 365.973 101.476C365.032 102.341 363.903 102.774 362.586 102.774ZM400.206 138.79C398.437 138.79 397.045 138.395 396.029 137.605C395.012 136.777 394.373 135.629 394.109 134.161C393.883 132.656 394.053 130.925 394.617 128.968L397.553 118.468C398.155 116.21 398.211 114.497 397.722 113.331C397.233 112.126 396.217 111.524 394.674 111.524C393.432 111.524 392.265 111.901 391.174 112.653C390.082 113.406 389.085 114.535 388.182 116.04L387.843 114.742C389.123 112.522 390.59 110.866 392.246 109.774C393.94 108.645 395.803 108.081 397.835 108.081C400.695 108.081 402.709 109.097 403.875 111.129C405.042 113.161 405.155 115.89 404.214 119.315L401.109 130.435C400.658 131.978 400.582 133.202 400.883 134.105C401.184 134.97 401.843 135.403 402.859 135.403C403.687 135.403 404.459 135.083 405.174 134.444C405.926 133.804 406.641 132.863 407.319 131.621L408.335 129.645H410.537L409.295 132.016C408.542 133.409 407.714 134.613 406.811 135.629C405.945 136.645 404.967 137.435 403.875 138C402.784 138.527 401.561 138.79 400.206 138.79ZM375.706 138L381.746 116.492C382.16 114.949 382.217 113.726 381.916 112.823C381.652 111.919 380.994 111.468 379.94 111.468C379.112 111.468 378.34 111.788 377.625 112.427C376.91 113.067 376.214 114.008 375.537 115.25L374.464 117.282H372.262L373.561 114.855C374.276 113.425 375.085 112.22 375.988 111.242C376.891 110.226 377.889 109.454 378.98 108.927C380.072 108.363 381.295 108.081 382.649 108.081C384.418 108.081 385.792 108.495 386.77 109.323C387.787 110.151 388.408 111.298 388.633 112.766C388.897 114.234 388.765 115.946 388.238 117.903L382.593 138H375.706ZM424.007 151.492C421.486 151.492 419.265 151.21 417.346 150.645C415.464 150.081 413.996 149.29 412.943 148.274C411.889 147.258 411.362 146.073 411.362 144.718C411.362 143.099 412.115 141.556 413.62 140.089C415.163 138.659 417.365 137.417 420.225 136.363L421.354 137.153C420.112 137.906 419.133 138.828 418.418 139.919C417.741 141.011 417.402 142.14 417.402 143.306C417.402 145.075 418.155 146.487 419.66 147.54C421.203 148.594 423.254 149.121 425.814 149.121C427.62 149.121 429.201 148.82 430.555 148.218C431.948 147.616 433.039 146.769 433.83 145.677C434.62 144.586 435.015 143.363 435.015 142.008C435.015 140.691 434.62 139.712 433.83 139.073C433.039 138.47 431.816 138.169 430.16 138.169H424.741C422.784 138.169 421.222 137.774 420.055 136.984C418.926 136.156 418.362 135.046 418.362 133.653C418.362 132.449 418.814 131.263 419.717 130.097C420.62 128.892 421.994 127.613 423.838 126.258L424.797 126.935C424.045 127.613 423.499 128.215 423.16 128.742C422.859 129.231 422.709 129.72 422.709 130.21C422.709 130.849 422.972 131.339 423.499 131.677C424.064 132.016 424.929 132.185 426.096 132.185H432.136C434.846 132.185 436.953 132.825 438.459 134.105C439.964 135.384 440.717 137.172 440.717 139.468C440.717 141.801 440.002 143.871 438.572 145.677C437.141 147.484 435.166 148.895 432.644 149.911C430.123 150.965 427.244 151.492 424.007 151.492ZM427.62 127.782C424.76 127.782 422.502 127.03 420.846 125.524C419.228 123.981 418.418 121.892 418.418 119.258C418.418 117.113 418.926 115.212 419.943 113.556C420.996 111.863 422.426 110.527 424.233 109.548C426.039 108.57 428.09 108.081 430.386 108.081C433.209 108.081 435.429 108.852 437.047 110.395C438.703 111.938 439.531 114.046 439.531 116.718C439.531 118.825 439.004 120.726 437.951 122.419C436.935 124.075 435.523 125.392 433.717 126.371C431.948 127.312 429.916 127.782 427.62 127.782ZM427.733 125.581C428.561 125.581 429.332 125.317 430.047 124.79C430.762 124.226 431.383 123.473 431.91 122.532C432.475 121.554 432.908 120.462 433.209 119.258C433.51 118.016 433.66 116.737 433.66 115.419C433.66 113.726 433.359 112.446 432.757 111.581C432.193 110.715 431.346 110.282 430.217 110.282C429.389 110.282 428.617 110.546 427.902 111.073C427.187 111.599 426.547 112.315 425.983 113.218C425.456 114.121 425.042 115.175 424.741 116.379C424.44 117.583 424.289 118.863 424.289 120.218C424.289 121.987 424.59 123.323 425.193 124.226C425.795 125.129 426.641 125.581 427.733 125.581ZM445.233 116.492C444.555 116.492 444.01 116.323 443.596 115.984C443.219 115.608 443.031 115.099 443.031 114.46C443.031 114.046 443.107 113.651 443.257 113.274C443.445 112.898 443.615 112.54 443.765 112.202C443.953 111.863 444.047 111.562 444.047 111.298C444.047 110.96 443.916 110.715 443.652 110.565C443.426 110.414 443.05 110.339 442.523 110.339C441.733 110.339 440.924 110.527 440.096 110.903C439.305 111.28 438.534 111.825 437.781 112.54L437.104 111.581C438.045 110.452 439.08 109.586 440.209 108.984C441.338 108.382 442.542 108.081 443.822 108.081C445.327 108.081 446.512 108.476 447.378 109.266C448.281 110.019 448.733 111.035 448.733 112.315C448.733 113.519 448.394 114.516 447.717 115.306C447.039 116.097 446.211 116.492 445.233 116.492Z" fill="url(#paint1_linear_1052_1616)"/>
<defs>
<linearGradient id="paint0_linear_1052_1616" x1="191.5" y1="48.8182" x2="254.257" y2="-13.2109" gradientUnits="userSpaceOnUse">
<stop stop-color="#1D293D"/>
<stop offset="1" stop-color="#4D6EA3"/>
</linearGradient>
<linearGradient id="paint1_linear_1052_1616" x1="-20.5" y1="82.7954" x2="448.872" y2="126.352" gradientUnits="userSpaceOnUse">
<stop stop-color="#9FC2FC"/>
<stop offset="0.120192" stop-color="#4A699D"/>
<stop offset="0.462858" stop-color="#4A699D"/>
<stop offset="0.618628" stop-color="#FFF5C7"/>
<stop offset="0.661681" stop-color="#D5C578"/>
</linearGradient>
</defs>
</svg>
