<svg width="545" height="220" viewBox="0 0 545 220" fill="none" xmlns="http://www.w3.org/2000/svg">
<path d="M62.7 34.3V37.8L58.2 37.9V69H55L47.7 64C45.1 66.0667 42.2667 67.6667 39.2 68.8C36.2 69.9333 33.1333 70.5 30 70.5C24.1333 70.5 18.9667 69.1667 14.5 66.5C10.0333 63.7667 6.56667 59.9667 4.1 55.1C1.63333 50.1667 0.4 44.4667 0.4 38C0.4 31.8667 1.5 26.0667 3.7 20.6C5.96667 15.1333 8.83333 10.7667 12.3 7.5C15.7 5.3 19.3333 3.63333 23.2 2.5C27.1333 1.3 31 0.699997 34.8 0.699997C39.8667 0.699997 44.5 1.8 48.7 4C52.9667 6.13333 56.3333 9.13333 58.8 13L46.5 23.3C42.8333 17.1 38.6667 10.5 34 3.5C29.4 5.5 25.6333 9.2 22.7 14.6C19.7667 20 18.3 26.1333 18.3 33C18.3 41.4667 20.2 48.1333 24 53C27.8667 57.8 33.1333 60.2 39.8 60.2C40.8667 60.2 41.6667 60.1667 42.2 60.1V37.9L37.3 37.8V34.3H62.7ZM94.3133 37.7L93.9133 65.8L102.813 66.1V69H76.1133V66.1L79.8133 65.8L79.5133 30L75.7133 30.9L74.7133 27.9L90.5133 23L93.9133 33.7C96.1133 29.2333 98.5133 25.7667 101.113 23.3C102.58 22.7667 104.347 22.5 106.413 22.5C109.213 22.5 111.847 23 114.313 24L111.113 37C109.18 36.6 106.713 36.2333 103.713 35.9C100.713 35.5667 98.2466 35.3333 96.3133 35.2L94.3133 37.7ZM145.109 22.5C150.975 22.5 155.575 24.6333 158.909 28.9C162.309 33.1 163.975 38.8 163.909 46L136.309 46.9C136.775 50.8333 138.142 53.8333 140.409 55.9C142.675 57.9667 145.675 59 149.409 59C154.609 59 158.842 57.5667 162.109 54.7L163.909 56.3C161.575 60.7667 158.409 64.2667 154.409 66.8C150.475 69.2667 146.275 70.5 141.809 70.5C135.742 70.5 130.909 68.5 127.309 64.5C123.775 60.4333 122.009 54.9667 122.009 48.1C122.009 44.0333 122.809 40 124.409 36C126.075 32 128.175 28.6667 130.709 26C132.442 25 134.675 24.1667 137.409 23.5C140.142 22.8333 142.709 22.5 145.109 22.5ZM149.109 42.7C149.042 38.0333 148.375 34.3333 147.109 31.6C145.842 28.8667 144.042 27.2333 141.709 26.7C140.042 28.4333 138.675 30.8667 137.609 34C136.609 37.0667 136.109 40.2333 136.109 43.5V43.8L149.109 42.7ZM216.726 63.8L202.026 70.7C200.226 69.4333 198.992 67.7 198.326 65.5C195.926 66.9667 193.492 68.1667 191.026 69.1C188.626 70.0333 186.526 70.5 184.726 70.5C181.992 70.5 179.759 69.5333 178.026 67.6C176.292 65.6667 175.426 63.2 175.426 60.2C175.426 58.8667 175.559 57.4333 175.826 55.9C176.159 54.3 176.559 53.0333 177.026 52.1L198.226 48.7L198.426 45.8C198.559 42.8 197.926 40.4667 196.526 38.8C195.126 37.0667 192.859 36.2 189.726 36.2C188.326 36.2 186.859 36.3667 185.326 36.7C183.792 36.9667 182.492 37.3333 181.426 37.8L179.826 41.2L177.126 40.2L181.726 25.8C186.859 23.6 191.726 22.5 196.326 22.5C201.059 22.5 204.926 23.7667 207.926 26.3C210.926 28.7667 212.426 32.6667 212.426 38L212.326 40L211.326 53.5L211.126 57.1C211.126 58.3 211.226 59.2667 211.426 60C211.626 60.6667 211.959 61.3667 212.426 62.1L215.526 60.9L216.726 63.8ZM194.026 63.3C195.092 63.3 196.326 62.9 197.726 62.1L197.626 60L197.726 57.8L198.026 52.1L190.326 53.9C190.059 54.7667 189.926 55.9333 189.926 57.4C189.926 59.4 190.326 60.9 191.126 61.9C191.926 62.8333 192.892 63.3 194.026 63.3ZM258.523 61.1L246.323 69.9C241.389 69.9 237.789 68.7 235.523 66.3C233.323 63.8333 232.223 59.9 232.223 54.5V27.9H225.523V24.7C228.323 23.1667 231.356 21 234.623 18.2C237.956 15.3333 240.989 12.3333 243.723 9.2L247.023 10.2L246.523 24H258.223V28.2L246.323 28V51C246.323 54.2 246.923 56.5333 248.123 58C249.389 59.4667 251.056 60.2 253.123 60.2L256.823 58.1L258.523 61.1Z" fill="#293A56"/>
<path d="M327.121 42.66V58.74C327.121 59.86 327.381 60.68 327.901 61.2C328.461 61.68 329.381 61.92 330.661 61.92H334.561V69H329.281C322.201 69 318.661 65.56 318.661 58.68V42.66H314.701V35.76H318.661V27.54H327.121V35.76H334.561V42.66H327.121ZM364.722 35.28C367.242 35.28 369.482 35.84 371.442 36.96C373.402 38.04 374.922 39.66 376.002 41.82C377.122 43.94 377.682 46.5 377.682 49.5V69H369.282V50.64C369.282 48 368.622 45.98 367.302 44.58C365.982 43.14 364.182 42.42 361.902 42.42C359.582 42.42 357.742 43.14 356.382 44.58C355.062 45.98 354.402 48 354.402 50.64V69H346.002V24.6H354.402V39.9C355.482 38.46 356.922 37.34 358.722 36.54C360.522 35.7 362.522 35.28 364.722 35.28ZM395.33 31.8C393.85 31.8 392.61 31.34 391.61 30.42C390.65 29.46 390.17 28.28 390.17 26.88C390.17 25.48 390.65 24.32 391.61 23.4C392.61 22.44 393.85 21.96 395.33 21.96C396.81 21.96 398.03 22.44 398.99 23.4C399.99 24.32 400.49 25.48 400.49 26.88C400.49 28.28 399.99 29.46 398.99 30.42C398.03 31.34 396.81 31.8 395.33 31.8ZM399.47 35.76V69H391.07V35.76H399.47ZM431.59 35.28C435.55 35.28 438.75 36.54 441.19 39.06C443.63 41.54 444.85 45.02 444.85 49.5V69H436.45V50.64C436.45 48 435.79 45.98 434.47 44.58C433.15 43.14 431.35 42.42 429.07 42.42C426.75 42.42 424.91 43.14 423.55 44.58C422.23 45.98 421.57 48 421.57 50.64V69H413.17V35.76H421.57V39.9C422.69 38.46 424.11 37.34 425.83 36.54C427.59 35.7 429.51 35.28 431.59 35.28ZM471.258 35.22C473.738 35.22 475.918 35.72 477.798 36.72C479.678 37.68 481.158 38.94 482.238 40.5V35.76H490.698V69.24C490.698 72.32 490.078 75.06 488.838 77.46C487.598 79.9 485.738 81.82 483.258 83.22C480.778 84.66 477.778 85.38 474.258 85.38C469.538 85.38 465.658 84.28 462.618 82.08C459.618 79.88 457.918 76.88 457.518 73.08H465.858C466.298 74.6 467.238 75.8 468.678 76.68C470.158 77.6 471.938 78.06 474.018 78.06C476.458 78.06 478.438 77.32 479.958 75.84C481.478 74.4 482.238 72.2 482.238 69.24V64.08C481.158 65.64 479.658 66.94 477.738 67.98C475.858 69.02 473.698 69.54 471.258 69.54C468.458 69.54 465.898 68.82 463.578 67.38C461.258 65.94 459.418 63.92 458.058 61.32C456.738 58.68 456.078 55.66 456.078 52.26C456.078 48.9 456.738 45.92 458.058 43.32C459.418 40.72 461.238 38.72 463.518 37.32C465.838 35.92 468.418 35.22 471.258 35.22ZM482.238 52.38C482.238 50.34 481.838 48.6 481.038 47.16C480.238 45.68 479.158 44.56 477.798 43.8C476.438 43 474.978 42.6 473.418 42.6C471.858 42.6 470.418 42.98 469.098 43.74C467.778 44.5 466.698 45.62 465.858 47.1C465.058 48.54 464.658 50.26 464.658 52.26C464.658 54.26 465.058 56.02 465.858 57.54C466.698 59.02 467.778 60.16 469.098 60.96C470.458 61.76 471.898 62.16 473.418 62.16C474.978 62.16 476.438 61.78 477.798 61.02C479.158 60.22 480.238 59.1 481.038 57.66C481.838 56.18 482.238 54.42 482.238 52.38ZM517.022 69.54C514.302 69.54 511.862 69.06 509.702 68.1C507.542 67.1 505.822 65.76 504.542 64.08C503.302 62.4 502.622 60.54 502.502 58.5H510.962C511.122 59.78 511.742 60.84 512.822 61.68C513.942 62.52 515.322 62.94 516.962 62.94C518.562 62.94 519.802 62.62 520.682 61.98C521.602 61.34 522.062 60.52 522.062 59.52C522.062 58.44 521.502 57.64 520.382 57.12C519.302 56.56 517.562 55.96 515.162 55.32C512.682 54.72 510.642 54.1 509.042 53.46C507.482 52.82 506.122 51.84 504.962 50.52C503.842 49.2 503.282 47.42 503.282 45.18C503.282 43.34 503.802 41.66 504.842 40.14C505.922 38.62 507.442 37.42 509.402 36.54C511.402 35.66 513.742 35.22 516.422 35.22C520.382 35.22 523.542 36.22 525.902 38.22C528.262 40.18 529.562 42.84 529.802 46.2H521.762C521.642 44.88 521.082 43.84 520.082 43.08C519.122 42.28 517.822 41.88 516.182 41.88C514.662 41.88 513.482 42.16 512.642 42.72C511.842 43.28 511.442 44.06 511.442 45.06C511.442 46.18 512.002 47.04 513.122 47.64C514.242 48.2 515.982 48.78 518.342 49.38C520.742 49.98 522.722 50.6 524.282 51.24C525.842 51.88 527.182 52.88 528.302 54.24C529.462 55.56 530.062 57.32 530.102 59.52C530.102 61.44 529.562 63.16 528.482 64.68C527.442 66.2 525.922 67.4 523.922 68.28C521.962 69.12 519.662 69.54 517.022 69.54ZM20.86 110.28C23.38 110.28 25.62 110.84 27.58 111.96C29.54 113.04 31.06 114.66 32.14 116.82C33.26 118.94 33.82 121.5 33.82 124.5V144H25.42V125.64C25.42 123 24.76 120.98 23.44 119.58C22.12 118.14 20.32 117.42 18.04 117.42C15.72 117.42 13.88 118.14 12.52 119.58C11.2 120.98 10.54 123 10.54 125.64V144H2.14V99.6H10.54V114.9C11.62 113.46 13.06 112.34 14.86 111.54C16.66 110.7 18.66 110.28 20.86 110.28ZM45.048 127.26C45.048 123.9 45.708 120.92 47.028 118.32C48.388 115.72 50.208 113.72 52.488 112.32C54.808 110.92 57.388 110.22 60.228 110.22C62.708 110.22 64.868 110.72 66.708 111.72C68.588 112.72 70.088 113.98 71.208 115.5V110.76H79.668V144H71.208V139.14C70.128 140.7 68.628 142 66.708 143.04C64.828 144.04 62.648 144.54 60.168 144.54C57.368 144.54 54.808 143.82 52.488 142.38C50.208 140.94 48.388 138.92 47.028 136.32C45.708 133.68 45.048 130.66 45.048 127.26ZM71.208 127.38C71.208 125.34 70.808 123.6 70.008 122.16C69.208 120.68 68.128 119.56 66.768 118.8C65.408 118 63.948 117.6 62.388 117.6C60.828 117.6 59.388 117.98 58.068 118.74C56.748 119.5 55.668 120.62 54.828 122.1C54.028 123.54 53.628 125.26 53.628 127.26C53.628 129.26 54.028 131.02 54.828 132.54C55.668 134.02 56.748 135.16 58.068 135.96C59.428 136.76 60.868 137.16 62.388 137.16C63.948 137.16 65.408 136.78 66.768 136.02C68.128 135.22 69.208 134.1 70.008 132.66C70.808 131.18 71.208 129.42 71.208 127.38ZM101.672 115.56C102.752 114.04 104.232 112.78 106.112 111.78C108.032 110.74 110.212 110.22 112.652 110.22C115.492 110.22 118.052 110.92 120.332 112.32C122.652 113.72 124.472 115.72 125.792 118.32C127.152 120.88 127.832 123.86 127.832 127.26C127.832 130.66 127.152 133.68 125.792 136.32C124.472 138.92 122.652 140.94 120.332 142.38C118.052 143.82 115.492 144.54 112.652 144.54C110.212 144.54 108.052 144.04 106.172 143.04C104.332 142.04 102.832 140.78 101.672 139.26V159.84H93.272V110.76H101.672V115.56ZM119.252 127.26C119.252 125.26 118.832 123.54 117.992 122.1C117.192 120.62 116.112 119.5 114.752 118.74C113.432 117.98 111.992 117.6 110.432 117.6C108.912 117.6 107.472 118 106.112 118.8C104.792 119.56 103.712 120.68 102.872 122.16C102.072 123.64 101.672 125.38 101.672 127.38C101.672 129.38 102.072 131.12 102.872 132.6C103.712 134.08 104.792 135.22 106.112 136.02C107.472 136.78 108.912 137.16 110.432 137.16C111.992 137.16 113.432 136.76 114.752 135.96C116.112 135.16 117.192 134.02 117.992 132.54C118.832 131.06 119.252 129.3 119.252 127.26ZM147.736 115.56C148.816 114.04 150.296 112.78 152.176 111.78C154.096 110.74 156.276 110.22 158.716 110.22C161.556 110.22 164.116 110.92 166.396 112.32C168.716 113.72 170.536 115.72 171.856 118.32C173.216 120.88 173.896 123.86 173.896 127.26C173.896 130.66 173.216 133.68 171.856 136.32C170.536 138.92 168.716 140.94 166.396 142.38C164.116 143.82 161.556 144.54 158.716 144.54C156.276 144.54 154.116 144.04 152.236 143.04C150.396 142.04 148.896 140.78 147.736 139.26V159.84H139.336V110.76H147.736V115.56ZM165.316 127.26C165.316 125.26 164.896 123.54 164.056 122.1C163.256 120.62 162.176 119.5 160.816 118.74C159.496 117.98 158.056 117.6 156.496 117.6C154.976 117.6 153.536 118 152.176 118.8C150.856 119.56 149.776 120.68 148.936 122.16C148.136 123.64 147.736 125.38 147.736 127.38C147.736 129.38 148.136 131.12 148.936 132.6C149.776 134.08 150.856 135.22 152.176 136.02C153.536 136.78 154.976 137.16 156.496 137.16C158.056 137.16 159.496 136.76 160.816 135.96C162.176 135.16 163.256 134.02 164.056 132.54C164.896 131.06 165.316 129.3 165.316 127.26ZM216.3 126.66C216.3 127.86 216.22 128.94 216.06 129.9H191.76C191.96 132.3 192.8 134.18 194.28 135.54C195.76 136.9 197.58 137.58 199.74 137.58C202.86 137.58 205.08 136.24 206.4 133.56H215.46C214.5 136.76 212.66 139.4 209.94 141.48C207.22 143.52 203.88 144.54 199.92 144.54C196.72 144.54 193.84 143.84 191.28 142.44C188.76 141 186.78 138.98 185.34 136.38C183.94 133.78 183.24 130.78 183.24 127.38C183.24 123.94 183.94 120.92 185.34 118.32C186.74 115.72 188.7 113.72 191.22 112.32C193.74 110.92 196.64 110.22 199.92 110.22C203.08 110.22 205.9 110.9 208.38 112.26C210.9 113.62 212.84 115.56 214.2 118.08C215.6 120.56 216.3 123.42 216.3 126.66ZM207.6 124.26C207.56 122.1 206.78 120.38 205.26 119.1C203.74 117.78 201.88 117.12 199.68 117.12C197.6 117.12 195.84 117.76 194.4 119.04C193 120.28 192.14 122.02 191.82 124.26H207.6ZM246.251 110.28C250.211 110.28 253.411 111.54 255.851 114.06C258.291 116.54 259.511 120.02 259.511 124.5V144H251.111V125.64C251.111 123 250.451 120.98 249.131 119.58C247.811 118.14 246.011 117.42 243.731 117.42C241.411 117.42 239.571 118.14 238.211 119.58C236.891 120.98 236.231 123 236.231 125.64V144H227.831V110.76H236.231V114.9C237.351 113.46 238.771 112.34 240.491 111.54C242.251 110.7 244.171 110.28 246.251 110.28ZM338.676 110.76L328.956 144H319.896L313.836 120.78L307.776 144H298.656L288.876 110.76H297.396L303.276 136.08L309.636 110.76H318.516L324.756 136.02L330.636 110.76H338.676ZM367.341 110.28C369.861 110.28 372.101 110.84 374.061 111.96C376.021 113.04 377.541 114.66 378.621 116.82C379.741 118.94 380.301 121.5 380.301 124.5V144H371.901V125.64C371.901 123 371.241 120.98 369.921 119.58C368.601 118.14 366.801 117.42 364.521 117.42C362.201 117.42 360.361 118.14 359.001 119.58C357.681 120.98 357.021 123 357.021 125.64V144H348.621V99.6H357.021V114.9C358.101 113.46 359.541 112.34 361.341 111.54C363.141 110.7 365.141 110.28 367.341 110.28ZM424.589 126.66C424.589 127.86 424.509 128.94 424.349 129.9H400.049C400.249 132.3 401.089 134.18 402.569 135.54C404.049 136.9 405.869 137.58 408.029 137.58C411.149 137.58 413.369 136.24 414.689 133.56H423.749C422.789 136.76 420.949 139.4 418.229 141.48C415.509 143.52 412.169 144.54 408.209 144.54C405.009 144.54 402.129 143.84 399.569 142.44C397.049 141 395.069 138.98 393.629 136.38C392.229 133.78 391.529 130.78 391.529 127.38C391.529 123.94 392.229 120.92 393.629 118.32C395.029 115.72 396.989 113.72 399.509 112.32C402.029 110.92 404.929 110.22 408.209 110.22C411.369 110.22 414.189 110.9 416.669 112.26C419.189 113.62 421.129 115.56 422.489 118.08C423.889 120.56 424.589 123.42 424.589 126.66ZM415.889 124.26C415.849 122.1 415.069 120.38 413.549 119.1C412.029 117.78 410.169 117.12 407.969 117.12C405.889 117.12 404.129 117.76 402.689 119.04C401.289 120.28 400.429 122.02 400.109 124.26H415.889ZM454.54 110.28C458.5 110.28 461.7 111.54 464.14 114.06C466.58 116.54 467.8 120.02 467.8 124.5V144H459.4V125.64C459.4 123 458.74 120.98 457.42 119.58C456.1 118.14 454.3 117.42 452.02 117.42C449.7 117.42 447.86 118.14 446.5 119.58C445.18 120.98 444.52 123 444.52 125.64V144H436.12V110.76H444.52V114.9C445.64 113.46 447.06 112.34 448.78 111.54C450.54 110.7 452.46 110.28 454.54 110.28ZM10.54 174.6V219H2.14V174.6H10.54ZM38.9992 219.54C35.7992 219.54 32.9192 218.84 30.3592 217.44C27.7992 216 25.7792 213.98 24.2992 211.38C22.8592 208.78 22.1392 205.78 22.1392 202.38C22.1392 198.98 22.8792 195.98 24.3592 193.38C25.8792 190.78 27.9392 188.78 30.5392 187.38C33.1392 185.94 36.0392 185.22 39.2392 185.22C42.4392 185.22 45.3392 185.94 47.9392 187.38C50.5392 188.78 52.5792 190.78 54.0592 193.38C55.5792 195.98 56.3392 198.98 56.3392 202.38C56.3392 205.78 55.5592 208.78 53.9992 211.38C52.4792 213.98 50.3992 216 47.7592 217.44C45.1592 218.84 42.2392 219.54 38.9992 219.54ZM38.9992 212.22C40.5192 212.22 41.9392 211.86 43.2592 211.14C44.6192 210.38 45.6992 209.26 46.4992 207.78C47.2992 206.3 47.6992 204.5 47.6992 202.38C47.6992 199.22 46.8592 196.8 45.1792 195.12C43.5392 193.4 41.5192 192.54 39.1192 192.54C36.7192 192.54 34.6992 193.4 33.0592 195.12C31.4592 196.8 30.6592 199.22 30.6592 202.38C30.6592 205.54 31.4392 207.98 32.9992 209.7C34.5992 211.38 36.5992 212.22 38.9992 212.22ZM65.7409 202.38C65.7409 198.94 66.4409 195.94 67.8409 193.38C69.2409 190.78 71.1809 188.78 73.6609 187.38C76.1409 185.94 78.9809 185.22 82.1809 185.22C86.3009 185.22 89.7009 186.26 92.3809 188.34C95.1009 190.38 96.9209 193.26 97.8409 196.98H88.7809C88.3009 195.54 87.4809 194.42 86.3209 193.62C85.2009 192.78 83.8009 192.36 82.1209 192.36C79.7209 192.36 77.8209 193.24 76.4209 195C75.0209 196.72 74.3209 199.18 74.3209 202.38C74.3209 205.54 75.0209 208 76.4209 209.76C77.8209 211.48 79.7209 212.34 82.1209 212.34C85.5209 212.34 87.7409 210.82 88.7809 207.78H97.8409C96.9209 211.38 95.1009 214.24 92.3809 216.36C89.6609 218.48 86.2609 219.54 82.1809 219.54C78.9809 219.54 76.1409 218.84 73.6609 217.44C71.1809 216 69.2409 214 67.8409 211.44C66.4409 208.84 65.7409 205.82 65.7409 202.38ZM107.235 202.26C107.235 198.9 107.895 195.92 109.215 193.32C110.575 190.72 112.395 188.72 114.675 187.32C116.995 185.92 119.575 185.22 122.415 185.22C124.895 185.22 127.055 185.72 128.895 186.72C130.775 187.72 132.275 188.98 133.395 190.5V185.76H141.855V219H133.395V214.14C132.315 215.7 130.815 217 128.895 218.04C127.015 219.04 124.835 219.54 122.355 219.54C119.555 219.54 116.995 218.82 114.675 217.38C112.395 215.94 110.575 213.92 109.215 211.32C107.895 208.68 107.235 205.66 107.235 202.26ZM133.395 202.38C133.395 200.34 132.995 198.6 132.195 197.16C131.395 195.68 130.315 194.56 128.955 193.8C127.595 193 126.135 192.6 124.575 192.6C123.015 192.6 121.575 192.98 120.255 193.74C118.935 194.5 117.855 195.62 117.015 197.1C116.215 198.54 115.815 200.26 115.815 202.26C115.815 204.26 116.215 206.02 117.015 207.54C117.855 209.02 118.935 210.16 120.255 210.96C121.615 211.76 123.055 212.16 124.575 212.16C126.135 212.16 127.595 211.78 128.955 211.02C130.315 210.22 131.395 209.1 132.195 207.66C132.995 206.18 133.395 204.42 133.395 202.38ZM163.859 174.6V219H155.459V174.6H163.859ZM190.278 219.54C187.558 219.54 185.118 219.06 182.958 218.1C180.798 217.1 179.078 215.76 177.798 214.08C176.558 212.4 175.878 210.54 175.758 208.5H184.218C184.378 209.78 184.998 210.84 186.078 211.68C187.198 212.52 188.578 212.94 190.218 212.94C191.818 212.94 193.058 212.62 193.938 211.98C194.858 211.34 195.318 210.52 195.318 209.52C195.318 208.44 194.758 207.64 193.638 207.12C192.558 206.56 190.818 205.96 188.418 205.32C185.938 204.72 183.898 204.1 182.298 203.46C180.738 202.82 179.378 201.84 178.218 200.52C177.098 199.2 176.538 197.42 176.538 195.18C176.538 193.34 177.058 191.66 178.098 190.14C179.178 188.62 180.698 187.42 182.658 186.54C184.658 185.66 186.998 185.22 189.678 185.22C193.638 185.22 196.798 186.22 199.158 188.22C201.518 190.18 202.818 192.84 203.058 196.2H195.018C194.898 194.88 194.338 193.84 193.338 193.08C192.378 192.28 191.078 191.88 189.438 191.88C187.918 191.88 186.738 192.16 185.898 192.72C185.098 193.28 184.698 194.06 184.698 195.06C184.698 196.18 185.258 197.04 186.378 197.64C187.498 198.2 189.238 198.78 191.598 199.38C193.998 199.98 195.978 200.6 197.538 201.24C199.098 201.88 200.438 202.88 201.558 204.24C202.718 205.56 203.318 207.32 203.358 209.52C203.358 211.44 202.818 213.16 201.738 214.68C200.698 216.2 199.178 217.4 197.178 218.28C195.218 219.12 192.918 219.54 190.278 219.54Z" fill="#1D293D"/>
<path d="M280.697 209.468C279.407 209.468 278.181 209.258 277.02 208.839C275.859 208.419 274.746 207.935 273.681 207.387C272.617 206.806 271.552 206.306 270.488 205.887C269.456 205.468 268.423 205.258 267.391 205.258C266.262 205.258 265.23 205.565 264.294 206.177C263.391 206.79 262.536 207.726 261.73 208.984L260.52 208.355C261.649 205.516 263.085 203.339 264.826 201.823C266.601 200.306 268.568 199.548 270.73 199.548C272.02 199.548 273.23 199.758 274.359 200.177C275.52 200.597 276.633 201.097 277.697 201.677C278.794 202.226 279.859 202.71 280.891 203.129C281.923 203.548 282.956 203.758 283.988 203.758C285.181 203.758 286.246 203.452 287.181 202.839C288.117 202.226 288.956 201.29 289.697 200.032L290.956 200.661C289.826 203.5 288.375 205.677 286.601 207.194C284.859 208.71 282.891 209.468 280.697 209.468ZM306.024 219.677C302.766 219.677 300.201 218.774 298.33 216.968C296.459 215.161 295.524 212.694 295.524 209.565C295.524 207.339 295.975 205.242 296.879 203.274C297.782 201.306 299.024 199.565 300.604 198.048C302.185 196.532 303.991 195.355 306.024 194.516C308.088 193.645 310.266 193.21 312.556 193.21C314.943 193.21 316.83 193.677 318.217 194.613C319.604 195.516 320.298 196.758 320.298 198.339C320.298 199.403 319.991 200.403 319.379 201.339C318.766 202.274 317.975 203.032 317.008 203.613C316.072 204.194 315.056 204.484 313.959 204.484C313.024 204.484 312.298 204.29 311.782 203.903C311.266 203.484 311.008 202.903 311.008 202.161C311.008 201.452 311.217 200.839 311.637 200.323C312.088 199.806 312.588 199.339 313.137 198.919C313.717 198.5 314.217 198.081 314.637 197.661C315.088 197.242 315.314 196.774 315.314 196.258C315.314 195.484 314.766 195.097 313.669 195.097C312.54 195.097 311.427 195.484 310.33 196.258C309.266 197.032 308.298 198.081 307.427 199.403C306.556 200.694 305.862 202.177 305.346 203.855C304.862 205.5 304.621 207.194 304.621 208.935C304.621 211.065 305.04 212.758 305.879 214.016C306.75 215.242 308.024 215.855 309.701 215.855C310.991 215.855 312.137 215.548 313.137 214.935C314.169 214.29 315.104 213.29 315.943 211.935H317.782C316.427 214.548 314.782 216.5 312.846 217.79C310.943 219.048 308.669 219.677 306.024 219.677ZM334.77 219.677C331.383 219.677 328.754 218.79 326.883 217.016C325.012 215.21 324.077 212.677 324.077 209.419C324.077 207.161 324.496 205.065 325.335 203.129C326.206 201.161 327.399 199.435 328.915 197.952C330.464 196.468 332.238 195.306 334.238 194.468C336.27 193.629 338.448 193.21 340.77 193.21C344.19 193.21 346.835 194.113 348.706 195.919C350.577 197.694 351.512 200.226 351.512 203.516C351.512 205.742 351.077 207.839 350.206 209.806C349.367 211.742 348.174 213.452 346.625 214.935C345.109 216.419 343.335 217.581 341.303 218.419C339.303 219.258 337.125 219.677 334.77 219.677ZM335.303 217.79C336.012 217.79 336.706 217.468 337.383 216.823C338.093 216.145 338.754 215.226 339.367 214.065C340.012 212.903 340.577 211.581 341.061 210.097C341.545 208.613 341.915 207.048 342.174 205.403C342.464 203.758 342.609 202.145 342.609 200.565C342.609 198.758 342.415 197.403 342.028 196.5C341.641 195.565 341.061 195.097 340.286 195.097C339.577 195.097 338.867 195.435 338.157 196.113C337.48 196.758 336.819 197.677 336.174 198.871C335.561 200.032 335.012 201.355 334.528 202.839C334.045 204.323 333.657 205.887 333.367 207.532C333.109 209.145 332.98 210.758 332.98 212.371C332.98 214.177 333.174 215.532 333.561 216.435C333.98 217.339 334.561 217.79 335.303 217.79ZM380.849 219.677C379.01 219.677 377.526 219.306 376.397 218.565C375.3 217.823 374.574 216.742 374.22 215.323C373.897 213.903 374.01 212.194 374.558 210.194L377.22 200.661C377.607 199.274 377.655 198.226 377.365 197.516C377.107 196.774 376.526 196.403 375.623 196.403C374.816 196.403 374.058 196.661 373.349 197.177C372.639 197.694 372.01 198.435 371.462 199.403L370.639 198.581C371.703 196.806 372.978 195.468 374.462 194.565C375.945 193.661 377.623 193.21 379.494 193.21C382.236 193.21 384.139 194.113 385.203 195.919C386.3 197.694 386.429 200.113 385.591 203.177L382.978 212.516C382.623 213.806 382.574 214.79 382.832 215.468C383.091 216.145 383.655 216.484 384.526 216.484C385.236 216.484 385.897 216.242 386.51 215.758C387.123 215.242 387.703 214.468 388.252 213.435L389.123 211.839H391.01L389.897 213.871C389.22 215.194 388.429 216.29 387.526 217.161C386.623 218 385.623 218.629 384.526 219.048C383.429 219.468 382.203 219.677 380.849 219.677ZM357.623 219L362.849 200.371C363.203 199.081 363.236 198.097 362.945 197.419C362.687 196.742 362.123 196.403 361.252 196.403C360.574 196.403 359.929 196.645 359.316 197.129C358.703 197.613 358.123 198.387 357.574 199.452L356.703 201.048H354.816L355.881 199.016C356.591 197.694 357.381 196.613 358.252 195.774C359.155 194.903 360.171 194.258 361.3 193.839C362.429 193.419 363.655 193.21 364.978 193.21C366.816 193.21 368.3 193.597 369.429 194.371C370.558 195.113 371.284 196.194 371.607 197.613C371.929 199.032 371.8 200.726 371.22 202.694L366.671 219H357.623ZM418.318 219.677C416.479 219.677 414.996 219.306 413.867 218.565C412.77 217.823 412.044 216.742 411.689 215.323C411.367 213.903 411.479 212.194 412.028 210.194L414.689 200.661C415.076 199.274 415.125 198.226 414.834 197.516C414.576 196.774 413.996 196.403 413.092 196.403C412.286 196.403 411.528 196.661 410.818 197.177C410.108 197.694 409.479 198.435 408.931 199.403L408.108 198.581C409.173 196.806 410.447 195.468 411.931 194.565C413.415 193.661 415.092 193.21 416.963 193.21C419.705 193.21 421.608 194.113 422.673 195.919C423.77 197.694 423.899 200.113 423.06 203.177L420.447 212.516C420.092 213.806 420.044 214.79 420.302 215.468C420.56 216.145 421.125 216.484 421.996 216.484C422.705 216.484 423.367 216.242 423.979 215.758C424.592 215.242 425.173 214.468 425.721 213.435L426.592 211.839H428.479L427.367 213.871C426.689 215.194 425.899 216.29 424.996 217.161C424.092 218 423.092 218.629 421.996 219.048C420.899 219.468 419.673 219.677 418.318 219.677ZM395.092 219L400.318 200.371C400.673 199.081 400.705 198.097 400.415 197.419C400.157 196.742 399.592 196.403 398.721 196.403C398.044 196.403 397.399 196.645 396.786 197.129C396.173 197.613 395.592 198.387 395.044 199.452L394.173 201.048H392.286L393.35 199.016C394.06 197.694 394.85 196.613 395.721 195.774C396.625 194.903 397.641 194.258 398.77 193.839C399.899 193.419 401.125 193.21 402.447 193.21C404.286 193.21 405.77 193.597 406.899 194.371C408.028 195.113 408.754 196.194 409.076 197.613C409.399 199.032 409.27 200.726 408.689 202.694L404.141 219H395.092ZM442.249 219.677C438.991 219.677 436.427 218.774 434.556 216.968C432.685 215.161 431.749 212.694 431.749 209.565C431.749 207.339 432.201 205.242 433.104 203.274C434.008 201.306 435.249 199.565 436.83 198.048C438.411 196.532 440.233 195.355 442.298 194.516C444.362 193.645 446.556 193.21 448.879 193.21C451.298 193.21 453.153 193.677 454.443 194.613C455.733 195.516 456.379 196.823 456.379 198.532C456.379 200.242 455.717 201.871 454.395 203.419C453.104 204.935 451.266 206.29 448.879 207.484C446.524 208.677 443.766 209.597 440.604 210.242V208.694C442.572 207.855 444.233 206.839 445.588 205.645C446.943 204.419 447.975 203.113 448.685 201.726C449.427 200.339 449.798 198.968 449.798 197.613C449.798 196.71 449.653 196.048 449.362 195.629C449.104 195.21 448.749 195 448.298 195C447.427 195 446.556 195.419 445.685 196.258C444.814 197.065 444.008 198.145 443.266 199.5C442.556 200.823 441.975 202.29 441.524 203.903C441.072 205.516 440.846 207.113 440.846 208.694C440.846 211.048 441.266 212.839 442.104 214.065C442.975 215.258 444.249 215.855 445.927 215.855C447.217 215.855 448.379 215.548 449.411 214.935C450.443 214.29 451.379 213.29 452.217 211.935H454.056C452.701 214.548 451.056 216.5 449.12 217.79C447.217 219.048 444.927 219.677 442.249 219.677ZM471.106 219.677C467.848 219.677 465.283 218.774 463.412 216.968C461.541 215.161 460.606 212.694 460.606 209.565C460.606 207.339 461.057 205.242 461.961 203.274C462.864 201.306 464.106 199.565 465.686 198.048C467.267 196.532 469.073 195.355 471.106 194.516C473.17 193.645 475.348 193.21 477.638 193.21C480.025 193.21 481.912 193.677 483.299 194.613C484.686 195.516 485.38 196.758 485.38 198.339C485.38 199.403 485.073 200.403 484.461 201.339C483.848 202.274 483.057 203.032 482.09 203.613C481.154 204.194 480.138 204.484 479.041 204.484C478.106 204.484 477.38 204.29 476.864 203.903C476.348 203.484 476.09 202.903 476.09 202.161C476.09 201.452 476.299 200.839 476.719 200.323C477.17 199.806 477.67 199.339 478.219 198.919C478.799 198.5 479.299 198.081 479.719 197.661C480.17 197.242 480.396 196.774 480.396 196.258C480.396 195.484 479.848 195.097 478.751 195.097C477.622 195.097 476.509 195.484 475.412 196.258C474.348 197.032 473.38 198.081 472.509 199.403C471.638 200.694 470.944 202.177 470.428 203.855C469.944 205.5 469.703 207.194 469.703 208.935C469.703 211.065 470.122 212.758 470.961 214.016C471.832 215.242 473.106 215.855 474.783 215.855C476.073 215.855 477.219 215.548 478.219 214.935C479.251 214.29 480.186 213.29 481.025 211.935H482.864C481.509 214.548 479.864 216.5 477.928 217.79C476.025 219.048 473.751 219.677 471.106 219.677ZM498.108 219.677C495.14 219.677 493.027 218.823 491.769 217.113C490.543 215.371 490.35 213.016 491.188 210.048L497.576 187.21C499.414 187.242 501.076 187.161 502.559 186.968C504.076 186.774 505.543 186.468 506.963 186.048L499.559 212.516C499.172 213.806 499.14 214.79 499.463 215.468C499.785 216.145 500.446 216.484 501.446 216.484C502.285 216.484 503.027 216.242 503.672 215.758C504.317 215.242 504.93 214.452 505.511 213.387L506.334 211.839H508.221L506.817 214.452C506.205 215.613 505.463 216.581 504.592 217.355C503.753 218.129 502.801 218.71 501.737 219.097C500.672 219.484 499.463 219.677 498.108 219.677ZM489.543 195.774L490.076 193.887H511.753L511.221 195.774H489.543ZM534.516 209.468C533.226 209.468 532 209.258 530.839 208.839C529.677 208.419 528.565 207.935 527.5 207.387C526.436 206.806 525.371 206.306 524.307 205.887C523.274 205.468 522.242 205.258 521.21 205.258C520.081 205.258 519.048 205.565 518.113 206.177C517.21 206.79 516.355 207.726 515.548 208.984L514.339 208.355C515.468 205.516 516.903 203.339 518.645 201.823C520.419 200.306 522.387 199.548 524.548 199.548C525.839 199.548 527.048 199.758 528.177 200.177C529.339 200.597 530.452 201.097 531.516 201.677C532.613 202.226 533.677 202.71 534.71 203.129C535.742 203.548 536.774 203.758 537.807 203.758C539 203.758 540.065 203.452 541 202.839C541.936 202.226 542.774 201.29 543.516 200.032L544.774 200.661C543.645 203.5 542.194 205.677 540.419 207.194C538.677 208.71 536.71 209.468 534.516 209.468Z" fill="url(#paint0_linear_1716_3243)"/>
<defs>
<linearGradient id="paint0_linear_1716_3243" x1="555.919" y1="171.104" x2="197.198" y2="241.571" gradientUnits="userSpaceOnUse">
<stop stop-color="#1D293D"/>
<stop offset="1" stop-color="#F7ECB8"/>
</linearGradient>
</defs>
</svg>
