<svg width="1013" height="72" viewBox="0 0 1013 72" fill="none" xmlns="http://www.w3.org/2000/svg">
<path d="M9.36 61V10.6H25.2C30.768 10.6 35.616 11.656 39.744 13.768C43.872 15.88 47.088 18.832 49.392 22.624C51.696 26.368 52.848 30.76 52.848 35.8C52.848 40.84 51.696 45.256 49.392 49.048C47.088 52.792 43.872 55.72 39.744 57.832C35.616 59.944 30.768 61 25.2 61H9.36ZM25.2 12.328H14.256V59.272H25.2C32.16 59.272 37.584 57.208 41.472 53.08C45.408 48.952 47.376 43.192 47.376 35.8C47.376 28.408 45.408 22.648 41.472 18.52C37.584 14.392 32.16 12.328 25.2 12.328ZM69.4406 61V10.6H74.3366V61H69.4406ZM90.1136 59.416L90.5456 55.096H90.9776C92.8496 56.728 94.9616 58 97.3136 58.912C99.6656 59.824 101.994 60.28 104.298 60.28C107.562 60.28 110.202 59.392 112.218 57.616C114.234 55.792 115.242 53.368 115.242 50.344C115.242 48.664 114.858 47.104 114.09 45.664C113.37 44.224 112.146 42.76 110.418 41.272C108.738 39.784 106.41 38.176 103.434 36.448C101.37 35.248 99.4016 34 97.5296 32.704C95.6576 31.36 94.1216 29.824 92.9216 28.096C91.7216 26.32 91.1216 24.208 91.1216 21.76C91.1216 18.112 92.4416 15.184 95.0816 12.976C97.7216 10.72 101.202 9.592 105.522 9.592C107.442 9.592 109.506 9.808 111.714 10.24C113.922 10.624 115.626 11.128 116.826 11.752L116.466 15.784H116.034C113.298 12.808 109.794 11.32 105.522 11.32C102.45 11.32 99.9776 12.112 98.1056 13.696C96.2336 15.232 95.2976 17.32 95.2976 19.96C95.2976 21.928 95.8016 23.632 96.8096 25.072C97.8656 26.464 99.2096 27.736 100.842 28.888C102.474 29.992 104.226 31.072 106.098 32.128C108.258 33.376 110.346 34.696 112.362 36.088C114.426 37.48 116.106 39.16 117.402 41.128C118.746 43.048 119.418 45.472 119.418 48.4C119.418 51.088 118.794 53.464 117.546 55.528C116.298 57.544 114.522 59.128 112.218 60.28C109.962 61.432 107.322 62.008 104.298 62.008C102.378 62.008 100.122 61.768 97.5296 61.288C94.9376 60.808 92.4656 60.184 90.1136 59.416ZM175.215 54.808L174.783 59.2C173.439 59.776 171.807 60.28 169.887 60.712C167.967 61.144 166.023 61.456 164.055 61.648C162.087 61.888 160.335 62.008 158.799 62.008C154.911 62.008 151.311 61.36 147.999 60.064C144.687 58.72 141.783 56.872 139.287 54.52C136.839 52.168 134.919 49.408 133.527 46.24C132.135 43.024 131.439 39.544 131.439 35.8C131.439 32.056 132.135 28.6 133.527 25.432C134.919 22.216 136.839 19.432 139.287 17.08C141.783 14.728 144.687 12.904 147.999 11.608C151.311 10.264 154.911 9.592 158.799 9.592C160.383 9.592 162.159 9.712 164.127 9.952C166.095 10.192 168.015 10.528 169.887 10.96C171.759 11.344 173.343 11.8 174.639 12.328L174.279 16.36H173.847C172.071 14.728 169.839 13.48 167.151 12.616C164.463 11.752 161.679 11.32 158.799 11.32C154.479 11.32 150.663 12.352 147.351 14.416C144.087 16.432 141.519 19.288 139.647 22.984C137.823 26.632 136.911 30.904 136.911 35.8C136.911 40.744 137.823 45.04 139.647 48.688C141.519 52.336 144.087 55.192 147.351 57.256C150.615 59.272 154.431 60.28 158.799 60.28C162.063 60.28 165.087 59.752 167.871 58.696C170.703 57.64 173.007 56.344 174.783 54.808H175.215ZM186.036 35.8C186.036 32.104 186.684 28.672 187.98 25.504C189.324 22.288 191.172 19.504 193.524 17.152C195.924 14.752 198.708 12.904 201.876 11.608C205.092 10.264 208.548 9.592 212.244 9.592C215.94 9.592 219.372 10.264 222.54 11.608C225.756 12.904 228.54 14.752 230.892 17.152C233.292 19.504 235.14 22.288 236.436 25.504C237.78 28.672 238.452 32.104 238.452 35.8C238.452 39.496 237.78 42.952 236.436 46.168C235.14 49.336 233.292 52.12 230.892 54.52C228.54 56.872 225.756 58.72 222.54 60.064C219.372 61.36 215.94 62.008 212.244 62.008C208.548 62.008 205.092 61.36 201.876 60.064C198.708 58.72 195.924 56.872 193.524 54.52C191.172 52.12 189.324 49.336 187.98 46.168C186.684 42.952 186.036 39.496 186.036 35.8ZM191.508 35.8C191.508 40.696 192.372 44.992 194.1 48.688C195.828 52.336 198.252 55.192 201.372 57.256C204.492 59.272 208.116 60.28 212.244 60.28C216.372 60.28 219.996 59.272 223.116 57.256C226.236 55.192 228.66 52.312 230.388 48.616C232.116 44.92 232.98 40.648 232.98 35.8C232.98 30.952 232.116 26.704 230.388 23.056C228.66 19.36 226.236 16.48 223.116 14.416C219.996 12.352 216.372 11.32 212.244 11.32C208.116 11.32 204.492 12.352 201.372 14.416C198.3 16.432 195.876 19.288 194.1 22.984C192.372 26.632 191.508 30.904 191.508 35.8ZM247.231 10.6H252.631L272.287 55.384H272.719L289.207 10.6H294.607L271.711 62.008H270.127L247.231 10.6ZM307.266 61V10.6H329.226V14.128L316.626 12.472C314.418 12.184 312.93 12.04 312.162 12.04V34C312.786 34 314.274 33.928 316.626 33.784L328.434 33.064V36.376L316.626 35.656C314.274 35.512 312.786 35.44 312.162 35.44V59.56C313.026 59.56 314.538 59.416 316.698 59.128L329.442 57.472V61H307.266ZM345.971 10.6H355.619C360.707 10.6 364.643 11.68 367.427 13.84C370.259 15.952 371.675 18.928 371.675 22.768C371.675 25.744 370.787 28.216 369.011 30.184C367.283 32.152 364.763 33.472 361.451 34.144V34.576C364.619 35.2 367.211 36.688 369.227 39.04C371.243 41.392 372.755 44.296 373.763 47.752C374.675 50.92 375.563 53.392 376.427 55.168C377.339 56.896 378.323 58.144 379.379 58.912C380.483 59.68 381.779 60.232 383.267 60.568V61H380.315C378.203 61 376.451 60.616 375.059 59.848C373.715 59.08 372.563 57.784 371.603 55.96C370.643 54.136 369.731 51.616 368.867 48.4C367.475 43.456 365.627 39.952 363.323 37.888C361.019 35.824 358.211 34.792 354.899 34.792H354.467V33.496H354.899C362.627 33.496 366.491 29.944 366.491 22.84C366.491 15.832 362.867 12.328 355.619 12.328H350.867V61H345.971V10.6Z" fill="white"/>
<path d="M412.004 32.2676C412.041 31.0578 412.294 29.7037 412.658 28.3634C413.34 25.851 414.413 23.3615 415.194 21.9142L415.346 21.6388L415.485 21.4033C416.13 20.3439 418.98 15.9537 423.454 13.2358L423.656 13.1148C425.76 11.8756 428.341 10.946 430.827 10.4379C433.31 9.93056 435.72 9.83898 437.475 10.2957L437.643 10.3419C437.986 10.4406 438.094 10.8312 437.914 11.103L437.874 11.1559C436.929 12.2543 435.637 13.7394 434.481 15.2234C433.394 16.6201 432.443 17.9975 432.011 19.0422L431.931 19.2465C430.903 22.089 430.367 25.6851 425.652 31.0144L425.424 31.2697C423.461 33.4491 421.056 34.82 418.781 35.493C416.512 36.1645 414.353 36.1465 412.889 35.52L412.827 35.4883C412.767 35.4522 412.716 35.4037 412.676 35.3444L412.628 35.2699C412.137 34.4917 411.97 33.4356 412.004 32.2676ZM412.719 33.9032C412.701 34.2245 412.704 34.5073 412.74 34.7231C412.758 34.8301 412.787 34.9372 412.835 35.0279C412.885 35.1194 412.971 35.2211 413.111 35.2579C413.132 35.2636 413.155 35.2665 413.177 35.2665C416.318 35.2664 418.944 34.495 421.124 33.286L421.37 33.1466C422.592 32.4393 423.668 31.5953 424.612 30.6781L424.826 30.4662C425.887 29.4002 426.775 28.2434 427.51 27.0911L427.654 26.8635C428.362 25.7252 428.923 24.5958 429.358 23.5666L429.542 23.1196C429.952 22.0931 430.233 21.184 430.404 20.4909L430.461 20.2762C430.766 19.1927 431.378 17.9467 432.103 16.7145L432.307 16.3734C432.758 15.6304 433.24 14.9038 433.708 14.2343C433.761 14.1593 433.82 14.0898 433.887 14.0266L437.019 11.038C437.178 10.8869 437.092 10.6196 436.876 10.5883C434.999 10.3162 433.587 10.5254 432.347 10.7657L431.825 10.8692C431.194 10.9959 430.569 11.1502 429.954 11.3312L429.691 11.4105C428.765 11.6956 427.859 12.0412 426.979 12.4433L426.603 12.619C425.666 13.0682 424.759 13.5824 423.888 14.1562L423.517 14.406C422.271 15.2618 421.102 16.242 420.03 17.3317L419.816 17.5511C418.741 18.6722 417.765 19.9057 416.908 21.2359L416.738 21.5031C415.915 22.8172 415.207 24.2234 414.632 25.707L414.519 26.0047C414.002 27.3914 413.423 29.5865 413.063 31.457C412.883 32.3919 412.755 33.2561 412.719 33.9032ZM431.476 13.5827C431.351 13.5509 431.336 13.3947 431.446 13.328C432.586 12.6364 433.832 12.1087 434.85 11.7407C435.105 11.6486 435.292 11.9606 435.096 12.1474L433.477 13.6922C433.475 13.6939 433.473 13.6947 433.47 13.6948C433.409 13.6989 433.319 13.7043 433.21 13.7085C432.991 13.7168 432.695 13.7208 432.383 13.7047C432.069 13.6885 431.747 13.6521 431.476 13.5827ZM431.967 12.4292C431.649 12.5976 431.323 12.3173 431.519 12.0151C431.657 11.8032 431.795 11.6248 431.899 11.4997C431.971 11.4125 432.073 11.3554 432.184 11.3333C432.934 11.1839 433.722 11.0383 434.629 10.9972C434.783 10.9902 434.817 11.1945 434.672 11.2468C433.866 11.5382 432.91 11.9308 431.967 12.4292ZM429.112 15.8219C428.821 15.7176 428.78 15.365 429.008 15.1568C429.366 14.8311 429.743 14.5214 430.13 14.2287C430.467 13.9739 430.936 13.9867 431.346 14.0912C431.665 14.1727 432.025 14.2119 432.356 14.229C432.652 14.2443 432.833 14.5798 432.669 14.8273C432.41 15.2174 432.152 15.62 431.903 16.0284C431.8 16.1982 431.61 16.2969 431.412 16.276C431.117 16.2448 430.718 16.195 430.303 16.1205C429.887 16.0458 429.463 15.9477 429.112 15.8219ZM427.278 19.3838C426.748 19.1532 426.537 18.5431 426.783 18.0204C427.022 17.5131 427.33 17.0282 427.689 16.5671C427.971 16.2054 428.503 16.1614 428.934 16.316C429.325 16.4558 429.782 16.5602 430.211 16.6373C430.642 16.7146 431.053 16.7658 431.357 16.7979C431.398 16.8022 431.421 16.8467 431.401 16.8826C430.82 17.9105 430.319 18.9552 430.021 19.9128C429.983 20.036 429.86 20.1145 429.733 20.0907C429.452 20.0377 429.065 19.9567 428.644 19.8449C428.187 19.7239 427.706 19.5704 427.278 19.3838ZM428.633 14.7885C428.553 14.8624 428.431 14.7959 428.462 14.691C428.575 14.3113 428.778 13.8658 429.006 13.4337C429.232 13.0039 429.477 12.5973 429.666 12.2977C429.76 12.1482 429.84 12.0258 429.897 11.9409C429.92 11.9052 429.956 11.8791 429.997 11.8668C430.324 11.7686 430.654 11.678 430.986 11.5954C431.063 11.5764 431.122 11.663 431.079 11.729C430.861 12.0647 430.629 12.5005 430.521 12.9673C430.467 13.1995 430.35 13.4179 430.156 13.5573C429.634 13.934 429.118 14.3448 428.633 14.7885ZM426.245 22.8426C425.504 22.6512 425.251 21.8157 425.572 21.1205C425.577 21.1096 425.582 21.0986 425.587 21.0877C425.966 20.2614 427.027 19.8944 427.892 20.1725C428.103 20.2402 428.311 20.3 428.509 20.3524C428.946 20.4684 429.346 20.5521 429.636 20.6067C429.737 20.6256 429.801 20.7246 429.773 20.8228C429.606 21.4173 429.37 22.1321 429.056 22.92C428.988 23.0881 428.823 23.196 428.642 23.1866C428.345 23.171 427.932 23.14 427.474 23.0779C427.078 23.0243 426.655 22.9485 426.245 22.8426ZM426.094 17.3693C426.103 16.7384 426.201 16.0367 426.331 15.3766C426.46 14.7178 426.619 14.1075 426.746 13.6616C426.809 13.439 426.865 13.2575 426.904 13.1323C426.921 13.0768 426.961 13.0313 427.014 13.0067C427.344 12.8524 427.677 12.7062 428.014 12.5683C428.388 12.4151 428.73 12.8311 428.541 13.189C428.308 13.6324 428.086 14.1135 427.959 14.5423C427.896 14.7565 427.853 14.9689 427.848 15.163C427.844 15.3859 427.799 15.6196 427.653 15.7875C427.201 16.3043 426.803 16.8568 426.487 17.4436C426.38 17.6422 426.091 17.5949 426.094 17.3693ZM424.003 26.1266C423.391 25.8484 423.326 25.0855 423.688 24.519C423.793 24.3539 423.897 24.1878 424 24.0208C424.404 23.3634 425.258 23.1184 426.003 23.3214C426.481 23.4518 426.967 23.5391 427.403 23.5981C427.88 23.6625 428.307 23.6947 428.614 23.7108C428.666 23.7135 428.699 23.7662 428.678 23.8134C428.313 24.6297 427.869 25.4983 427.337 26.3752C427.217 26.5735 427.002 26.6947 426.77 26.6875C426.453 26.6776 426.018 26.6479 425.544 26.5699C425.03 26.4855 424.489 26.3471 424.003 26.1266ZM421.221 29.4464C420.707 29.22 420.658 28.586 421.016 28.1542C421.273 27.8458 421.526 27.5313 421.776 27.2112C422.3 26.5401 423.318 26.442 424.115 26.7406C424.568 26.9102 425.035 27.0184 425.459 27.088C425.962 27.1706 426.421 27.2016 426.754 27.2121C426.775 27.2127 426.787 27.2362 426.775 27.2539C426.092 28.2674 425.288 29.2714 424.349 30.1993C424.339 30.2092 424.325 30.214 424.311 30.2123C424.218 30.2008 424.082 30.1828 423.916 30.1576C423.584 30.1071 423.132 30.0276 422.651 29.9109C422.168 29.7939 421.662 29.641 421.221 29.4464ZM423.76 17.6225C423.749 16.8062 423.791 16.0639 423.835 15.5256C423.857 15.2566 423.88 15.0388 423.897 14.8889C423.906 14.8156 423.946 14.7499 424.007 14.7088C424.696 14.2455 425.41 13.8209 426.143 13.4376C426.197 13.4095 426.258 13.4597 426.241 13.5181C426.112 13.9732 425.949 14.5981 425.816 15.2754C425.683 15.9514 425.579 16.6873 425.569 17.3621C425.564 17.7533 425.591 18.1378 425.669 18.4834C425.751 18.8454 425.79 19.2296 425.656 19.5759C425.572 19.7939 425.484 20.012 425.392 20.2291C425.082 20.964 424.154 20.9353 423.999 20.1529C423.835 19.3257 423.771 18.4397 423.76 17.6225ZM420.275 17.9814C420.272 17.8889 420.307 17.7993 420.372 17.7332C421.219 16.8684 422.129 16.0738 423.09 15.3573C423.186 15.2853 423.322 15.3624 423.312 15.4825C423.266 16.0326 423.224 16.7923 423.235 17.6297C423.246 18.4663 423.311 19.3863 423.484 20.255C423.585 20.7672 423.725 21.2677 423.917 21.7256C424.115 22.1996 424.147 22.7465 423.887 23.1897C423.756 23.4129 423.622 23.6343 423.486 23.8539C423.054 24.5516 422.102 24.6669 421.689 23.9578C421.586 23.7818 421.49 23.597 421.401 23.405C421.034 22.6153 420.784 21.723 420.615 20.8784C420.446 20.0349 420.36 19.2465 420.315 18.6686C420.293 18.38 420.281 18.1442 420.275 17.9814ZM418.498 31.9887C418.122 31.7993 418.102 31.3145 418.4 31.0176C418.672 30.746 418.945 30.4662 419.218 30.1785C419.663 29.7091 420.417 29.6661 421.009 29.9269C421.489 30.1386 422.027 30.2997 422.527 30.4208C423.027 30.542 423.495 30.6247 423.837 30.6767C423.841 30.6772 423.842 30.6815 423.839 30.6837C422.987 31.4596 422.033 32.1694 420.967 32.7711C420.957 32.7772 420.944 32.7793 420.932 32.7768C420.859 32.7621 420.754 32.7397 420.624 32.7098C420.366 32.6499 420.012 32.5599 419.633 32.4391C419.253 32.3181 418.852 32.1678 418.498 31.9887ZM417.251 21.8541C417.238 21.7573 417.26 21.6592 417.313 21.577C417.984 20.5286 418.731 19.5413 419.543 18.6231C419.626 18.5285 419.782 18.583 419.792 18.709C419.837 19.3012 419.926 20.1114 420.1 20.9813C420.274 21.85 420.534 22.7861 420.925 23.6264C421.082 23.9642 421.261 24.2893 421.467 24.5896C421.885 25.2009 422.017 26.0357 421.567 26.6236C421.323 26.9418 421.075 27.2547 420.824 27.5618C420.353 28.1389 419.498 28.2085 419.086 27.5873C418.962 27.399 418.844 27.1977 418.732 26.9862C418.344 26.249 418.045 25.4074 417.82 24.6079C417.595 23.8096 417.445 23.06 417.352 22.5096C417.305 22.2346 417.272 22.0096 417.251 21.8541ZM415.631 34.5709C415.31 34.6165 415.137 34.1811 415.377 33.9637C415.742 33.6331 416.117 33.2628 416.494 32.8855C416.587 32.7927 416.68 32.6995 416.773 32.6063C417.157 32.223 417.777 32.2129 418.261 32.4573C418.649 32.6532 419.078 32.8132 419.474 32.9391C419.734 33.022 419.767 33.3828 419.516 33.4904C418.344 33.9936 417.052 34.3684 415.631 34.5709ZM415.066 26.1889C415.05 26.1361 415.052 26.0796 415.072 26.0281C415.531 24.8223 416.08 23.6683 416.708 22.5741C416.74 22.5185 416.823 22.5341 416.834 22.5974C416.93 23.1604 417.083 23.9293 417.314 24.7504C417.545 25.5705 417.856 26.4498 418.268 27.2309C418.383 27.4502 418.507 27.6634 418.641 27.8664C419.084 28.5374 419.167 29.4766 418.609 30.0555C418.576 30.0902 418.543 30.1249 418.509 30.1594C417.955 30.7309 417.038 30.6829 416.643 29.9917C416.301 29.394 416 28.7361 415.751 28.1232C415.518 27.5481 415.334 27.0224 415.209 26.6407C415.146 26.45 415.098 26.2954 415.066 26.1889ZM413.258 34.6363C413.232 34.4783 413.225 34.2415 413.243 33.9329C413.278 33.3202 413.4 32.4822 413.579 31.5561C413.778 30.5197 414.045 29.3854 414.33 28.3504C414.455 27.8965 415.088 27.8845 415.265 28.3207C415.543 29.0052 415.895 29.7734 416.311 30.463C416.698 31.1064 416.67 31.9669 416.139 32.4979C416.134 32.5033 416.128 32.5086 416.123 32.514C415.745 32.8917 415.379 33.254 415.025 33.5748C414.397 34.143 413.841 34.5456 413.354 34.6943C413.31 34.7075 413.265 34.6811 413.258 34.6363Z" fill="#D5C578"/>
<path d="M434.273 61.9955C433.063 61.9594 431.709 61.7054 430.368 61.3418C427.855 60.6601 425.365 59.5863 423.917 58.8056L423.642 58.6536L423.406 58.5138C422.347 57.8687 417.955 55.0178 415.237 50.5431L415.116 50.3412C413.876 48.2368 412.947 45.6548 412.438 43.1678C411.931 40.6846 411.839 38.2744 412.296 36.5184L412.342 36.3506C412.441 36.007 412.832 35.8993 413.104 36.0796L413.156 36.1192C414.255 37.0644 415.741 38.3574 417.225 39.5131C418.622 40.6008 420 41.5519 421.045 41.9843L421.249 42.0639C424.092 43.0927 427.689 43.6285 433.02 48.345L433.275 48.5726C435.455 50.5359 436.826 52.9423 437.499 55.2173C438.171 57.4872 438.153 59.6467 437.527 61.1108L437.495 61.173C437.459 61.2324 437.41 61.2837 437.351 61.3237L437.276 61.3722C436.498 61.8629 435.442 62.0304 434.273 61.9955ZM435.909 61.2809C436.231 61.2991 436.514 61.2959 436.729 61.2598C436.836 61.2418 436.944 61.2133 437.034 61.1644C437.126 61.115 437.228 61.0292 437.264 60.8893C437.27 60.8675 437.273 60.8448 437.273 60.8223C437.273 57.6812 436.501 55.0546 435.292 52.8746L435.152 52.6282C434.445 51.4057 433.601 50.3292 432.683 49.3853L432.471 49.1707C431.405 48.1098 430.248 47.2219 429.096 46.4859L428.868 46.3423C427.729 45.6343 426.6 45.0727 425.57 44.6373L425.123 44.4535C424.096 44.0433 423.187 43.7628 422.494 43.5909L422.279 43.5342C421.195 43.2293 419.949 42.6174 418.716 41.8917L418.376 41.688C417.632 41.2372 416.905 40.7546 416.236 40.2866C416.161 40.2341 416.091 40.1742 416.028 40.1079L413.039 36.9746C412.887 36.8161 412.62 36.9014 412.589 37.1181C412.317 38.9953 412.526 40.4075 412.766 41.6477L412.87 42.1696C412.996 42.8014 413.151 43.4258 413.332 44.0413L413.411 44.3045C413.696 45.231 414.042 46.1368 414.444 47.0169L414.62 47.3925C415.069 48.3302 415.583 49.2377 416.157 50.1088L416.407 50.4799C417.263 51.7265 418.244 52.8953 419.334 53.9682L419.553 54.1814C420.675 55.2576 421.908 56.2339 423.239 57.0911L423.506 57.2609C424.821 58.0839 426.227 58.792 427.711 59.3671L428.009 59.4803C429.396 59.9976 431.592 60.5765 433.462 60.9368C434.398 61.1169 435.262 61.2443 435.909 61.2809ZM415.584 42.5195C415.552 42.6441 415.396 42.6594 415.329 42.5495C414.637 41.4083 414.11 40.1618 413.741 39.1437C413.649 38.8893 413.961 38.7026 414.148 38.8984L415.694 40.5185C415.695 40.5201 415.696 40.5222 415.696 40.5244C415.7 40.5861 415.705 40.6756 415.71 40.7848C415.718 41.0037 415.722 41.2999 415.706 41.6122C415.69 41.9262 415.653 42.2476 415.584 42.5195ZM414.43 42.0275C414.599 42.3465 414.318 42.672 414.016 42.4754C413.804 42.3378 413.625 42.2 413.5 42.0964C413.413 42.0241 413.356 41.9222 413.334 41.811C413.184 41.0608 413.039 40.2719 412.998 39.3652C412.991 39.2114 413.195 39.1777 413.247 39.3224C413.539 40.1284 413.932 41.0847 414.43 42.0275ZM417.824 44.8841C417.719 45.175 417.367 45.2156 417.158 44.9873C416.833 44.6301 416.523 44.2532 416.23 43.8658C415.975 43.5282 415.988 43.0589 416.092 42.649C416.174 42.3299 416.213 41.9704 416.23 41.6395C416.246 41.3427 416.582 41.1618 416.829 41.3261C417.219 41.5849 417.622 41.8425 418.03 42.0915C418.2 42.1951 418.299 42.3853 418.278 42.5831C418.247 42.8784 418.197 43.2769 418.122 43.6917C418.048 44.108 417.949 44.5328 417.824 44.8841ZM421.386 46.7189C421.155 47.2489 420.545 47.4595 420.022 47.213C419.515 46.974 419.03 46.6659 418.569 46.307C418.207 46.0253 418.163 45.493 418.318 45.0614C418.458 44.671 418.562 44.2138 418.639 43.7843C418.717 43.3533 418.768 42.9417 418.8 42.6384C418.804 42.5975 418.849 42.5742 418.885 42.5945C419.913 43.1754 420.957 43.6758 421.915 43.9736C422.039 44.012 422.117 44.1351 422.093 44.2621C422.04 44.5437 421.959 44.9309 421.848 45.3523C421.726 45.8087 421.573 46.2899 421.386 46.7189ZM416.79 45.3627C416.864 45.4434 416.798 45.5644 416.693 45.5334C416.313 45.4212 415.867 45.2175 415.435 44.9897C415.005 44.7631 414.599 44.5182 414.299 44.3294C414.149 44.2352 414.027 44.1553 413.942 44.0991C413.906 44.0755 413.88 44.0402 413.868 43.9993C413.769 43.6714 413.679 43.341 413.596 43.0082C413.577 42.9317 413.664 42.8727 413.73 42.9156C414.065 43.1335 414.501 43.3659 414.967 43.4739C415.2 43.5277 415.418 43.6455 415.558 43.8391C415.935 44.3619 416.346 44.8778 416.79 45.3627ZM424.846 47.7513C424.655 48.4927 423.819 48.7451 423.123 48.4247C423.112 48.4196 423.101 48.4146 423.09 48.4095C422.264 48.0304 421.897 46.97 422.175 46.1048C422.243 45.8935 422.303 45.6849 422.355 45.4869C422.471 45.05 422.555 44.6498 422.61 44.3591C422.628 44.2589 422.727 44.1949 422.826 44.2225C423.42 44.3895 424.135 44.6253 424.923 44.94C425.092 45.0071 425.2 45.1729 425.19 45.3536C425.175 45.6511 425.143 46.0635 425.081 46.5224C425.028 46.9183 424.952 47.341 424.846 47.7513ZM419.371 47.9021C418.74 47.8934 418.038 47.7952 417.378 47.6656C416.719 47.5363 416.109 47.3772 415.663 47.2504C415.44 47.187 415.259 47.1317 415.133 47.0925C415.078 47.0751 415.032 47.035 415.008 46.9824C414.853 46.6524 414.707 46.3188 414.569 45.9817C414.416 45.6073 414.832 45.2655 415.19 45.4541C415.634 45.6879 416.115 45.9101 416.544 46.0368C416.758 46.1001 416.97 46.1429 417.164 46.1472C417.387 46.1521 417.621 46.1966 417.789 46.3433C418.306 46.7949 418.859 47.1928 419.446 47.5091C419.645 47.6163 419.597 47.9052 419.371 47.9021ZM428.131 49.9934C427.853 50.6058 427.089 50.6714 426.522 50.3091C426.357 50.2036 426.191 50.0995 426.024 49.9968C425.367 49.5931 425.122 48.7389 425.325 47.9949C425.455 47.5162 425.543 47.0292 425.602 46.5928C425.666 46.1164 425.698 45.6893 425.714 45.3813C425.717 45.3297 425.77 45.2966 425.817 45.3177C426.633 45.683 427.502 46.1268 428.379 46.6586C428.578 46.7789 428.699 46.9944 428.692 47.2264C428.682 47.5431 428.652 47.9782 428.574 48.4526C428.49 48.9664 428.351 49.5081 428.131 49.9934ZM431.451 52.7772C431.225 53.2912 430.591 53.3405 430.159 52.9814C429.85 52.7248 429.535 52.471 429.215 52.2209C428.544 51.6972 428.446 50.6794 428.745 49.8826C428.914 49.4294 429.023 48.9619 429.092 48.5377C429.175 48.0348 429.206 47.5759 429.217 47.2428C429.217 47.2214 429.241 47.2089 429.259 47.2209C430.272 47.9042 431.276 48.7085 432.204 49.6475C432.214 49.6576 432.219 49.6716 432.217 49.6857C432.206 49.7793 432.188 49.9148 432.163 50.0807C432.112 50.413 432.033 50.8653 431.916 51.3469C431.799 51.8296 431.646 52.3354 431.451 52.7772ZM419.625 50.2373C418.808 50.2483 418.066 50.2068 417.527 50.1624C417.258 50.1402 417.04 50.1171 416.89 50.0999C416.817 50.0915 416.751 50.0513 416.71 49.9901C416.247 49.3002 415.822 48.5866 415.439 47.8526C415.411 47.799 415.461 47.7386 415.519 47.7551C415.974 47.8846 416.599 48.0477 417.277 48.1806C417.953 48.3133 418.689 48.4178 419.364 48.427C419.755 48.4324 420.14 48.406 420.485 48.3276C420.848 48.2453 421.233 48.2067 421.579 48.3407C421.797 48.4248 422.015 48.5128 422.232 48.6044C422.967 48.9149 422.939 49.8431 422.156 49.9984C421.328 50.1624 420.442 50.2262 419.625 50.2373ZM419.984 53.7231C419.891 53.7266 419.802 53.6915 419.736 53.6269C418.871 52.7785 418.076 51.8689 417.359 50.9073C417.287 50.8106 417.364 50.6754 417.484 50.6853C418.034 50.7307 418.794 50.7735 419.632 50.7622C420.469 50.7509 421.389 50.6857 422.258 50.5134C422.77 50.4118 423.27 50.2719 423.728 50.0802C424.202 49.8817 424.75 49.8498 425.193 50.1101C425.417 50.2414 425.639 50.3752 425.859 50.5116C426.556 50.9438 426.672 51.8947 425.963 52.3082C425.787 52.4111 425.601 52.5072 425.408 52.5967C424.619 52.9638 423.726 53.2137 422.881 53.3827C422.038 53.5516 421.249 53.6382 420.671 53.6828C420.382 53.7051 420.146 53.717 419.984 53.7231ZM433.994 55.5009C433.805 55.8762 433.32 55.8965 433.023 55.5989C432.752 55.3266 432.472 55.0535 432.184 54.7809C431.714 54.3355 431.671 53.5811 431.932 52.9887C432.144 52.5082 432.305 51.97 432.426 51.4706C432.547 50.9701 432.63 50.5021 432.682 50.1597C432.683 50.1564 432.687 50.1552 432.689 50.1576C433.465 51.0098 434.175 51.9644 434.777 53.0304C434.783 53.0412 434.785 53.0538 434.783 53.0659C434.768 53.1386 434.746 53.2442 434.716 53.3735C434.656 53.6325 434.566 53.9861 434.445 54.3653C434.324 54.7453 434.173 55.1459 433.994 55.5009ZM423.857 56.7476C423.76 56.7606 423.662 56.7387 423.58 56.6861C422.531 56.0146 421.544 55.2678 420.625 54.4554C420.531 54.3716 420.585 54.2161 420.711 54.2064C421.304 54.1606 422.114 54.0715 422.984 53.8974C423.853 53.7235 424.789 53.4632 425.63 53.0724C425.968 52.9155 426.293 52.736 426.593 52.5306C427.205 52.1122 428.04 51.9803 428.628 52.431C428.947 52.6751 429.26 52.9231 429.567 53.1743C430.144 53.6455 430.214 54.4995 429.593 54.9112C429.405 55.0363 429.203 55.1547 428.991 55.2665C428.253 55.655 427.411 55.9537 426.612 56.1789C425.813 56.4038 425.063 56.5535 424.513 56.6471C424.238 56.6939 424.013 56.7267 423.857 56.7476ZM436.577 58.3685C436.623 58.6891 436.187 58.8622 435.97 58.6221C435.639 58.2569 435.269 57.8828 434.891 57.5053C434.799 57.4125 434.705 57.3194 434.612 57.226C434.229 56.842 434.218 56.2219 434.463 55.7374C434.659 55.349 434.819 54.92 434.945 54.5245C435.028 54.2646 435.389 54.2309 435.496 54.4816C436 55.6548 436.375 56.947 436.577 58.3685ZM428.193 58.9335C428.14 58.9494 428.084 58.9472 428.032 58.9276C426.826 58.4681 425.672 57.9193 424.577 57.291C424.522 57.259 424.537 57.1757 424.601 57.1649C425.164 57.0691 425.933 56.9153 426.754 56.6841C427.575 56.4531 428.454 56.1426 429.235 55.7309C429.455 55.6154 429.668 55.491 429.871 55.3572C430.542 54.9145 431.482 54.8313 432.061 55.3892C432.096 55.4229 432.131 55.4566 432.165 55.4903C432.737 56.0445 432.689 56.9604 431.998 57.3555C431.4 57.6976 430.741 57.9989 430.128 58.2479C429.553 58.4814 429.027 58.6652 428.645 58.7906C428.454 58.8532 428.3 58.9012 428.193 58.9335ZM436.643 60.742C436.485 60.7684 436.248 60.7745 435.939 60.757C435.326 60.7224 434.488 60.5999 433.562 60.4214C432.525 60.2218 431.39 59.9545 430.355 59.6695C429.901 59.5444 429.889 58.9114 430.325 58.7342C431.01 58.4563 431.778 58.1035 432.468 57.6882C433.112 57.3005 433.973 57.3288 434.504 57.8601C434.509 57.8655 434.514 57.8708 434.52 57.8761C434.898 58.2541 435.26 58.6197 435.581 58.9741C436.149 59.602 436.552 60.1584 436.701 60.6462C436.714 60.6897 436.687 60.7345 436.643 60.742Z" fill="#D5C578"/>
<path d="M441.727 10.0045C442.937 10.0406 444.291 10.2946 445.632 10.6582C448.145 11.3399 450.635 12.4137 452.083 13.1944L452.358 13.3464L452.594 13.4862C453.653 14.1313 458.045 16.9822 460.763 21.4569L460.884 21.6588C462.124 23.7632 463.053 26.3452 463.562 28.8322C464.069 31.3154 464.161 33.7256 463.704 35.4816L463.658 35.6494C463.559 35.993 463.168 36.1007 462.896 35.9204L462.844 35.8808C461.745 34.9356 460.259 33.6426 458.775 32.4869C457.378 31.3992 456 30.4481 454.955 30.0157L454.751 29.936C451.908 28.9073 448.311 28.3715 442.98 23.655L442.725 23.4274C440.545 21.4641 439.174 19.0577 438.501 16.7827C437.829 14.5129 437.847 12.3533 438.473 10.8892L438.505 10.8271C438.541 10.7676 438.59 10.7163 438.649 10.6763L438.724 10.6278C439.502 10.1371 440.558 9.96957 441.727 10.0045ZM440.091 10.7191C439.769 10.7009 439.486 10.7041 439.271 10.7402C439.164 10.7582 439.056 10.7867 438.966 10.8356C438.874 10.885 438.772 10.9708 438.736 11.1107C438.73 11.1325 438.727 11.1552 438.727 11.1777C438.727 14.3188 439.499 16.9454 440.708 19.1254L440.848 19.3718C441.555 20.5943 442.399 21.6708 443.317 22.6147L443.529 22.8293C444.595 23.8902 445.752 24.7781 446.904 25.5141L447.132 25.6577C448.271 26.3657 449.4 26.9273 450.43 27.3627L450.877 27.5465C451.904 27.9567 452.813 28.2372 453.506 28.4091L453.721 28.4658C454.805 28.7707 456.051 29.3826 457.284 30.1083L457.624 30.312C458.368 30.7628 459.095 31.2454 459.764 31.7134C459.839 31.7659 459.909 31.8258 459.972 31.8921L462.961 35.0254C463.113 35.1839 463.38 35.0986 463.411 34.8819C463.683 33.0047 463.474 31.5925 463.234 30.3523L463.13 29.8305C463.004 29.1986 462.849 28.5742 462.668 27.9587L462.589 27.6955C462.304 26.769 461.958 25.8632 461.556 24.9831L461.38 24.6075C460.931 23.6698 460.417 22.7623 459.843 21.8912L459.593 21.5201C458.737 20.2735 457.756 19.1047 456.666 18.0318L456.447 17.8186C455.325 16.7424 454.092 15.7661 452.761 14.9089L452.494 14.7391C451.179 13.9161 449.773 13.208 448.289 12.6329L447.991 12.5197C446.604 12.0024 444.408 11.4235 442.538 11.0632C441.602 10.8831 440.738 10.7557 440.091 10.7191ZM460.416 29.4805C460.448 29.3559 460.604 29.3406 460.671 29.4505C461.363 30.5917 461.891 31.8382 462.259 32.8563C462.351 33.1107 462.039 33.2974 461.852 33.1016L460.306 31.4815C460.305 31.4799 460.304 31.4778 460.304 31.4756C460.3 31.4139 460.295 31.3244 460.29 31.2152C460.282 30.9963 460.278 30.7001 460.294 30.3878C460.31 30.0738 460.347 29.7524 460.416 29.4805ZM461.57 29.9725C461.401 29.6536 461.682 29.3281 461.984 29.5246C462.196 29.6622 462.375 29.8 462.5 29.9036C462.587 29.9759 462.644 30.0778 462.666 30.189C462.816 30.9392 462.961 31.7281 463.002 32.6348C463.009 32.7886 462.805 32.8223 462.753 32.6776C462.461 31.8716 462.068 30.9153 461.57 29.9725ZM458.176 27.1159C458.281 26.825 458.633 26.7844 458.842 27.0127C459.167 27.3699 459.477 27.7468 459.77 28.1342C460.025 28.4718 460.012 28.9411 459.908 29.351C459.826 29.6701 459.787 30.0296 459.77 30.3605C459.754 30.6573 459.418 30.8382 459.171 30.6739C458.781 30.4151 458.378 30.1575 457.97 29.9085C457.8 29.8049 457.701 29.6147 457.722 29.4169C457.753 29.1216 457.803 28.7231 457.878 28.3083C457.952 27.892 458.051 27.4672 458.176 27.1159ZM454.614 25.2811C454.845 24.7511 455.455 24.5405 455.978 24.787C456.485 25.026 456.97 25.3341 457.431 25.693C457.793 25.9747 457.837 26.507 457.682 26.9386C457.542 27.329 457.438 27.7862 457.361 28.2157C457.283 28.6467 457.232 29.0583 457.2 29.3616C457.196 29.4025 457.151 29.4258 457.115 29.4055C456.087 28.8246 455.043 28.3242 454.085 28.0264C453.961 27.988 453.883 27.8649 453.907 27.7379C453.96 27.4563 454.041 27.0691 454.152 26.6477C454.274 26.1913 454.427 25.7101 454.614 25.2811ZM459.21 26.6373C459.136 26.5566 459.202 26.4356 459.307 26.4666C459.687 26.5788 460.133 26.7825 460.565 27.0103C460.995 27.2369 461.401 27.4818 461.701 27.6706C461.851 27.7648 461.973 27.8447 462.058 27.9009C462.094 27.9245 462.12 27.9598 462.132 28.0007C462.231 28.3286 462.321 28.659 462.404 28.9918C462.423 29.0683 462.336 29.1273 462.27 29.0844C461.935 28.8665 461.499 28.6341 461.033 28.5261C460.8 28.4723 460.582 28.3545 460.442 28.1609C460.065 27.6381 459.654 27.1222 459.21 26.6373ZM451.154 24.2487C451.345 23.5073 452.181 23.2549 452.877 23.5753C452.888 23.5804 452.899 23.5854 452.91 23.5905C453.736 23.9696 454.103 25.03 453.825 25.8952C453.757 26.1065 453.697 26.3151 453.645 26.5131C453.529 26.95 453.445 27.3502 453.39 27.6409C453.372 27.7411 453.273 27.8051 453.174 27.7775C452.58 27.6105 451.865 27.3747 451.077 27.06C450.908 26.9929 450.8 26.8271 450.81 26.6464C450.825 26.3489 450.857 25.9365 450.919 25.4776C450.972 25.0817 451.048 24.659 451.154 24.2487ZM456.629 24.0979C457.26 24.1066 457.962 24.2048 458.622 24.3344C459.281 24.4637 459.891 24.6228 460.337 24.7496C460.56 24.813 460.741 24.8683 460.867 24.9075C460.922 24.9249 460.968 24.965 460.992 25.0177C461.147 25.3476 461.293 25.6812 461.431 26.0183C461.584 26.3927 461.168 26.7345 460.81 26.5459C460.366 26.3121 459.885 26.0899 459.456 25.9632C459.242 25.8999 459.03 25.8571 458.836 25.8528C458.613 25.8479 458.379 25.8034 458.211 25.6567C457.694 25.2051 457.141 24.8072 456.554 24.4909C456.355 24.3837 456.403 24.0948 456.629 24.0979ZM447.869 22.0066C448.147 21.3942 448.911 21.3286 449.478 21.6909C449.643 21.7964 449.809 21.9005 449.976 22.0032C450.633 22.4069 450.878 23.2611 450.675 24.0051C450.545 24.4838 450.457 24.9708 450.398 25.4072C450.334 25.8836 450.302 26.3107 450.286 26.6187C450.283 26.6703 450.23 26.7034 450.183 26.6823C449.367 26.317 448.498 25.8732 447.621 25.3414C447.422 25.2211 447.301 25.0056 447.308 24.7736C447.318 24.4569 447.348 24.0218 447.426 23.5474C447.51 23.0336 447.649 22.4919 447.869 22.0066ZM444.549 19.2228C444.775 18.7088 445.409 18.6595 445.841 19.0186C446.15 19.2752 446.465 19.529 446.785 19.7791C447.456 20.3028 447.554 21.3206 447.255 22.1174C447.086 22.5706 446.977 23.0381 446.908 23.4623C446.825 23.9652 446.794 24.4241 446.783 24.7572C446.783 24.7786 446.759 24.7911 446.741 24.7791C445.728 24.0958 444.724 23.2915 443.796 22.3525C443.786 22.3424 443.781 22.3284 443.783 22.3143C443.794 22.2207 443.812 22.0852 443.837 21.9193C443.888 21.587 443.967 21.1347 444.084 20.6531C444.201 20.1704 444.354 19.6646 444.549 19.2228ZM456.375 21.7627C457.192 21.7517 457.934 21.7932 458.473 21.8376C458.742 21.8598 458.96 21.8829 459.11 21.9001C459.183 21.9085 459.249 21.9487 459.29 22.0099C459.753 22.6998 460.178 23.4134 460.561 24.1474C460.589 24.201 460.539 24.2614 460.481 24.2449C460.026 24.1154 459.401 23.9523 458.723 23.8194C458.047 23.6867 457.311 23.5822 456.636 23.573C456.245 23.5676 455.86 23.594 455.515 23.6724C455.152 23.7547 454.767 23.7933 454.421 23.6593C454.203 23.5752 453.985 23.4872 453.768 23.3956C453.033 23.0851 453.061 22.1569 453.844 22.0016C454.672 21.8376 455.558 21.7738 456.375 21.7627ZM456.016 18.2769C456.109 18.2734 456.198 18.3085 456.264 18.3731C457.129 19.2215 457.924 20.1311 458.641 21.0927C458.713 21.1894 458.636 21.3246 458.516 21.3147C457.966 21.2693 457.206 21.2265 456.368 21.2378C455.531 21.2491 454.611 21.3143 453.742 21.4866C453.23 21.5881 452.73 21.7282 452.272 21.9198C451.798 22.1183 451.25 22.1502 450.807 21.89C450.583 21.7586 450.361 21.6248 450.141 21.4884C449.444 21.0562 449.328 20.1053 450.037 19.6918C450.213 19.5889 450.399 19.4928 450.592 19.4033C451.381 19.0362 452.274 18.7863 453.119 18.6173C453.962 18.4484 454.751 18.3618 455.329 18.3172C455.618 18.2949 455.854 18.283 456.016 18.2769ZM442.006 16.4991C442.195 16.1238 442.68 16.1035 442.977 16.4011C443.248 16.6734 443.528 16.9465 443.816 17.2191C444.286 17.6645 444.329 18.4189 444.068 19.0113C443.856 19.4918 443.695 20.03 443.574 20.5294C443.453 21.0299 443.37 21.4979 443.318 21.8403C443.317 21.8436 443.313 21.8448 443.311 21.8424C442.535 20.9902 441.825 20.0356 441.223 18.9696C441.217 18.9588 441.215 18.9462 441.217 18.9341C441.232 18.8614 441.254 18.7558 441.284 18.6265C441.344 18.3675 441.434 18.0139 441.555 17.6347C441.676 17.2547 441.827 16.8541 442.006 16.4991ZM452.143 15.2524C452.24 15.2394 452.338 15.2613 452.42 15.3139C453.469 15.9854 454.456 16.7322 455.375 17.5446C455.469 17.6284 455.415 17.7839 455.289 17.7936C454.696 17.8394 453.886 17.9285 453.016 18.1026C452.147 18.2765 451.211 18.5368 450.37 18.9276C450.032 19.0845 449.707 19.264 449.407 19.4694C448.795 19.8878 447.96 20.0197 447.372 19.569C447.053 19.3249 446.74 19.0769 446.433 18.8257C445.856 18.3545 445.786 17.5005 446.407 17.0888C446.595 16.9637 446.797 16.8453 447.009 16.7335C447.747 16.345 448.589 16.0463 449.388 15.8211C450.187 15.5962 450.937 15.4465 451.487 15.3529C451.762 15.3061 451.987 15.2733 452.143 15.2524ZM439.423 13.6315C439.377 13.3109 439.813 13.1378 440.03 13.3779C440.361 13.7431 440.731 14.1172 441.109 14.4947C441.201 14.5875 441.295 14.6806 441.388 14.774C441.771 15.158 441.782 15.7781 441.537 16.2626C441.341 16.651 441.181 17.08 441.055 17.4755C440.972 17.7354 440.611 17.7691 440.504 17.5184C440 16.3452 439.625 15.053 439.423 13.6315ZM447.807 13.0665C447.86 13.0506 447.916 13.0528 447.968 13.0724C449.174 13.5319 450.328 14.0807 451.423 14.709C451.478 14.741 451.463 14.8243 451.399 14.8351C450.836 14.9309 450.067 15.0847 449.246 15.3159C448.425 15.5469 447.546 15.8574 446.765 16.2691C446.545 16.3846 446.332 16.509 446.129 16.6428C445.458 17.0855 444.518 17.1687 443.939 16.6108C443.904 16.5771 443.869 16.5434 443.835 16.5097C443.263 15.9555 443.311 15.0396 444.002 14.6445C444.6 14.3024 445.259 14.0011 445.872 13.7521C446.447 13.5186 446.973 13.3348 447.355 13.2094C447.546 13.1468 447.7 13.0988 447.807 13.0665ZM439.357 11.258C439.515 11.2316 439.752 11.2255 440.061 11.243C440.674 11.2776 441.512 11.4001 442.438 11.5786C443.475 11.7782 444.61 12.0455 445.645 12.3305C446.099 12.4555 446.111 13.0886 445.675 13.2658C444.99 13.5437 444.222 13.8964 443.532 14.3118C442.888 14.6995 442.027 14.6712 441.496 14.1399C441.491 14.1345 441.486 14.1292 441.48 14.1239C441.102 13.7459 440.74 13.3803 440.419 13.0259C439.851 12.398 439.448 11.8417 439.299 11.3538C439.286 11.3103 439.313 11.2655 439.357 11.258Z" fill="#D5C578"/>
<path d="M463.996 39.7324C463.959 40.9422 463.706 42.2963 463.342 43.6366C462.66 46.149 461.587 48.6385 460.806 50.0858L460.654 50.3612L460.515 50.5967C459.87 51.6562 457.02 56.0463 452.546 58.7642L452.344 58.8852C450.24 60.1244 447.659 61.054 445.173 61.5621C442.69 62.0694 440.28 62.161 438.525 61.7043L438.357 61.6581C438.014 61.5594 437.906 61.1688 438.086 60.897L438.126 60.8441C439.071 59.7457 440.363 58.2606 441.519 56.7766C442.606 55.3799 443.557 54.0025 443.989 52.9578L444.069 52.7535C445.097 49.911 445.633 46.3149 450.348 40.9856L450.576 40.7303C452.539 38.5509 454.944 37.18 457.219 36.507C459.488 35.8355 461.647 35.8535 463.111 36.48L463.173 36.5118C463.233 36.5478 463.284 36.5963 463.324 36.6556L463.372 36.7301C463.863 37.5083 464.03 38.5644 463.996 39.7324ZM463.281 38.0968C463.299 37.7755 463.296 37.4927 463.26 37.2769C463.242 37.1699 463.213 37.0628 463.165 36.9721C463.115 36.8806 463.029 36.7789 462.889 36.7421C462.868 36.7364 462.845 36.7336 462.823 36.7336C459.682 36.7336 457.056 37.505 454.876 38.714L454.63 38.8534C453.408 39.5607 452.332 40.4047 451.388 41.3219L451.174 41.5338C450.113 42.5998 449.225 43.7566 448.49 44.9089L448.346 45.1365C447.638 46.2748 447.077 47.4042 446.642 48.4334L446.458 48.8804C446.048 49.9069 445.767 50.816 445.596 51.5091L445.539 51.7238C445.234 52.8073 444.622 54.0533 443.897 55.2855L443.693 55.6266C443.242 56.3696 442.76 57.0962 442.292 57.7657C442.239 57.8407 442.18 57.9102 442.113 57.9734L438.981 60.962C438.822 61.1131 438.908 61.3804 439.124 61.4117C441.001 61.6838 442.413 61.4746 443.653 61.2343L444.175 61.1308C444.806 61.0041 445.431 60.8498 446.046 60.6688L446.309 60.5895C447.235 60.3044 448.141 59.9588 449.021 59.5567L449.397 59.381C450.334 58.9318 451.241 58.4176 452.112 57.8438L452.483 57.594C453.729 56.7382 454.898 55.758 455.97 54.6683L456.184 54.4489C457.259 53.3278 458.235 52.0943 459.092 50.7641L459.262 50.4969C460.085 49.1828 460.793 47.7766 461.368 46.293L461.481 45.9953C461.998 44.6086 462.577 42.4135 462.937 40.543C463.117 39.6081 463.245 38.7439 463.281 38.0968ZM444.524 58.4173C444.649 58.4491 444.664 58.6053 444.554 58.672C443.414 59.3636 442.168 59.8913 441.15 60.2593C440.895 60.3514 440.708 60.0394 440.904 59.8526L442.523 58.3078C442.525 58.3061 442.527 58.3053 442.53 58.3052C442.591 58.3011 442.681 58.2957 442.79 58.2915C443.009 58.2832 443.305 58.2792 443.617 58.2953C443.931 58.3115 444.253 58.3479 444.524 58.4173ZM444.033 59.5708C444.351 59.4024 444.677 59.6827 444.481 59.9849C444.343 60.1968 444.205 60.3752 444.101 60.5003C444.029 60.5875 443.927 60.6446 443.816 60.6667C443.066 60.8161 442.278 60.9617 441.371 61.0028C441.217 61.0098 441.183 60.8055 441.328 60.7532C442.134 60.4618 443.09 60.0692 444.033 59.5708ZM446.888 56.1781C447.179 56.2824 447.22 56.635 446.992 56.8432C446.634 57.1689 446.257 57.4786 445.87 57.7713C445.533 58.0261 445.064 58.0133 444.654 57.9088C444.335 57.8273 443.975 57.7881 443.644 57.771C443.348 57.7557 443.167 57.4202 443.331 57.1727C443.59 56.7826 443.848 56.38 444.097 55.9716C444.2 55.8018 444.39 55.703 444.588 55.724C444.883 55.7552 445.282 55.805 445.697 55.8795C446.113 55.9542 446.537 56.0523 446.888 56.1781ZM448.722 52.6162C449.252 52.8468 449.463 53.4569 449.217 53.9796C448.978 54.4869 448.67 54.9718 448.311 55.4329C448.029 55.7946 447.497 55.8386 447.066 55.684C446.675 55.5442 446.218 55.4398 445.789 55.3627C445.358 55.2854 444.947 55.2342 444.643 55.2021C444.602 55.1978 444.579 55.1533 444.599 55.1174C445.18 54.0895 445.681 53.0448 445.979 52.0872C446.017 51.964 446.14 51.8855 446.267 51.9093C446.548 51.9623 446.935 52.0433 447.356 52.1551C447.813 52.2761 448.294 52.4296 448.722 52.6162ZM447.367 57.2115C447.447 57.1376 447.569 57.2041 447.538 57.309C447.425 57.6887 447.222 58.1342 446.994 58.5663C446.768 58.9961 446.523 59.4027 446.334 59.7023C446.24 59.8518 446.16 59.9742 446.103 60.0591C446.08 60.0948 446.044 60.1209 446.003 60.1332C445.676 60.2314 445.346 60.322 445.014 60.4046C444.937 60.4236 444.878 60.337 444.921 60.271C445.139 59.9353 445.371 59.4995 445.479 59.0327C445.533 58.8005 445.65 58.5821 445.844 58.4427C446.366 58.0661 446.882 57.6552 447.367 57.2115ZM449.755 49.1574C450.496 49.3488 450.749 50.1843 450.428 50.8795C450.423 50.8904 450.418 50.9014 450.413 50.9123C450.034 51.7386 448.973 52.1056 448.108 51.8275C447.897 51.7598 447.689 51.7 447.491 51.6476C447.054 51.5316 446.654 51.4479 446.364 51.3933C446.263 51.3744 446.199 51.2754 446.227 51.1772C446.394 50.5826 446.63 49.8679 446.944 49.08C447.012 48.9119 447.177 48.804 447.358 48.8134C447.655 48.829 448.068 48.86 448.526 48.9221C448.922 48.9757 449.345 49.0515 449.755 49.1574ZM449.906 54.6307C449.897 55.2616 449.799 55.9633 449.669 56.6234C449.54 57.2822 449.381 57.8925 449.254 58.3384C449.191 58.561 449.135 58.7425 449.096 58.8677C449.079 58.9232 449.039 58.9687 448.986 58.9933C448.656 59.1476 448.323 59.2938 447.986 59.4317C447.612 59.5849 447.27 59.1689 447.459 58.811C447.692 58.3676 447.914 57.8865 448.041 57.4577C448.104 57.2435 448.147 57.0311 448.152 56.837C448.156 56.6141 448.201 56.3804 448.347 56.2125C448.799 55.6957 449.197 55.1432 449.513 54.5564C449.62 54.3578 449.909 54.4051 449.906 54.6307ZM451.997 45.8734C452.609 46.1516 452.674 46.9145 452.312 47.481C452.207 47.6461 452.103 47.8122 452 47.9792C451.596 48.6366 450.742 48.8816 449.997 48.6786C449.519 48.5482 449.033 48.4609 448.597 48.4019C448.12 48.3375 447.693 48.3053 447.386 48.2892C447.334 48.2865 447.301 48.2338 447.322 48.1866C447.687 47.3703 448.131 46.5017 448.663 45.6248C448.783 45.4265 448.998 45.3053 449.23 45.3125C449.547 45.3224 449.982 45.3521 450.456 45.4301C450.97 45.5145 451.511 45.6529 451.997 45.8734ZM454.779 42.5536C455.293 42.78 455.342 43.414 454.984 43.8458C454.727 44.1542 454.474 44.4687 454.224 44.7888C453.7 45.4599 452.682 45.558 451.885 45.2594C451.432 45.0898 450.965 44.9816 450.541 44.912C450.038 44.8294 449.579 44.7984 449.246 44.7879C449.225 44.7873 449.213 44.7638 449.225 44.7461C449.908 43.7326 450.712 42.7286 451.651 41.8007C451.661 41.7908 451.675 41.786 451.689 41.7877C451.782 41.7992 451.918 41.8172 452.084 41.8424C452.416 41.8929 452.868 41.9724 453.349 42.0891C453.832 42.2061 454.338 42.359 454.779 42.5536ZM452.24 54.3775C452.251 55.1938 452.209 55.9361 452.165 56.4744C452.143 56.7434 452.12 56.9612 452.103 57.1111C452.094 57.1844 452.054 57.2501 451.993 57.2912C451.304 57.7545 450.59 58.1791 449.857 58.5624C449.803 58.5905 449.742 58.5403 449.759 58.4819C449.888 58.0268 450.051 57.4019 450.184 56.7246C450.317 56.0486 450.421 55.3127 450.431 54.6379C450.436 54.2467 450.409 53.8622 450.331 53.5166C450.249 53.1546 450.21 52.7704 450.344 52.4241C450.428 52.2061 450.516 51.988 450.608 51.7709C450.918 51.0361 451.846 51.0647 452.001 51.8471C452.165 52.6743 452.229 53.5603 452.24 54.3775ZM455.725 54.0186C455.728 54.1111 455.693 54.2007 455.628 54.2668C454.781 55.1316 453.871 55.9262 452.91 56.6427C452.814 56.7147 452.678 56.6376 452.688 56.5175C452.734 55.9674 452.776 55.2077 452.765 54.3703C452.754 53.5337 452.689 52.6137 452.516 51.745C452.415 51.2328 452.275 50.7323 452.083 50.2744C451.885 49.8004 451.853 49.2535 452.113 48.8103C452.244 48.5871 452.378 48.3657 452.514 48.1461C452.946 47.4484 453.898 47.3331 454.311 48.0422C454.414 48.2182 454.51 48.403 454.599 48.595C454.966 49.3847 455.216 50.277 455.385 51.1216C455.554 51.9651 455.64 52.7535 455.685 53.3314C455.707 53.62 455.719 53.8558 455.725 54.0186ZM457.502 40.0113C457.878 40.2007 457.898 40.6855 457.6 40.9824C457.328 41.254 457.055 41.5339 456.782 41.8215C456.337 42.2909 455.583 42.3339 454.991 42.0731C454.511 41.8614 453.973 41.7003 453.473 41.5792C452.973 41.458 452.505 41.3753 452.163 41.3233C452.159 41.3228 452.158 41.3185 452.161 41.3163C453.013 40.5404 453.967 39.8306 455.033 39.2289C455.043 39.2228 455.056 39.2207 455.068 39.2232C455.141 39.2379 455.246 39.2603 455.376 39.2902C455.634 39.3501 455.988 39.4401 456.367 39.5609C456.747 39.6819 457.148 39.8322 457.502 40.0113ZM458.749 50.1459C458.762 50.2427 458.74 50.3408 458.687 50.423C458.016 51.4714 457.269 52.4587 456.457 53.3769C456.374 53.4715 456.218 53.417 456.208 53.291C456.163 52.6988 456.074 51.8886 455.9 51.0187C455.726 50.15 455.466 49.2139 455.075 48.3736C454.918 48.0358 454.739 47.7107 454.533 47.4104C454.115 46.7991 453.983 45.9643 454.433 45.3764C454.677 45.0582 454.925 44.7453 455.176 44.4382C455.647 43.8611 456.502 43.7915 456.914 44.4127C457.038 44.601 457.156 44.8023 457.268 45.0138C457.656 45.751 457.955 46.5926 458.18 47.3921C458.405 48.1904 458.555 48.94 458.648 49.4904C458.695 49.7654 458.728 49.9904 458.749 50.1459ZM460.369 37.4291C460.69 37.3835 460.863 37.8189 460.623 38.0363C460.258 38.3669 459.883 38.7372 459.506 39.1145C459.413 39.2073 459.32 39.3005 459.227 39.3937C458.843 39.777 458.223 39.7871 457.739 39.5427C457.351 39.3468 456.922 39.1869 456.526 39.0609C456.266 38.978 456.233 38.6172 456.484 38.5096C457.656 38.0064 458.948 37.6316 460.369 37.4291ZM460.934 45.8111C460.95 45.8639 460.948 45.9204 460.928 45.9719C460.469 47.1777 459.92 48.3317 459.292 49.4259C459.26 49.4815 459.177 49.4659 459.166 49.4026C459.07 48.8396 458.917 48.0707 458.686 47.2496C458.455 46.4295 458.144 45.5502 457.732 44.7691C457.617 44.5498 457.493 44.3366 457.359 44.1336C456.916 43.4626 456.833 42.5234 457.391 41.9445C457.424 41.9098 457.457 41.8751 457.491 41.8406C458.045 41.2691 458.962 41.3171 459.357 42.0083C459.699 42.606 460 43.2639 460.249 43.8768C460.482 44.4519 460.666 44.9776 460.791 45.3593C460.854 45.5501 460.902 45.7046 460.934 45.8111ZM462.742 37.3637C462.768 37.5217 462.775 37.7585 462.757 38.0671C462.722 38.6798 462.6 39.5178 462.421 40.4439C462.222 41.4803 461.955 42.6146 461.67 43.6496C461.545 44.1035 460.912 44.1155 460.735 43.6793C460.457 42.9948 460.105 42.2267 459.689 41.537C459.302 40.8936 459.33 40.0331 459.861 39.5021C459.866 39.4967 459.872 39.4914 459.877 39.486C460.255 39.1083 460.621 38.7461 460.975 38.4252C461.603 37.857 462.159 37.4544 462.646 37.3057C462.69 37.2925 462.735 37.3189 462.742 37.3637Z" fill="#D5C578"/>
<path d="M472.64 10.6H477.536V40.984C477.536 46.792 478.952 51.328 481.784 54.592C484.664 57.808 488.696 59.416 493.88 59.416C497.144 59.416 499.976 58.792 502.376 57.544C504.824 56.248 506.696 54.472 507.992 52.216C509.336 49.96 509.96 47.368 509.864 44.44L508.64 10.6H513.536L512.312 44.44C512.12 50.2 510.392 54.568 507.128 57.544C503.912 60.52 499.304 62.008 493.304 62.008C486.824 62.008 481.76 60.136 478.112 56.392C474.464 52.6 472.64 47.416 472.64 40.84V10.6ZM532.245 10.6H541.893C546.981 10.6 550.917 11.68 553.701 13.84C556.533 15.952 557.949 18.928 557.949 22.768C557.949 25.744 557.061 28.216 555.285 30.184C553.557 32.152 551.037 33.472 547.725 34.144V34.576C550.893 35.2 553.485 36.688 555.501 39.04C557.517 41.392 559.029 44.296 560.037 47.752C560.949 50.92 561.837 53.392 562.701 55.168C563.613 56.896 564.597 58.144 565.653 58.912C566.757 59.68 568.053 60.232 569.541 60.568V61H566.589C564.477 61 562.725 60.616 561.333 59.848C559.989 59.08 558.837 57.784 557.877 55.96C556.917 54.136 556.005 51.616 555.141 48.4C553.749 43.456 551.901 39.952 549.597 37.888C547.293 35.824 544.485 34.792 541.173 34.792H540.741V33.496H541.173C548.901 33.496 552.765 29.944 552.765 22.84C552.765 15.832 549.141 12.328 541.893 12.328H537.141V61H532.245V10.6ZM600.727 61V10.6H605.623V61H600.727ZM624.712 61L626.512 9.592H627.376L663.592 53.368H664.024L662.44 10.6H667.336L665.536 62.008H664.672L628.456 18.232H628.024L629.608 61H624.712ZM686.435 61V10.6H702.275C707.843 10.6 712.691 11.656 716.819 13.768C720.947 15.88 724.163 18.832 726.467 22.624C728.771 26.368 729.923 30.76 729.923 35.8C729.923 40.84 728.771 45.256 726.467 49.048C724.163 52.792 720.947 55.72 716.819 57.832C712.691 59.944 707.843 61 702.275 61H686.435ZM702.275 12.328H691.331V59.272H702.275C709.235 59.272 714.659 57.208 718.547 53.08C722.483 48.952 724.451 43.192 724.451 35.8C724.451 28.408 722.483 22.648 718.547 18.52C714.659 14.392 709.235 12.328 702.275 12.328ZM742.916 35.8C742.916 32.104 743.564 28.672 744.86 25.504C746.204 22.288 748.052 19.504 750.404 17.152C752.804 14.752 755.588 12.904 758.756 11.608C761.972 10.264 765.428 9.592 769.124 9.592C772.82 9.592 776.252 10.264 779.42 11.608C782.636 12.904 785.42 14.752 787.772 17.152C790.172 19.504 792.02 22.288 793.316 25.504C794.66 28.672 795.332 32.104 795.332 35.8C795.332 39.496 794.66 42.952 793.316 46.168C792.02 49.336 790.172 52.12 787.772 54.52C785.42 56.872 782.636 58.72 779.42 60.064C776.252 61.36 772.82 62.008 769.124 62.008C765.428 62.008 761.972 61.36 758.756 60.064C755.588 58.72 752.804 56.872 750.404 54.52C748.052 52.12 746.204 49.336 744.86 46.168C743.564 42.952 742.916 39.496 742.916 35.8ZM748.388 35.8C748.388 40.696 749.252 44.992 750.98 48.688C752.708 52.336 755.132 55.192 758.252 57.256C761.372 59.272 764.996 60.28 769.124 60.28C773.252 60.28 776.876 59.272 779.996 57.256C783.116 55.192 785.54 52.312 787.268 48.616C788.996 44.92 789.86 40.648 789.86 35.8C789.86 30.952 788.996 26.704 787.268 23.056C785.54 19.36 783.116 16.48 779.996 14.416C776.876 12.352 773.252 11.32 769.124 11.32C764.996 11.32 761.372 12.352 758.252 14.416C755.18 16.432 752.756 19.288 750.98 22.984C749.252 26.632 748.388 30.904 748.388 35.8ZM810.79 61L812.59 9.592H813.454L849.67 53.368H850.102L848.518 10.6H853.414L851.614 62.008H850.75L814.534 18.232H814.102L815.686 61H810.79ZM872.513 61V10.6H894.473V14.128L881.873 12.472C879.665 12.184 878.177 12.04 877.409 12.04V34C878.033 34 879.521 33.928 881.873 33.784L893.681 33.064V36.376L881.873 35.656C879.521 35.512 878.033 35.44 877.409 35.44V59.56C878.273 59.56 879.785 59.416 881.945 59.128L894.689 57.472V61H872.513ZM906.826 59.416L907.258 55.096H907.69C909.562 56.728 911.674 58 914.026 58.912C916.378 59.824 918.706 60.28 921.01 60.28C924.274 60.28 926.914 59.392 928.93 57.616C930.946 55.792 931.954 53.368 931.954 50.344C931.954 48.664 931.57 47.104 930.802 45.664C930.082 44.224 928.858 42.76 927.13 41.272C925.45 39.784 923.122 38.176 920.146 36.448C918.082 35.248 916.114 34 914.242 32.704C912.37 31.36 910.834 29.824 909.634 28.096C908.434 26.32 907.834 24.208 907.834 21.76C907.834 18.112 909.154 15.184 911.794 12.976C914.434 10.72 917.914 9.592 922.234 9.592C924.154 9.592 926.218 9.808 928.426 10.24C930.634 10.624 932.338 11.128 933.538 11.752L933.178 15.784H932.746C930.01 12.808 926.506 11.32 922.234 11.32C919.162 11.32 916.69 12.112 914.818 13.696C912.946 15.232 912.01 17.32 912.01 19.96C912.01 21.928 912.514 23.632 913.522 25.072C914.578 26.464 915.922 27.736 917.554 28.888C919.186 29.992 920.938 31.072 922.81 32.128C924.97 33.376 927.058 34.696 929.074 36.088C931.138 37.48 932.818 39.16 934.114 41.128C935.458 43.048 936.13 45.472 936.13 48.4C936.13 51.088 935.506 53.464 934.258 55.528C933.01 57.544 931.234 59.128 928.93 60.28C926.674 61.432 924.034 62.008 921.01 62.008C919.09 62.008 916.834 61.768 914.242 61.288C911.65 60.808 909.178 60.184 906.826 59.416ZM951.752 61V10.6H956.648V61H951.752ZM969.329 61L988.697 10.6H993.161L1012.53 61H1007.27L998.345 37.384H982.001L974.585 61H969.329ZM989.201 14.344L982.505 35.656H997.697L989.633 14.344H989.201Z" fill="#D5C578"/>
</svg>
